SplineFontDB: 3.0
FontName: Autonym
FullName: Autonym
FamilyName: Autonym
Weight: Medium
Copyright: Copyright 2013 Santhosh Thottingal <santhosh.thottingal@gmail.com>\nwith Reserved Font Name Autonym Font.\n\nThis Font Software is licensed under the SIL Open Font License, Version 1.1.\nThis license is copied below, and is also available with a FAQ at:\nhttp://scripts.sil.org/OFL
Version: 1.0.20131103
ItalicAngle: 0
UnderlinePosition: -151
UnderlineWidth: 50
Ascent: 800
Descent: 200
sfntRevision: 0x019c3a1d
LayerCount: 2
Layer: 0 1 "Back"  1
Layer: 1 1 "Fore"  0
XUID: [1021 393 960756424 5736462]
FSType: 0
OS2Version: 3
OS2_WeightWidthSlopeOnly: 0
OS2_UseTypoMetrics: 1
CreationTime: 1203284335
ModificationTime: 1384620258
PfmFamily: 17
TTFWeight: 500
TTFWidth: 5
LineGap: 100
VLineGap: 0
Panose: 2 11 5 4 2 2 2 2 2 4
OS2TypoAscent: 800
OS2TypoAOffset: 0
OS2TypoDescent: -200
OS2TypoDOffset: 0
OS2TypoLinegap: 100
OS2WinAscent: 900
OS2WinAOffset: 0
OS2WinDescent: 300
OS2WinDOffset: 0
HheadAscent: 900
HheadAOffset: 0
HheadDescent: -200
HheadDOffset: 0
OS2SubXSize: 650
OS2SubYSize: 666
OS2SubXOff: 0
OS2SubYOff: 200
OS2SupXSize: 650
OS2SupYSize: 666
OS2SupXOff: 0
OS2SupYOff: 390
OS2StrikeYSize: 49
OS2StrikeYPos: 258
OS2FamilyClass: 2053
OS2Vendor: '    '
OS2CodePages: 600001bf.dff70000
OS2UnicodeRanges: 00008000.00000000.00000000.00000000
Lookup: 4 0 0 "'blwf' Below Base Forms in Kannada lookup 0"  {"'blwf' Below Base Forms in Kannada lookup 0 subtable"  } ['blwf' ('knda' <'dflt' > ) ]
Lookup: 4 0 0 "'pres' Pre Base Substitutions in Devanagari2 lookup 1"  {"'pres' Pre Base Substitutions in Devanagari2 lookup 1 subtable"  } ['pres' ('dev2' <'dflt' > ) ]
Lookup: 4 0 0 "'nukt' Nukta Forms in Devanagari2 lookup 2"  {"'nukt' Nukta Forms in Devanagari2 lookup 2 subtable"  } ['nukt' ('dev2' <'dflt' > ) ]
Lookup: 4 0 0 "'half' Half Forms in Devanagari2 lookup 3"  {"'half' Half Forms in Devanagari2 lookup 3 subtable"  } ['half' ('dev2' <'dflt' > ) ]

StartChar: .notdef
Encoding: 502 -1 0
Width: 557
Flags: W
LayerCount: 2
Fore
SplineSet
169 43 m 1,0,-1
 508 43 l 1,1,-1
 508 522 l 1,2,-1
 169 522 l 1,3,-1
 169 43 l 1,0,-1
120 0 m 1,4,-1
 120 564 l 1,5,-1
 557 564 l 1,6,-1
 557 0 l 1,7,-1
 120 0 l 1,4,-1
362 130 m 1,8,-1
 362 67 l 1,9,-1
 308 67 l 1,10,-1
 308 130 l 1,11,-1
 362 130 l 1,8,-1
211 371 m 1,12,13
 211 511 211 511 342 511 c 0,14,15
 400 511 400 511 435 480 c 128,-1,16
 470 449 470 449 470 396 c 0,17,18
 470 343.9375 470 343.9375 432 309.5 c 0,19,20
 416 295 416 295 400 281.5 c 0,21,22
 362 249.4375 362 249.4375 362 214 c 2,23,-1
 362 186 l 1,24,-1
 308 186 l 1,25,-1
 308 219 l 2,26,27
 308 259.483870968 308 259.483870968 346.5 295.5 c 0,28,29
 362 310 362 310 378 324.5 c 0,30,31
 415 358.03125 415 358.03125 415 392.515625 c 128,-1,32
 415 427 415 427 394.5 446 c 128,-1,33
 374 465 374 465 334.5 465 c 128,-1,34
 295 465 295 465 278.5 440 c 128,-1,35
 262 415 262 415 262 371 c 1,36,-1
 211 371 l 1,12,13
EndSplineSet
EndChar

StartChar: quotesingle
Encoding: 2 39 5
Width: 200
GlyphClass: 2
Flags: W
LayerCount: 2
Fore
SplineSet
53 709 m 1,0,-1
 147 709 l 1,1,-1
 147 598 l 1,2,-1
 120 464 l 1,3,-1
 80 464 l 1,4,-1
 53 598 l 1,5,-1
 53 709 l 1,0,-1
EndSplineSet
EndChar

StartChar: parenleft
Encoding: 3 40 6
Width: 333
GlyphClass: 2
Flags: W
LayerCount: 2
Fore
SplineSet
236 729 m 1,0,-1
 291 729 l 1,1,2
 154 508 154 508 154 259.5 c 128,-1,3
 154 11 154 11 291 -212 c 1,4,-1
 236 -212 l 1,5,6
 161 -114 161 -114 117 13.5 c 128,-1,7
 73 141 73 141 73 259 c 128,-1,8
 73 377 73 377 117 504 c 128,-1,9
 161 631 161 631 236 729 c 1,0,-1
EndSplineSet
EndChar

StartChar: parenright
Encoding: 4 41 7
Width: 333
GlyphClass: 2
Flags: W
LayerCount: 2
Fore
SplineSet
93 -212 m 1,0,-1
 38 -212 l 1,1,2
 175 9 175 9 175 257.5 c 128,-1,3
 175 506 175 506 38 729 c 1,4,-1
 93 729 l 1,5,6
 168 631 168 631 212 503.5 c 128,-1,7
 256 376 256 376 256 258 c 128,-1,8
 256 140 256 140 212 13 c 128,-1,9
 168 -114 168 -114 93 -212 c 1,0,-1
EndSplineSet
EndChar

StartChar: hyphen
Encoding: 5 45 8
Width: 333
GlyphClass: 2
Flags: W
LayerCount: 2
Fore
SplineSet
287 312 m 1,0,-1
 287 240 l 1,1,-1
 46 240 l 1,2,-1
 46 312 l 1,3,-1
 287 312 l 1,0,-1
EndSplineSet
EndChar

StartChar: slash
Encoding: 6 47 9
Width: 278
GlyphClass: 2
Flags: W
LayerCount: 2
Fore
SplineSet
229 729 m 1,0,-1
 284 729 l 1,1,-1
 47 -20 l 1,2,-1
 -8 -20 l 1,3,-1
 229 729 l 1,0,-1
EndSplineSet
EndChar

StartChar: A
Encoding: 7 65 10
Width: 666
GlyphClass: 2
Flags: W
HStem: 0 21G<15 121.032 540.151 651> 219 78<214 446> 709 20G<267.867 402.023>
LayerCount: 2
Fore
SplineSet
446 297 m 1,0,-1
 334 629 l 1,1,-1
 214 297 l 1,2,-1
 446 297 l 1,0,-1
472 219 m 1,3,-1
 191 219 l 1,4,-1
 114 0 l 1,5,-1
 15 0 l 1,6,-1
 275 729 l 1,7,-1
 395 729 l 1,8,-1
 651 0 l 1,9,-1
 547 0 l 1,10,-1
 472 219 l 1,3,-1
EndSplineSet
EndChar

StartChar: B
Encoding: 8 66 11
Width: 664
GlyphClass: 2
Flags: W
HStem: 0 82<173 478.983> 333 82<173 450.203> 647 82<173 450.203>
VStem: 80 93<82 333 415 647> 499 93<459.377 601.855> 531 93<130.514 283.134>
LayerCount: 2
Fore
SplineSet
400 82 m 2,0,1
 449 82 449 82 480 103.5 c 128,-1,2
 511 125 511 125 521 151 c 128,-1,3
 531 177 531 177 531 207 c 0,4,5
 531 264 531 264 497 298.5 c 128,-1,6
 463 333 463 333 400 333 c 2,7,-1
 173 333 l 1,8,-1
 173 82 l 1,9,-1
 400 82 l 2,0,1
499 531 m 128,-1,11
 499 647 499 647 353 647 c 2,12,-1
 173 647 l 1,13,-1
 173 415 l 1,14,-1
 353 415 l 2,15,10
 499 415 499 415 499 531 c 128,-1,11
624 208 m 0,16,17
 624 114 624 114 565 57 c 128,-1,18
 506 0 506 0 409 0 c 2,19,-1
 80 0 l 1,20,-1
 80 729 l 1,21,-1
 376 729 l 2,22,23
 437 729 437 729 482 711 c 128,-1,24
 527 693 527 693 549.5 663.5 c 0,25,26
 592 607.777777778 592 607.777777778 592 544 c 0,27,28
 592 432 592 432 491 385 c 1,29,30
 561 358 561 358 592.5 316 c 128,-1,31
 624 274 624 274 624 208 c 0,16,17
EndSplineSet
EndChar

StartChar: C
Encoding: 9 67 12
Width: 709
GlyphClass: 2
Flags: W
HStem: -23 82<269.376 468.926> 659 82<264.115 468.897>
VStem: 40 93<216.942 503.052> 559 95<503 565.231> 573 96<182.743 266>
LayerCount: 2
Fore
SplineSet
48.5 259 m 128,-1,1
 40 307 40 307 40 356.5 c 128,-1,2
 40 406 40 406 48.5 455 c 128,-1,3
 57 504 57 504 81 557 c 128,-1,4
 105 610 105 610 140.5 649.5 c 128,-1,5
 176 689 176 689 236.5 715 c 128,-1,6
 297 741 297 741 373 741 c 0,7,8
 611 741 611 741 654 503 c 1,9,-1
 559 503 l 1,10,11
 543 581 543 581 496 620 c 128,-1,12
 449 659 449 659 362 659 c 0,13,14
 256 659 256 659 194.5 578 c 128,-1,15
 133 497 133 497 133 358.5 c 128,-1,16
 133 220 133 220 197 139.5 c 128,-1,17
 261 59 261 59 370 59 c 0,18,19
 460 59 460 59 508 109.5 c 128,-1,20
 556 160 556 160 573 266 c 1,21,-1
 669 266 l 1,22,23
 636 -23 636 -23 369 -23 c 0,24,25
 294 -23 294 -23 234.5 2.5 c 128,-1,26
 175 28 175 28 139.5 67 c 128,-1,27
 104 106 104 106 80.5 158.5 c 128,-1,0
 57 211 57 211 48.5 259 c 128,-1,1
EndSplineSet
EndChar

StartChar: D
Encoding: 10 68 13
Width: 698
GlyphClass: 2
Flags: W
HStem: 0 82<173 445.264> 647 82<173 445.759>
VStem: 80 93<82 647> 565 93<217.337 509.992>
LayerCount: 2
Fore
SplineSet
173 82 m 1,0,-1
 345 82 l 2,1,2
 453 82 453 82 509 154 c 128,-1,3
 565 226 565 226 565 364.5 c 128,-1,4
 565 503 565 503 509 575 c 128,-1,5
 453 647 453 647 345 647 c 2,6,-1
 173 647 l 1,7,-1
 173 82 l 1,0,-1
80 0 m 1,8,-1
 80 729 l 1,9,-1
 361 729 l 2,10,11
 500 729 500 729 579 632 c 128,-1,12
 658 535 658 535 658 365 c 128,-1,13
 658 195 658 195 578.5 97.5 c 128,-1,14
 499 0 499 0 361 0 c 2,15,-1
 80 0 l 1,8,-1
EndSplineSet
EndChar

StartChar: E
Encoding: 11 69 14
Width: 633
GlyphClass: 2
Flags: W
HStem: 0 82<173 603> 332 82<173 570> 647 82<173 585>
VStem: 80 93<82 332 414 647>
LayerCount: 2
Fore
SplineSet
173 332 m 1,0,-1
 173 82 l 1,1,-1
 603 82 l 1,2,-1
 603 0 l 1,3,-1
 80 0 l 1,4,-1
 80 729 l 1,5,-1
 585 729 l 1,6,-1
 585 647 l 1,7,-1
 173 647 l 1,8,-1
 173 414 l 1,9,-1
 570 414 l 1,10,-1
 570 332 l 1,11,-1
 173 332 l 1,0,-1
EndSplineSet
EndChar

StartChar: F
Encoding: 12 70 15
Width: 599
GlyphClass: 2
Flags: W
HStem: 0 21G<80 173> 332 82<173 521> 647 82<173 569>
VStem: 80 93<0 332 414 647>
LayerCount: 2
Fore
SplineSet
173 332 m 1,0,-1
 173 0 l 1,1,-1
 80 0 l 1,2,-1
 80 729 l 1,3,-1
 569 729 l 1,4,-1
 569 647 l 1,5,-1
 173 647 l 1,6,-1
 173 414 l 1,7,-1
 521 414 l 1,8,-1
 521 332 l 1,9,-1
 173 332 l 1,0,-1
EndSplineSet
EndChar

StartChar: G
Encoding: 13 71 16
Width: 765
GlyphClass: 2
Flags: W
HStem: -23 82<285.121 489.388> 303 82<401 623> 659 82<281.502 495.38>
VStem: 40 93<233.052 493.175> 600 95<508 563.441> 623 82<181.385 303> 646 59<-4 25.5217>
LayerCount: 2
Fore
SplineSet
133 362 m 0,0,1
 133 279.666666667 133 279.666666667 165 205 c 0,2,3
 183 163 183 163 211.5 131.5 c 128,-1,4
 240 100 240 100 287 79.5 c 128,-1,5
 334 59 334 59 394 59 c 0,6,7
 494 59 494 59 558.5 122 c 128,-1,8
 623 185 623 185 623 283 c 2,9,-1
 623 303 l 1,10,-1
 401 303 l 1,11,-1
 401 385 l 1,12,-1
 705 385 l 1,13,-1
 705 -4 l 1,14,-1
 646 -4 l 1,15,-1
 623 93 l 1,16,17
 519 -23 519 -23 372.5 -23 c 128,-1,18
 226 -23 226 -23 133 83 c 128,-1,19
 40 189 40 189 40 357 c 0,20,21
 40 463.84 40 463.84 83 555 c 0,22,23
 108 608 108 608 145.5 648 c 128,-1,24
 183 688 183 688 246.5 714.5 c 128,-1,25
 310 741 310 741 390 741 c 0,26,27
 515 741 515 741 595.5 680 c 128,-1,28
 676 619 676 619 695 508 c 1,29,-1
 600 508 l 1,30,31
 585 578 585 578 528.5 618.5 c 128,-1,32
 472 659 472 659 389 659 c 0,33,34
 273 659 273 659 203 577.5 c 128,-1,35
 133 496 133 496 133 362 c 0,0,1
EndSplineSet
EndChar

StartChar: H
Encoding: 14 72 17
Width: 721
GlyphClass: 2
Flags: W
HStem: 0 21G<80 173 548 641> 332 82<173 548> 709 20G<80 173 548 641>
VStem: 80 93<0 332 414 729> 548 93<0 332 414 729>
LayerCount: 2
Fore
SplineSet
548 332 m 1,0,-1
 173 332 l 1,1,-1
 173 0 l 1,2,-1
 80 0 l 1,3,-1
 80 729 l 1,4,-1
 173 729 l 1,5,-1
 173 414 l 1,6,-1
 548 414 l 1,7,-1
 548 729 l 1,8,-1
 641 729 l 1,9,-1
 641 0 l 1,10,-1
 548 0 l 1,11,-1
 548 332 l 1,0,-1
EndSplineSet
EndChar

StartChar: I
Encoding: 15 73 18
Width: 278
GlyphClass: 2
Flags: W
HStem: 0 21G<100 194> 709 20G<100 194>
VStem: 100 94<0 729>
LayerCount: 2
Fore
SplineSet
194 729 m 1,0,-1
 194 0 l 1,1,-1
 100 0 l 1,2,-1
 100 729 l 1,3,-1
 194 729 l 1,0,-1
EndSplineSet
EndChar

StartChar: J
Encoding: 16 74 19
Width: 528
GlyphClass: 2
Flags: W
HStem: -23 78<170.571 309.808> 709 20G<351 444>
VStem: 35 95<96.9407 234> 351 93<101.727 729>
LayerCount: 2
Fore
SplineSet
130 187 m 2,0,1
 130 55 130 55 244.5 55 c 0,2,3
 303 55 303 55 327 97 c 128,-1,4
 351 139 351 139 351 216 c 2,5,-1
 351 729 l 1,6,-1
 444 729 l 1,7,-1
 444 182 l 2,8,9
 444 87 444 87 388.5 32 c 128,-1,10
 333 -23 333 -23 238.5 -23 c 128,-1,11
 144 -23 144 -23 89.5 29 c 128,-1,12
 35 81 35 81 35 170 c 2,13,-1
 35 234 l 1,14,-1
 130 234 l 1,15,-1
 130 187 l 2,0,1
EndSplineSet
EndChar

StartChar: K
Encoding: 17 75 20
Width: 674
GlyphClass: 2
Flags: W
HStem: 0 21G<80 173 535.257 659> 709 20G<80 173 516.325 656>
VStem: 80 93<0 255 360 729>
LayerCount: 2
Fore
SplineSet
173 255 m 1,0,-1
 173 0 l 1,1,-1
 80 0 l 1,2,-1
 80 729 l 1,3,-1
 173 729 l 1,4,-1
 173 360 l 1,5,-1
 536 729 l 1,6,-1
 656 729 l 1,7,-1
 359 432 l 1,8,-1
 659 0 l 1,9,-1
 549 0 l 1,10,-1
 292 374 l 1,11,-1
 173 255 l 1,0,-1
EndSplineSet
EndChar

StartChar: L
Encoding: 18 76 21
Width: 563
GlyphClass: 2
Flags: W
HStem: 0 82<173 533> 709 20G<80 173>
VStem: 80 93<82 729>
LayerCount: 2
Fore
SplineSet
173 729 m 1,0,-1
 173 82 l 1,1,-1
 533 82 l 1,2,-1
 533 0 l 1,3,-1
 80 0 l 1,4,-1
 80 729 l 1,5,-1
 173 729 l 1,0,-1
EndSplineSet
EndChar

StartChar: M
Encoding: 19 77 22
Width: 846
GlyphClass: 2
Flags: W
HStem: 0 21G<80 168 368.224 479.71 678 766> 709 20G<80 215.803 630.323 766>
VStem: 80 88<0 611> 678 88<0 611>
LayerCount: 2
Fore
SplineSet
473 0 m 1,0,-1
 375 0 l 1,1,-1
 168 611 l 1,2,-1
 168 0 l 1,3,-1
 80 0 l 1,4,-1
 80 729 l 1,5,-1
 209 729 l 1,6,-1
 425 94 l 1,7,-1
 637 729 l 1,8,-1
 766 729 l 1,9,-1
 766 0 l 1,10,-1
 678 0 l 1,11,-1
 678 611 l 1,12,-1
 473 0 l 1,0,-1
EndSplineSet
EndChar

StartChar: N
Encoding: 20 78 23
Width: 730
GlyphClass: 2
Flags: W
HStem: 0 21G<80 168 532.242 650> 709 20G<80 193.785 562 650>
VStem: 80 88<0 591> 562 88<133 729>
LayerCount: 2
Fore
SplineSet
650 729 m 1,0,-1
 650 0 l 1,1,-1
 545 0 l 1,2,-1
 168 591 l 1,3,-1
 168 0 l 1,4,-1
 80 0 l 1,5,-1
 80 729 l 1,6,-1
 181 729 l 1,7,-1
 562 133 l 1,8,-1
 562 729 l 1,9,-1
 650 729 l 1,0,-1
EndSplineSet
EndChar

StartChar: O
Encoding: 21 79 24
Width: 784
GlyphClass: 2
Flags: W
HStem: -23 82<285.466 499.469> 659 82<285.047 497.957>
VStem: 40 93<226.711 491.289> 651 93<227.318 490.743>
LayerCount: 2
Fore
SplineSet
580 576 m 128,-1,1
 509 659 509 659 392 659 c 128,-1,2
 275 659 275 659 204 576.5 c 128,-1,3
 133 494 133 494 133 359 c 128,-1,4
 133 224 133 224 204.5 141.5 c 128,-1,5
 276 59 276 59 392 59 c 128,-1,6
 508 59 508 59 579.5 141 c 128,-1,7
 651 223 651 223 651 358 c 128,-1,0
 651 493 651 493 580 576 c 128,-1,1
647.5 635 m 128,-1,9
 744 529 744 529 744 360 c 128,-1,10
 744 191 744 191 648 84 c 128,-1,11
 552 -23 552 -23 393 -23 c 128,-1,12
 234 -23 234 -23 137 82.5 c 128,-1,13
 40 188 40 188 40 359 c 128,-1,14
 40 530 40 530 137 635.5 c 128,-1,15
 234 741 234 741 392.5 741 c 128,-1,8
 551 741 551 741 647.5 635 c 128,-1,9
EndSplineSet
EndChar

StartChar: P
Encoding: 22 80 25
Width: 656
GlyphClass: 2
Flags: W
HStem: 0 21G<80 173> 309 82<173 455.048> 647 82<173 455.039>
VStem: 80 93<0 309 391 647> 509 97<443.532 595.379>
LayerCount: 2
Fore
SplineSet
173 391 m 1,0,-1
 367 391 l 2,1,2
 434 391 434 391 471.5 425 c 128,-1,3
 509 459 509 459 509 519 c 128,-1,4
 509 579 509 579 471.5 613 c 128,-1,5
 434 647 434 647 367 647 c 2,6,-1
 173 647 l 1,7,-1
 173 391 l 1,0,-1
547.5 673.5 m 128,-1,9
 606 618 606 618 606 520 c 128,-1,10
 606 422 606 422 549.5 365.5 c 128,-1,11
 493 309 493 309 402 309 c 2,12,-1
 173 309 l 1,13,-1
 173 0 l 1,14,-1
 80 0 l 1,15,-1
 80 729 l 1,16,-1
 381 729 l 2,17,8
 489 729 489 729 547.5 673.5 c 128,-1,9
EndSplineSet
EndChar

StartChar: Q
Encoding: 23 81 26
Width: 784
GlyphClass: 2
Flags: W
HStem: -23 82<284.827 495.615> 659 82<285.158 498.374>
VStem: 40 93<226.711 491.289> 651 93<229.999 489.346>
LayerCount: 2
Fore
SplineSet
483 205 m 1,0,-1
 572 132 l 1,1,2
 651 221 651 221 651 357.5 c 128,-1,3
 651 494 651 494 579.5 576.5 c 128,-1,4
 508 659 508 659 392 659 c 128,-1,5
 276 659 276 659 204.5 576.5 c 128,-1,6
 133 494 133 494 133 359 c 128,-1,7
 133 224 133 224 204 141.5 c 128,-1,8
 275 59 275 59 391 59 c 0,9,10
 451 59 451 59 511 87 c 1,11,-1
 437 149 l 1,12,-1
 483 205 l 1,0,-1
735 -1 m 1,13,-1
 688 -59 l 1,14,-1
 583 28 l 1,15,16
 497 -23 497 -23 392 -23 c 0,17,18
 234 -23 234 -23 137 82.5 c 128,-1,19
 40 188 40 188 40 359 c 128,-1,20
 40 530 40 530 137 635.5 c 128,-1,21
 234 741 234 741 391.5 741 c 128,-1,22
 549 741 549 741 646.5 636 c 128,-1,23
 744 531 744 531 744 360 c 128,-1,24
 744 189 744 189 641 76 c 1,25,-1
 735 -1 l 1,13,-1
EndSplineSet
EndChar

StartChar: R
Encoding: 24 82 27
Width: 709
GlyphClass: 2
Flags: W
HStem: 0 21G<80 173 543 666> 314 82<173 493.056> 647 82<173 494.341>
VStem: 80 93<0 314 396 647> 533 89<45.418 272.657> 541 97<439.998 603.551>
LayerCount: 2
Fore
SplineSet
506.5 426 m 128,-1,1
 541 456 541 456 541 524.5 c 128,-1,2
 541 593 541 593 503 620 c 128,-1,3
 465 647 465 647 398 647 c 2,4,-1
 173 647 l 1,5,-1
 173 396 l 1,6,-1
 398 396 l 2,7,0
 472 396 472 396 506.5 426 c 128,-1,1
623 189 m 1,8,-1
 622 138 l 2,9,10
 622 97 622 97 631 69 c 128,-1,11
 640 41 640 41 666 23 c 1,12,-1
 666 0 l 1,13,-1
 553 0 l 1,14,15
 533 46 533 46 533 119 c 2,16,-1
 533 184 l 2,17,18
 533 251 533 251 504 282.5 c 128,-1,19
 475 314 475 314 413 314 c 2,20,-1
 173 314 l 1,21,-1
 173 0 l 1,22,-1
 80 0 l 1,23,-1
 80 729 l 1,24,-1
 416 729 l 2,25,26
 523 729 523 729 580.5 678.5 c 128,-1,27
 638 628 638 628 638 534 c 0,28,29
 638 472 638 472 611 431 c 128,-1,30
 584 390 584 390 523 360 c 1,31,32
 588.814173228 331.206299213 588.814173228 331.206299213 607.5 284 c 0,33,34
 623 244.842105263 623 244.842105263 623 189 c 1,8,-1
EndSplineSet
EndChar

StartChar: S
Encoding: 25 83 28
Width: 667
GlyphClass: 2
Flags: W
HStem: -23 82<225.447 458.752> 663 78<227.753 433.496>
VStem: 48 88<143.742 232> 70 93<480.022 606.008> 508 88<515 594.098> 528 93<121.582 248.982>
LayerCount: 2
Fore
SplineSet
240.5 74.5 m 128,-1,1
 283 59 283 59 340.5 59 c 128,-1,2
 398 59 398 59 437 72 c 128,-1,3
 476 85 476 85 494.5 106 c 0,4,5
 528 144.027027027 528 144.027027027 528 191 c 0,6,7
 528 274 528 274 394 309 c 2,8,-1
 213 357 l 2,9,10
 70 394 70 394 70 527 c 0,11,12
 70 626 70 626 139.5 683.5 c 128,-1,13
 209 741 209 741 332 741 c 128,-1,14
 455 741 455 741 525 681.5 c 128,-1,15
 595 622 595 622 596 515 c 1,16,-1
 508 515 l 1,17,18
 507 586 507 586 460 624.5 c 128,-1,19
 413 663 413 663 332.5 663 c 128,-1,20
 252 663 252 663 207.5 629 c 128,-1,21
 163 595 163 595 163 546.5 c 128,-1,22
 163 498 163 498 190 474 c 128,-1,23
 217 450 217 450 283 432 c 2,24,-1
 466 383 l 2,25,26
 540 363 540 363 580.5 315 c 128,-1,27
 621 267 621 267 621 200 c 0,28,29
 621 136.875 621 136.875 586 83.5 c 0,30,31
 543.351957505 18.4617351958 543.351957505 18.4617351958 452.5 -8 c 0,32,33
 401 -23 401 -23 348 -23 c 128,-1,34
 295 -23 295 -23 257.5 -16.5 c 128,-1,35
 220 -10 220 -10 181 7.5 c 128,-1,36
 142 25 142 25 114 52.5 c 128,-1,37
 86 80 86 80 67.5 126 c 128,-1,38
 49 172 49 172 48 232 c 1,39,-1
 136 232 l 1,40,-1
 136 227 l 2,41,42
 136 164.976744186 136 164.976744186 176.5 116 c 0,43,0
 198 90 198 90 240.5 74.5 c 128,-1,1
EndSplineSet
EndChar

StartChar: T
Encoding: 26 84 29
Width: 632
GlyphClass: 2
Flags: W
HStem: 0 21G<270 363> 647 82<30 270 363 602>
VStem: 270 93<0 647>
LayerCount: 2
Fore
SplineSet
363 647 m 1,0,-1
 363 0 l 1,1,-1
 270 0 l 1,2,-1
 270 647 l 1,3,-1
 30 647 l 1,4,-1
 30 729 l 1,5,-1
 602 729 l 1,6,-1
 602 647 l 1,7,-1
 363 647 l 1,0,-1
EndSplineSet
EndChar

StartChar: U
Encoding: 27 85 30
Width: 720
GlyphClass: 2
Flags: W
HStem: -23 82<252.576 465.057> 709 20G<80 173 547 640>
VStem: 80 93<131.62 729> 547 93<135.052 729>
LayerCount: 2
Fore
SplineSet
547 729 m 1,0,-1
 640 729 l 1,1,-1
 640 217 l 2,2,3
 640 107 640 107 563.5 42 c 128,-1,4
 487 -23 487 -23 358 -23 c 128,-1,5
 229 -23 229 -23 154.5 41.5 c 128,-1,6
 80 106 80 106 80 217 c 2,7,-1
 80 729 l 1,8,-1
 173 729 l 1,9,-1
 173 217 l 2,10,11
 173 138 173 138 223.5 98.5 c 128,-1,12
 274 59 274 59 360.5 59 c 128,-1,13
 447 59 447 59 497 101 c 128,-1,14
 547 143 547 143 547 217 c 2,15,-1
 547 729 l 1,0,-1
EndSplineSet
EndChar

StartChar: V
Encoding: 28 86 31
Width: 645
GlyphClass: 2
Flags: W
HStem: 0 21G<269.812 383.941> 709 20G<15 121.937 524.452 630>
LayerCount: 2
Fore
SplineSet
377 0 m 1,0,-1
 277 0 l 1,1,-1
 15 729 l 1,2,-1
 115 729 l 1,3,-1
 329 112 l 1,4,-1
 531 729 l 1,5,-1
 630 729 l 1,6,-1
 377 0 l 1,0,-1
EndSplineSet
EndChar

StartChar: W
Encoding: 29 87 32
Width: 937
GlyphClass: 2
Flags: W
HStem: 0 21G<196.87 309.442 629.391 742.075> 709 20G<15 123.628 412.527 523.608 813.473 922>
LayerCount: 2
Fore
SplineSet
737 0 m 1,0,-1
 635 0 l 1,1,-1
 467 599 l 1,2,-1
 304 0 l 1,3,-1
 202 0 l 1,4,-1
 15 729 l 1,5,-1
 119 729 l 1,6,-1
 256 137 l 1,7,-1
 418 729 l 1,8,-1
 518 729 l 1,9,-1
 684 137 l 1,10,-1
 818 729 l 1,11,-1
 922 729 l 1,12,-1
 737 0 l 1,0,-1
EndSplineSet
EndChar

StartChar: X
Encoding: 30 88 33
Width: 657
GlyphClass: 2
Flags: W
HStem: 0 21G<15 141.158 513.908 642> 709 20G<31 157.077 505.853 630>
LayerCount: 2
Fore
SplineSet
384 374 m 1,0,-1
 642 0 l 1,1,-1
 527 0 l 1,2,-1
 328 304 l 1,3,-1
 128 0 l 1,4,-1
 15 0 l 1,5,-1
 273 374 l 1,6,-1
 31 729 l 1,7,-1
 144 729 l 1,8,-1
 331 443 l 1,9,-1
 519 729 l 1,10,-1
 630 729 l 1,11,-1
 384 374 l 1,0,-1
EndSplineSet
EndChar

StartChar: Y
Encoding: 31 89 34
Width: 678
GlyphClass: 2
Flags: W
HStem: 0 21G<296 389> 709 20G<15 142.056 540.282 663>
VStem: 296 93<0 286>
LayerCount: 2
Fore
SplineSet
389 286 m 1,0,-1
 389 0 l 1,1,-1
 296 0 l 1,2,-1
 296 286 l 1,3,-1
 15 729 l 1,4,-1
 130 729 l 1,5,-1
 344 374 l 1,6,-1
 552 729 l 1,7,-1
 663 729 l 1,8,-1
 389 286 l 1,0,-1
EndSplineSet
EndChar

StartChar: Z
Encoding: 32 90 35
Width: 615
GlyphClass: 2
Flags: W
HStem: 0 82<147 585> 647 82<58 468>
LayerCount: 2
Fore
SplineSet
583 729 m 1,0,-1
 583 645 l 1,1,-1
 147 82 l 1,2,-1
 585 82 l 1,3,-1
 585 0 l 1,4,-1
 30 0 l 1,5,-1
 30 82 l 1,6,-1
 468 647 l 1,7,-1
 58 647 l 1,8,-1
 58 729 l 1,9,-1
 583 729 l 1,0,-1
EndSplineSet
EndChar

StartChar: backslash
Encoding: 33 92 36
Width: 278
GlyphClass: 2
Flags: W
HStem: 709 20G<-8 53.3284>
VStem: -8 292
LayerCount: 2
Fore
SplineSet
47 729 m 1,0,-1
 284 -20 l 1,1,-1
 229 -20 l 1,2,-1
 -8 729 l 1,3,-1
 47 729 l 1,0,-1
EndSplineSet
EndChar

StartChar: grave
Encoding: 34 96 37
Width: 250
GlyphClass: 2
Flags: W
HStem: 592 148
VStem: 22 209
LayerCount: 2
Fore
SplineSet
135 740 m 1,0,-1
 231 592 l 1,1,-1
 171 592 l 1,2,-1
 22 740 l 1,3,-1
 135 740 l 1,0,-1
EndSplineSet
EndChar

StartChar: a
Encoding: 35 97 38
Width: 543
GlyphClass: 2
Flags: W
HStem: -23 70<148.22 300.839 441.5 522.313> 462 77<173.16 346.895>
VStem: 30 87<77.1415 188.921> 53 84<369 426.656> 377 83<108.657 259 323.409 434.61>
LayerCount: 2
Fore
SplineSet
144 72 m 128,-1,1
 171 50 171 50 230 50 c 128,-1,2
 289 50 289 50 333 86.5 c 128,-1,3
 377 123 377 123 377 165 c 2,4,-1
 377 259 l 1,5,6
 352 247 352 247 301.5 239 c 128,-1,7
 251 231 251 231 214 225 c 128,-1,8
 177 219 177 219 147 196.5 c 128,-1,9
 117 174 117 174 117 134 c 128,-1,0
 117 94 117 94 144 72 c 128,-1,1
53 369 m 1,10,11
 59 539 59 539 263 539 c 0,12,13
 360 539 360 539 410 502.5 c 128,-1,14
 460 466 460 466 460 396 c 2,15,-1
 460 88 l 2,16,17
 460 47 460 47 505 47 c 0,18,19
 514 47 514 47 523 49 c 1,20,-1
 523 -14 l 1,21,22
 488 -23 488 -23 457 -23 c 128,-1,23
 426 -23 426 -23 405.5 -4.5 c 128,-1,24
 385 14 385 14 380 54 c 1,25,26
 296 -23 296 -23 209.5 -23 c 128,-1,27
 123 -23 123 -23 76.5 19 c 128,-1,28
 30 61 30 61 30 132 c 0,29,30
 30 204.142857143 30 204.142857143 64 234.5 c 0,31,32
 78 247 78 247 87.5 255 c 128,-1,33
 97 263 97 263 119.5 270.5 c 128,-1,34
 142 278 142 278 154 281.5 c 128,-1,35
 166 285 166 285 196 290 c 0,36,37
 230 295.666666667 230 295.666666667 284.5 302.833333333 c 128,-1,38
 339 310 339 310 358 323 c 128,-1,39
 377 336 377 336 377 362 c 2,40,-1
 377 384 l 2,41,42
 377 422 377 422 346.5 442 c 128,-1,43
 316 462 316 462 259 462 c 128,-1,44
 202 462 202 462 172 439.5 c 128,-1,45
 142 417 142 417 137 369 c 1,46,-1
 53 369 l 1,10,11
EndSplineSet
EndChar

StartChar: b
Encoding: 36 98 39
Width: 559
GlyphClass: 2
Flags: W
HStem: -23 78<217.779 364.115> 0 21G<60 135> 461 78<216.953 365.558> 709 20G<60 143>
VStem: 60 83<142.56 373.44 453 729> 60 75<0 67> 442 87<145.533 370.843>
LayerCount: 2
Fore
SplineSet
400.5 405 m 128,-1,1
 359 461 359 461 291 461 c 128,-1,2
 223 461 223 461 183 405.5 c 128,-1,3
 143 350 143 350 143 258 c 128,-1,4
 143 166 143 166 183 110.5 c 128,-1,5
 223 55 223 55 290 55 c 128,-1,6
 357 55 357 55 399.5 110.5 c 128,-1,7
 442 166 442 166 442 257.5 c 128,-1,0
 442 349 442 349 400.5 405 c 128,-1,1
60 729 m 1,8,-1
 143 729 l 1,9,-1
 143 453 l 1,10,11
 200 539 200 539 304.5 539 c 128,-1,12
 409 539 409 539 469 465 c 128,-1,13
 529 391 529 391 529 262.5 c 128,-1,14
 529 134 529 134 467 55.5 c 128,-1,15
 405 -23 405 -23 299.5 -23 c 128,-1,16
 194 -23 194 -23 135 67 c 1,17,-1
 135 0 l 1,18,-1
 60 0 l 1,19,-1
 60 729 l 1,8,-1
EndSplineSet
EndChar

StartChar: c
Encoding: 37 99 40
Width: 506
GlyphClass: 2
Flags: W
HStem: -23 77<188.04 337.093> 462 77<188.873 336.168>
VStem: 30 87<136.249 376.514> 392 84<113.977 180 348 399.341>
LayerCount: 2
Fore
SplineSet
470 348 m 1,0,-1
 386 348 l 1,1,2
 378 403 378 403 346 432.5 c 128,-1,3
 314 462 314 462 262 462 c 0,4,5
 194 462 194 462 155.5 406.5 c 128,-1,6
 117 351 117 351 117 255.5 c 128,-1,7
 117 160 117 160 156 107 c 128,-1,8
 195 54 195 54 264 54 c 0,9,10
 371 54 371 54 392 180 c 1,11,-1
 476 180 l 1,12,13
 468 84 468 84 412 30.5 c 128,-1,14
 356 -23 356 -23 255.5 -23 c 128,-1,15
 155 -23 155 -23 92.5 51.5 c 128,-1,16
 30 126 30 126 30 254.5 c 128,-1,17
 30 383 30 383 93.5 461 c 128,-1,18
 157 539 157 539 255.5 539 c 128,-1,19
 354 539 354 539 408.5 490 c 128,-1,20
 463 441 463 441 470 348 c 1,0,-1
EndSplineSet
EndChar

StartChar: d
Encoding: 38 100 41
Width: 559
GlyphClass: 2
Flags: W
HStem: -23 78<195.115 342.409> 0 21G<425 499> 461 78<195.354 342.306> 709 20G<416 499>
VStem: 30 87<145.458 369.437> 416 83<141.865 373.405 458 729> 425 74<0 69>
LayerCount: 2
Fore
SplineSet
376 405.5 m 128,-1,1
 336 461 336 461 268.5 461 c 128,-1,2
 201 461 201 461 159 405 c 128,-1,3
 117 349 117 349 117 257.5 c 128,-1,4
 117 166 117 166 159 110.5 c 128,-1,5
 201 55 201 55 268.5 55 c 128,-1,6
 336 55 336 55 376 110 c 128,-1,7
 416 165 416 165 416 257.5 c 128,-1,0
 416 350 416 350 376 405.5 c 128,-1,1
499 729 m 1,8,-1
 499 0 l 1,9,-1
 425 0 l 1,10,-1
 425 69 l 1,11,12
 391 20 391 20 351.5 -1.5 c 128,-1,13
 312 -23 312 -23 258 -23 c 0,14,15
 152 -23 152 -23 91 53.5 c 128,-1,16
 30 130 30 130 30 259 c 128,-1,17
 30 388 30 388 91.5 463.5 c 128,-1,18
 153 539 153 539 258 539 c 128,-1,19
 363 539 363 539 416 458 c 1,20,-1
 416 729 l 1,21,-1
 499 729 l 1,8,-1
EndSplineSet
EndChar

StartChar: e
Encoding: 39 101 42
Width: 533
GlyphClass: 2
Flags: W
HStem: -23 77<191.458 349.965> 234 68<119 414> 462 77<191.382 344.219>
VStem: 30 87<136.459 234 302 380.014> 414 89<302 388.213>
LayerCount: 2
Fore
SplineSet
119 302 m 1,0,-1
 414 302 l 1,1,2
 414 370 414 370 373 416 c 128,-1,3
 332 462 332 462 269 462 c 128,-1,4
 206 462 206 462 165 418.5 c 128,-1,5
 124 375 124 375 119 302 c 1,0,-1
503 234 m 1,6,-1
 117 234 l 1,7,8
 119 152 119 152 159.5 103 c 128,-1,9
 200 54 200 54 271 54 c 0,10,11
 373 54 373 54 408 159 c 1,12,-1
 492 159 l 1,13,14
 476 73 476 73 417 25 c 128,-1,15
 358 -23 358 -23 268 -23 c 0,16,17
 158 -23 158 -23 94 51.5 c 128,-1,18
 30 126 30 126 30 255 c 128,-1,19
 30 384 30 384 95.5 461.5 c 128,-1,20
 161 539 161 539 270 539 c 0,21,22
 503 539 503 539 503 234 c 1,6,-1
EndSplineSet
EndChar

StartChar: f
Encoding: 40 102 43
Width: 280
GlyphClass: 2
Flags: W
HStem: 0 21G<90 173> 456 68<20 90 173 260> 659 73<180.81 260>
VStem: 90 83<0 456 524 650.086>
LayerCount: 2
Fore
SplineSet
260 524 m 1,0,-1
 260 456 l 1,1,-1
 173 456 l 1,2,-1
 173 0 l 1,3,-1
 90 0 l 1,4,-1
 90 456 l 1,5,-1
 20 456 l 1,6,-1
 20 524 l 1,7,-1
 90 524 l 1,8,-1
 90 613 l 2,9,10
 90 669 90 669 122.5 700.5 c 128,-1,11
 155 732 155 732 213 732 c 0,12,13
 236 732 236 732 260 727 c 1,14,-1
 260 658 l 1,15,16
 241 659 241 659 231 659 c 0,17,18
 173 659 173 659 173 606 c 2,19,-1
 173 524 l 1,20,-1
 260 524 l 1,0,-1
EndSplineSet
EndChar

StartChar: g
Encoding: 41 103 44
Width: 550
GlyphClass: 2
Flags: W
HStem: -218 70<171.86 347.654> -23 77<189.021 331.916> 462 77<190.163 334.639> 504 20G<403 490>
VStem: 30 87<139.5 376.266> 47 85<-109.055 -60> 405 85<-82.7096 71 136.906 379.673 476.5 524>
LayerCount: 2
Fore
SplineSet
367.5 407.5 m 128,-1,1
 330 462 330 462 262.5 462 c 128,-1,2
 195 462 195 462 156 407 c 128,-1,3
 117 352 117 352 117 257.5 c 128,-1,4
 117 163 117 163 156 108.5 c 128,-1,5
 195 54 195 54 262 54 c 128,-1,6
 329 54 329 54 367 107.5 c 128,-1,7
 405 161 405 161 405 257 c 128,-1,0
 405 353 405 353 367.5 407.5 c 128,-1,1
246 -23 m 0,8,9
 154 -23 154 -23 92 52.5 c 128,-1,10
 30 128 30 128 30 254.5 c 128,-1,11
 30 381 30 381 91.5 460 c 128,-1,12
 153 539 153 539 252 539 c 128,-1,13
 351 539 351 539 413 448 c 1,14,-1
 403 524 l 1,15,-1
 490 524 l 1,16,-1
 490 86 l 2,17,18
 490 11 490 11 481 -39.5 c 128,-1,19
 472 -90 472 -90 448 -133 c 0,20,21
 400.558139535 -218 400.558139535 -218 256 -218 c 0,22,23
 164 -218 164 -218 109 -176 c 128,-1,24
 54 -134 54 -134 47 -60 c 1,25,-1
 132 -60 l 1,26,27
 146 -148 146 -148 259 -148 c 0,28,29
 343 -148 343 -148 374 -100.5 c 128,-1,30
 405 -53 405 -53 405 44 c 2,31,-1
 405 71 l 1,32,33
 370 21 370 21 332.5 -1 c 128,-1,34
 295 -23 295 -23 246 -23 c 0,8,9
EndSplineSet
EndChar

StartChar: h
Encoding: 42 104 45
Width: 536
GlyphClass: 2
Flags: W
HStem: 0 21G<60 143 393 476> 466 73<213.623 356.384> 709 20G<60 143>
VStem: 60 83<0 391.281 452 729> 393 83<0 430.95>
LayerCount: 2
Fore
SplineSet
393 363 m 2,0,1
 393 418 393 418 359.5 442 c 128,-1,2
 326 466 326 466 285 466 c 0,3,4
 221 466 221 466 182 417.5 c 128,-1,5
 143 369 143 369 143 289 c 2,6,-1
 143 0 l 1,7,-1
 60 0 l 1,8,-1
 60 729 l 1,9,-1
 143 729 l 1,10,-1
 143 452 l 1,11,12
 180 500 180 500 217.5 519.5 c 128,-1,13
 255 539 255 539 321 539 c 128,-1,14
 387 539 387 539 431.5 500.5 c 128,-1,15
 476 462 476 462 476 396 c 2,16,-1
 476 0 l 1,17,-1
 393 0 l 1,18,-1
 393 363 l 2,0,1
EndSplineSet
EndChar

StartChar: i
Encoding: 43 105 46
Width: 222
GlyphClass: 2
Flags: W
HStem: 0 21G<67 150> 504 20G<67 150> 624 105<66 150>
VStem: 67 83<0 524 624 729>
LayerCount: 2
Fore
SplineSet
150 729 m 1,0,-1
 150 624 l 1,1,-1
 66 624 l 1,2,-1
 66 729 l 1,3,-1
 150 729 l 1,0,-1
150 524 m 1,4,-1
 150 0 l 1,5,-1
 67 0 l 1,6,-1
 67 524 l 1,7,-1
 150 524 l 1,4,-1
EndSplineSet
EndChar

StartChar: j
Encoding: 44 106 47
Width: 243
GlyphClass: 2
Flags: W
HStem: -218 72<0 74.8196> 504 20G<88 171> 624 105<88 171>
VStem: 88 83<-130.01 524 624 729>
LayerCount: 2
Fore
SplineSet
171 729 m 1,0,-1
 171 624 l 1,1,-1
 88 624 l 1,2,-1
 88 729 l 1,3,-1
 171 729 l 1,0,-1
88 524 m 1,4,-1
 171 524 l 1,5,-1
 171 -109 l 2,6,7
 171 -218 171 -218 28 -218 c 0,8,9
 15 -218 15 -218 0 -215 c 1,10,-1
 0 -144 l 1,11,12
 12 -146 12 -146 23 -146 c 0,13,14
 59 -146 59 -146 73.5 -130.5 c 128,-1,15
 88 -115 88 -115 88 -76 c 2,16,-1
 88 524 l 1,4,-1
EndSplineSet
EndChar

StartChar: k
Encoding: 45 107 48
Width: 514
GlyphClass: 2
Flags: W
HStem: 0 21G<60 143 388.535 504> 504 20G<345 472> 709 20G<60 143>
VStem: 60 83<0 204 302 729>
LayerCount: 2
Fore
SplineSet
143 729 m 1,0,-1
 143 302 l 1,1,-1
 365 524 l 1,2,-1
 472 524 l 1,3,-1
 290 343 l 1,4,-1
 504 0 l 1,5,-1
 401 0 l 1,6,-1
 224 284 l 1,7,-1
 143 204 l 1,8,-1
 143 0 l 1,9,-1
 60 0 l 1,10,-1
 60 729 l 1,11,-1
 143 729 l 1,0,-1
EndSplineSet
EndChar

StartChar: l
Encoding: 46 108 49
Width: 214
GlyphClass: 2
Flags: W
HStem: 0 21G<60 144> 709 20G<60 144>
VStem: 60 84<0 729>
LayerCount: 2
Fore
SplineSet
144 729 m 1,0,-1
 144 0 l 1,1,-1
 60 0 l 1,2,-1
 60 729 l 1,3,-1
 144 729 l 1,0,-1
EndSplineSet
EndChar

StartChar: m
Encoding: 47 109 50
Width: 812
GlyphClass: 2
Flags: W
HStem: 0 21G<60 144 364 448 668 752> 466 73<207.409 332.579 505.24 636.532> 504 20G<60 137>
VStem: 60 84<0 407.687> 60 77<450 524> 364 84<0 406.58> 668 84<0 434.066>
LayerCount: 2
Fore
SplineSet
60 524 m 1,0,-1
 137 524 l 1,1,-1
 137 450 l 1,2,3
 171 497 171 497 208.5 518 c 128,-1,4
 246 539 246 539 298 539 c 0,5,6
 395 539 395 539 439 459 c 1,7,8
 476 503 476 503 512 521 c 128,-1,9
 548 539 548 539 600 539 c 0,10,11
 673 539 673 539 712.5 501.5 c 128,-1,12
 752 464 752 464 752 393 c 2,13,-1
 752 0 l 1,14,-1
 668 0 l 1,15,-1
 668 361 l 2,16,17
 668 411 668 411 642.5 438.5 c 128,-1,18
 617 466 617 466 568.5 466 c 128,-1,19
 520 466 520 466 484 426 c 128,-1,20
 448 386 448 386 448 329 c 2,21,-1
 448 0 l 1,22,-1
 364 0 l 1,23,-1
 364 361 l 2,24,25
 364 411 364 411 338.5 438.5 c 128,-1,26
 313 466 313 466 264.5 466 c 128,-1,27
 216 466 216 466 180 426 c 128,-1,28
 144 386 144 386 144 329 c 2,29,-1
 144 0 l 1,30,-1
 60 0 l 1,31,-1
 60 524 l 1,0,-1
EndSplineSet
EndChar

StartChar: n
Encoding: 48 110 51
Width: 537
GlyphClass: 2
Flags: W
HStem: 0 21G<60 144 394 477> 466 73<216.285 357.577> 504 20G<60 137>
VStem: 60 84<0 391.281> 60 77<436 524> 394 83<0 428.697>
LayerCount: 2
Fore
SplineSet
60 524 m 1,0,-1
 137 524 l 1,1,-1
 137 436 l 1,2,3
 172 491 172 491 212.5 515 c 128,-1,4
 253 539 253 539 320 539 c 128,-1,5
 387 539 387 539 432 500 c 128,-1,6
 477 461 477 461 477 396 c 2,7,-1
 477 0 l 1,8,-1
 394 0 l 1,9,-1
 394 363 l 2,10,11
 394 410 394 410 365 438 c 128,-1,12
 336 466 336 466 279 466 c 128,-1,13
 222 466 222 466 183 417.5 c 128,-1,14
 144 369 144 369 144 289 c 2,15,-1
 144 0 l 1,16,-1
 60 0 l 1,17,-1
 60 524 l 1,0,-1
EndSplineSet
EndChar

StartChar: o
Encoding: 49 111 52
Width: 534
GlyphClass: 2
Flags: W
HStem: -23 77<191.815 342.309> 462 77<190.992 343.875>
VStem: 30 87<140.343 375.657> 417 87<141.571 375.247>
LayerCount: 2
Fore
SplineSet
377.5 407 m 128,-1,1
 338 462 338 462 267.5 462 c 128,-1,2
 197 462 197 462 157 407.5 c 128,-1,3
 117 353 117 353 117 258 c 128,-1,4
 117 163 117 163 157 108.5 c 128,-1,5
 197 54 197 54 266.5 54 c 128,-1,6
 336 54 336 54 376.5 108.5 c 128,-1,7
 417 163 417 163 417 257.5 c 128,-1,0
 417 352 417 352 377.5 407 c 128,-1,1
93 464.5 m 128,-1,9
 156 539 156 539 267.5 539 c 128,-1,10
 379 539 379 539 441.5 464.5 c 128,-1,11
 504 390 504 390 504 257.5 c 128,-1,12
 504 125 504 125 440.5 51 c 128,-1,13
 377 -23 377 -23 266 -23 c 128,-1,14
 155 -23 155 -23 92.5 51.5 c 128,-1,15
 30 126 30 126 30 258 c 128,-1,8
 30 390 30 390 93 464.5 c 128,-1,9
EndSplineSet
EndChar

StartChar: p
Encoding: 50 112 53
Width: 559
GlyphClass: 2
Flags: W
HStem: -218 21G<60 144> -23 78<218.551 365.099> 461 78<218.057 364.763> 504 20G<60 137>
VStem: 60 84<-218 55 142.56 373.44> 60 77<445 524> 442 87<144.508 369.797>
LayerCount: 2
Fore
SplineSet
400.5 405 m 128,-1,1
 359 461 359 461 291.5 461 c 128,-1,2
 224 461 224 461 184 405.5 c 128,-1,3
 144 350 144 350 144 258 c 128,-1,4
 144 166 144 166 184 110.5 c 128,-1,5
 224 55 224 55 291 55 c 128,-1,6
 358 55 358 55 400 110.5 c 128,-1,7
 442 166 442 166 442 257.5 c 128,-1,0
 442 349 442 349 400.5 405 c 128,-1,1
60 -218 m 1,8,-1
 60 524 l 1,9,-1
 137 524 l 1,10,-1
 137 445 l 1,11,12
 196 539 196 539 302 539 c 128,-1,13
 408 539 408 539 468.5 462 c 128,-1,14
 529 385 529 385 529 256.5 c 128,-1,15
 529 128 529 128 467.5 52.5 c 128,-1,16
 406 -23 406 -23 307 -23 c 128,-1,17
 208 -23 208 -23 144 55 c 1,18,-1
 144 -218 l 1,19,-1
 60 -218 l 1,8,-1
EndSplineSet
EndChar

StartChar: q
Encoding: 51 113 54
Width: 559
GlyphClass: 2
Flags: W
HStem: -218 21G<416 499> -23 78<195.231 342.082> 461 78<194.553 341.642> 504 20G<425 499>
VStem: 30 87<144.786 370.096> 416 83<-218 60 141.829 372.71> 425 74<454 524>
LayerCount: 2
Fore
SplineSet
376.5 405 m 128,-1,1
 337 461 337 461 269 461 c 128,-1,2
 201 461 201 461 159 405 c 128,-1,3
 117 349 117 349 117 257.5 c 128,-1,4
 117 166 117 166 159 110.5 c 128,-1,5
 201 55 201 55 268.5 55 c 128,-1,6
 336 55 336 55 376 110 c 128,-1,7
 416 165 416 165 416 257 c 128,-1,0
 416 349 416 349 376.5 405 c 128,-1,1
499 -218 m 1,8,-1
 416 -218 l 1,9,-1
 416 60 l 1,10,11
 359 -23 359 -23 254.5 -23 c 128,-1,12
 150 -23 150 -23 90 51 c 128,-1,13
 30 125 30 125 30 253.5 c 128,-1,14
 30 382 30 382 92 460.5 c 128,-1,15
 154 539 154 539 259.5 539 c 128,-1,16
 365 539 365 539 425 454 c 1,17,-1
 425 524 l 1,18,-1
 499 524 l 1,19,-1
 499 -218 l 1,8,-1
EndSplineSet
EndChar

StartChar: r
Encoding: 52 114 55
Width: 332
GlyphClass: 2
Flags: W
HStem: 0 21G<60 144> 451 88<212.947 312> 504 20G<60 137>
VStem: 60 84<0 385.967> 60 77<429 524>
LayerCount: 2
Fore
SplineSet
312 451 m 1,0,1
 228 449 228 449 186 412 c 128,-1,2
 144 375 144 375 144 272 c 2,3,-1
 144 0 l 1,4,-1
 60 0 l 1,5,-1
 60 524 l 1,6,-1
 137 524 l 1,7,-1
 137 429 l 1,8,9
 173 488 173 488 206.5 513.5 c 128,-1,10
 240 539 240 539 280 539 c 0,11,12
 291 539 291 539 312 536 c 1,13,-1
 312 451 l 1,0,1
EndSplineSet
EndChar

StartChar: s
Encoding: 53 115 56
Width: 493
GlyphClass: 2
Flags: W
HStem: -23 77<162.168 337.102> 462 77<164.335 322.048>
VStem: 34 88<95.168 156> 47 87<338.632 433.549> 350 88<378 434.786> 372 87<86.22 182.33>
LayerCount: 2
Fore
SplineSet
122 156 m 1,0,1
 128 109 128 109 154.5 81.5 c 128,-1,2
 181 54 181 54 243 54 c 128,-1,3
 305 54 305 54 338.5 76.5 c 128,-1,4
 372 99 372 99 372 132 c 128,-1,5
 372 165 372 165 353 182 c 128,-1,6
 334 199 334 199 291 209 c 2,7,-1
 213 228 l 2,8,9
 120 250 120 250 83.5 283.5 c 128,-1,10
 47 317 47 317 47 384.5 c 128,-1,11
 47 452 47 452 102 495.5 c 128,-1,12
 157 539 157 539 248 539 c 128,-1,13
 339 539 339 539 388 497 c 128,-1,14
 437 455 437 455 438 378 c 1,15,-1
 350 378 l 1,16,17
 347 462 347 462 245 462 c 0,18,19
 194 462 194 462 164 440.5 c 128,-1,20
 134 419 134 419 134 387 c 128,-1,21
 134 355 134 355 157 337.5 c 128,-1,22
 180 320 180 320 231 308 c 2,23,-1
 311 289 l 2,24,25
 389 270 389 270 424 235.5 c 128,-1,26
 459 201 459 201 459 143 c 0,27,28
 459 67 459 67 400.5 22 c 128,-1,29
 342 -23 342 -23 243 -23 c 0,30,31
 40 -23 40 -23 34 156 c 1,32,-1
 122 156 l 1,0,1
EndSplineSet
EndChar

StartChar: t
Encoding: 54 116 57
Width: 280
GlyphClass: 2
Flags: W
HStem: -23 73<179.588 259.155> 456 68<20 91 174 260>
VStem: 91 83<59.8014 456 524 668>
LayerCount: 2
Fore
SplineSet
260 524 m 1,0,-1
 260 456 l 1,1,-1
 174 456 l 1,2,-1
 174 97 l 2,3,4
 174 69 174 69 183.5 59.5 c 128,-1,5
 193 50 193 50 219 50 c 128,-1,6
 245 50 245 50 260 54 c 1,7,-1
 260 -16 l 1,8,9
 221 -23 221 -23 182 -23 c 128,-1,10
 143 -23 143 -23 117 -1.5 c 128,-1,11
 91 20 91 20 91 60 c 2,12,-1
 91 456 l 1,13,-1
 20 456 l 1,14,-1
 20 524 l 1,15,-1
 91 524 l 1,16,-1
 91 668 l 1,17,-1
 174 668 l 1,18,-1
 174 524 l 1,19,-1
 260 524 l 1,0,-1
EndSplineSet
EndChar

StartChar: u
Encoding: 55 117 58
Width: 537
GlyphClass: 2
Flags: W
HStem: -23 73<179.904 324.786> 0 21G<402 477> 504 20G<60 143 394 477>
VStem: 60 83<87.3032 524> 394 83<124.719 524> 402 75<0 73>
LayerCount: 2
Fore
SplineSet
477 0 m 1,0,-1
 402 0 l 1,1,-1
 402 73 l 1,2,3
 365 21 365 21 325 -1 c 128,-1,4
 285 -23 285 -23 218 -23 c 128,-1,5
 151 -23 151 -23 105.5 16 c 128,-1,6
 60 55 60 55 60 120 c 2,7,-1
 60 524 l 1,8,-1
 143 524 l 1,9,-1
 143 153 l 2,10,11
 143 106 143 106 172 78 c 128,-1,12
 201 50 201 50 258.5 50 c 128,-1,13
 316 50 316 50 355 98.5 c 128,-1,14
 394 147 394 147 394 227 c 2,15,-1
 394 524 l 1,16,-1
 477 524 l 1,17,-1
 477 0 l 1,0,-1
EndSplineSet
EndChar

StartChar: v
Encoding: 56 118 59
Width: 496
GlyphClass: 2
Flags: W
HStem: 0 21G<186.977 292.672> 504 20G<10 110.588 385.035 486>
LayerCount: 2
Fore
SplineSet
285 0 m 1,0,-1
 194 0 l 1,1,-1
 10 524 l 1,2,-1
 104 524 l 1,3,-1
 244 99 l 1,4,-1
 392 524 l 1,5,-1
 486 524 l 1,6,-1
 285 0 l 1,0,-1
EndSplineSet
EndChar

StartChar: w
Encoding: 57 119 60
Width: 722
GlyphClass: 2
Flags: W
HStem: 0 21G<156.198 260.915 457.842 563.878> 504 20G<10 107.245 304.098 416.049 612.902 712>
LayerCount: 2
Fore
SplineSet
558 0 m 1,0,-1
 463 0 l 1,1,-1
 357 411 l 1,2,-1
 256 0 l 1,3,-1
 162 0 l 1,4,-1
 10 524 l 1,5,-1
 102 524 l 1,6,-1
 209 116 l 1,7,-1
 309 524 l 1,8,-1
 411 524 l 1,9,-1
 514 116 l 1,10,-1
 618 524 l 1,11,-1
 712 524 l 1,12,-1
 558 0 l 1,0,-1
EndSplineSet
EndChar

StartChar: x
Encoding: 58 120 61
Width: 476
GlyphClass: 2
Flags: W
HStem: 0 21G<10 118.234 355.965 466> 504 20G<20 128.263 353.737 461>
LayerCount: 2
Fore
SplineSet
285 271 m 1,0,-1
 466 0 l 1,1,-1
 369 0 l 1,2,-1
 238 201 l 1,3,-1
 105 0 l 1,4,-1
 10 0 l 1,5,-1
 195 267 l 1,6,-1
 20 524 l 1,7,-1
 115 524 l 1,8,-1
 241 334 l 1,9,-1
 367 524 l 1,10,-1
 461 524 l 1,11,-1
 285 271 l 1,0,-1
EndSplineSet
EndChar

StartChar: y
Encoding: 59 121 62
Width: 478
GlyphClass: 2
Flags: W
HStem: -218 82<44.8126 138.927> 504 20G<10 105.569 370.892 468>
LayerCount: 2
Fore
SplineSet
378 524 m 1,0,-1
 468 524 l 1,1,-1
 235 -110 l 1,2,3
 194 -218 194 -218 100 -218 c 0,4,5
 69 -218 69 -218 44 -205 c 1,6,-1
 44 -130 l 1,7,8
 71 -136 71 -136 92.5 -136 c 128,-1,9
 114 -136 114 -136 129 -124.5 c 128,-1,10
 144 -113 144 -113 155 -85 c 2,11,-1
 187 -2 l 1,12,-1
 10 524 l 1,13,-1
 99 524 l 1,14,-1
 233 116 l 1,15,-1
 378 524 l 1,0,-1
EndSplineSet
EndChar

StartChar: z
Encoding: 60 122 63
Width: 486
GlyphClass: 2
Flags: W
HStem: 0 73<131 456> 451 73<51 343>
LayerCount: 2
Fore
SplineSet
442 524 m 1,0,-1
 442 450 l 1,1,-1
 131 73 l 1,2,-1
 456 73 l 1,3,-1
 456 0 l 1,4,-1
 30 0 l 1,5,-1
 30 75 l 1,6,-1
 343 451 l 1,7,-1
 51 451 l 1,8,-1
 51 524 l 1,9,-1
 442 524 l 1,0,-1
EndSplineSet
EndChar

StartChar: macron
Encoding: 62 175 65
Width: 333
GlyphClass: 2
Flags: W
LayerCount: 2
Fore
SplineSet
302 701 m 1,0,-1
 302 631 l 1,1,-1
 28 631 l 1,2,-1
 28 701 l 1,3,-1
 302 701 l 1,0,-1
EndSplineSet
EndChar

StartChar: acute
Encoding: 63 180 66
Width: 333
GlyphClass: 2
Flags: W
LayerCount: 2
Fore
SplineSet
188 740 m 1,0,-1
 301 740 l 1,1,-1
 152 592 l 1,2,-1
 92 592 l 1,3,-1
 188 740 l 1,0,-1
EndSplineSet
EndChar

StartChar: AE
Encoding: 65 198 68
Width: 984
GlyphClass: 2
Flags: W
LayerCount: 2
Fore
SplineSet
472 296 m 1,0,-1
 472 647 l 1,1,-1
 372 647 l 1,2,-1
 234 296 l 1,3,-1
 472 296 l 1,0,-1
472 214 m 1,4,-1
 203 214 l 1,5,-1
 118 0 l 1,6,-1
 15 0 l 1,7,-1
 314 729 l 1,8,-1
 936 729 l 1,9,-1
 936 647 l 1,10,-1
 565 647 l 1,11,-1
 565 414 l 1,12,-1
 917 414 l 1,13,-1
 917 332 l 1,14,-1
 565 332 l 1,15,-1
 565 82 l 1,16,-1
 954 82 l 1,17,-1
 954 0 l 1,18,-1
 472 0 l 1,19,-1
 472 214 l 1,4,-1
EndSplineSet
EndChar

StartChar: ccedilla
Encoding: 73 231 76
Width: 506
GlyphClass: 2
Flags: W
LayerCount: 2
Fore
SplineSet
224 -21 m 1,0,1
 171 -11 171 -11 132 17 c 128,-1,2
 93 45 93 45 74 75.5 c 128,-1,3
 55 106 55 106 44.5 146 c 0,4,5
 30 201.238095238 30 201.238095238 30 253 c 0,6,7
 30 383 30 383 93.5 461 c 128,-1,8
 157 539 157 539 255.5 539 c 128,-1,9
 354 539 354 539 408.5 490 c 128,-1,10
 463 441 463 441 470 348 c 1,11,-1
 386 348 l 1,12,13
 378 403 378 403 346 432.5 c 128,-1,14
 314 462 314 462 262 462 c 0,15,16
 194 462 194 462 155.5 406.5 c 128,-1,17
 117 351 117 351 117 255 c 128,-1,18
 117 159 117 159 156 106 c 128,-1,19
 195 53 195 53 264 53 c 0,20,21
 371 53 371 53 392 180 c 1,22,-1
 476 180 l 1,23,24
 471 86 471 86 413 31.5 c 128,-1,25
 355 -23 355 -23 263 -23 c 1,26,-1
 250 -56 l 1,27,28
 264 -54 264 -54 278 -54 c 0,29,30
 315 -54 315 -54 336 -71.5 c 128,-1,31
 357 -89 357 -89 357 -126.5 c 128,-1,32
 357 -164 357 -164 324 -189 c 128,-1,33
 291 -214 291 -214 239 -214 c 128,-1,34
 187 -214 187 -214 109 -181 c 1,35,-1
 130 -140 l 1,36,37
 137 -143 137 -143 152.5 -150.5 c 128,-1,38
 168 -158 168 -158 176.5 -162 c 0,39,40
 199.875 -173 199.875 -173 225.4375 -173 c 128,-1,41
 251 -173 251 -173 266.5 -160 c 128,-1,42
 282 -147 282 -147 282 -128 c 0,43,44
 282 -91 282 -91 236 -91 c 0,45,46
 221 -91 221 -91 205 -99 c 1,47,-1
 193 -92 l 1,48,-1
 224 -21 l 1,0,1
EndSplineSet
EndChar

StartChar: oslash
Encoding: 87 248 90
Width: 534
GlyphClass: 2
Flags: W
LayerCount: 2
Fore
SplineSet
136 141 m 1,0,-1
 375 410 l 1,1,2
 334 462 334 462 264.5 462 c 128,-1,3
 195 462 195 462 155 407.5 c 128,-1,4
 115 353 115 353 115 258 c 0,5,6
 115 190 115 190 136 141 c 1,0,-1
397 371 m 1,7,-1
 159 102 l 1,8,9
 202 54 202 54 268.5 54 c 128,-1,10
 335 54 335 54 375 108.5 c 128,-1,11
 415 163 415 163 415 258 c 0,12,13
 415 324 415 324 397 371 c 1,7,-1
521 511 m 1,14,-1
 458 440 l 1,15,16
 502 367 502 367 502 246.5 c 128,-1,17
 502 126 502 126 439.5 51.5 c 128,-1,18
 377 -23 377 -23 270 -23 c 128,-1,19
 163 -23 163 -23 103 39 c 1,20,-1
 42 -30 l 1,21,-1
 10 -2 l 1,22,-1
 76 72 l 1,23,24
 28 143 28 143 28 266.5 c 128,-1,25
 28 390 28 390 91 464.5 c 128,-1,26
 154 539 154 539 260 539 c 128,-1,27
 366 539 366 539 431 474 c 1,28,-1
 489 539 l 1,29,-1
 521 511 l 1,14,-1
EndSplineSet
EndChar

StartChar: dotlessi
Encoding: 100 305 103
Width: 222
GlyphClass: 2
Flags: W
LayerCount: 2
Fore
SplineSet
153 524 m 1,0,-1
 153 0 l 1,1,-1
 70 0 l 1,2,-1
 70 524 l 1,3,-1
 153 524 l 1,0,-1
EndSplineSet
EndChar

StartChar: scedilla
Encoding: 103 351 106
Width: 493
GlyphClass: 2
Flags: W
LayerCount: 2
Fore
SplineSet
122 156 m 1,0,1
 128 109 128 109 154.5 81.5 c 128,-1,2
 181 54 181 54 243 54 c 128,-1,3
 305 54 305 54 338.5 76.5 c 128,-1,4
 372 99 372 99 372 132 c 128,-1,5
 372 165 372 165 353 182 c 128,-1,6
 334 199 334 199 291 209 c 2,7,-1
 213 228 l 2,8,9
 120 250 120 250 83.5 283.5 c 128,-1,10
 47 317 47 317 47 384.5 c 128,-1,11
 47 452 47 452 102 495.5 c 128,-1,12
 157 539 157 539 248 539 c 128,-1,13
 339 539 339 539 388 497 c 128,-1,14
 437 455 437 455 438 378 c 1,15,-1
 350 378 l 1,16,17
 347 462 347 462 245 462 c 0,18,19
 194 462 194 462 164 440.5 c 128,-1,20
 134 419 134 419 134 387 c 128,-1,21
 134 355 134 355 157 337.5 c 128,-1,22
 180 320 180 320 231 308 c 2,23,-1
 311 289 l 2,24,25
 389 270 389 270 424 235.5 c 128,-1,26
 459 201 459 201 459 148.5 c 128,-1,27
 459 96 459 96 433 57 c 128,-1,28
 407 18 407 18 365 -0.5 c 128,-1,29
 323 -19 323 -19 244 -24 c 1,30,-1
 230 -56 l 1,31,32
 244 -54 244 -54 258 -54 c 0,33,34
 296 -54 296 -54 316.5 -71.5 c 128,-1,35
 337 -89 337 -89 337 -126.5 c 128,-1,36
 337 -164 337 -164 304 -189 c 128,-1,37
 271 -214 271 -214 219 -214 c 128,-1,38
 167 -214 167 -214 89 -180 c 1,39,-1
 110 -140 l 1,40,41
 117 -143 117 -143 132.5 -150.5 c 128,-1,42
 148 -158 148 -158 157 -162 c 0,43,44
 181.75 -173 181.75 -173 206.375 -173 c 128,-1,45
 231 -173 231 -173 246.5 -160 c 128,-1,46
 262 -147 262 -147 262 -128 c 0,47,48
 262 -91 262 -91 216 -91 c 0,49,50
 202 -91 202 -91 185 -98 c 1,51,-1
 174 -92 l 1,52,-1
 205 -21 l 1,53,54
 37 -4 37 -4 34 156 c 1,55,-1
 122 156 l 1,0,1
EndSplineSet
EndChar

StartChar: tcommaaccent
Encoding: 105 355 108
Width: 284
GlyphClass: 2
Flags: W
LayerCount: 2
Fore
SplineSet
173 -22 m 1,0,1
 91 -13.8 91 -13.8 91 60 c 2,2,-1
 91 456 l 1,3,-1
 20 456 l 1,4,-1
 20 524 l 1,5,-1
 91 524 l 1,6,-1
 91 668 l 1,7,-1
 174 668 l 1,8,-1
 174 524 l 1,9,-1
 260 524 l 1,10,-1
 260 456 l 1,11,-1
 174 456 l 1,12,-1
 174 97 l 2,13,14
 174 69 174 69 183.5 59.5 c 128,-1,15
 193 50 193 50 219 50 c 128,-1,16
 245 50 245 50 260 54 c 1,17,-1
 260 -16 l 1,18,19
 232 -21 232 -21 211 -22 c 1,20,-1
 192 -69 l 1,21,22
 205 -67 205 -67 220 -67 c 0,23,24
 258 -67 258 -67 278.5 -84.5 c 128,-1,25
 299 -102 299 -102 299 -139.5 c 128,-1,26
 299 -177 299 -177 266 -202 c 128,-1,27
 233 -227 233 -227 181 -227 c 128,-1,28
 129 -227 129 -227 51 -193 c 1,29,-1
 72 -153 l 1,30,31
 81 -157 81 -157 97.5 -165 c 128,-1,32
 114 -173 114 -173 122.5 -176.5 c 0,33,34
 145.571428571 -186 145.571428571 -186 169.285714286 -186 c 128,-1,35
 193 -186 193 -186 208.5 -173 c 128,-1,36
 224 -160 224 -160 224 -141 c 0,37,38
 224 -104 224 -104 178 -104 c 0,39,40
 163 -104 163 -104 147 -112 c 1,41,-1
 135 -105 l 1,42,-1
 173 -22 l 1,0,1
EndSplineSet
EndChar

StartChar: uogonek
Encoding: 108 371 111
Width: 537
GlyphClass: 2
Flags: W
LayerCount: 2
Fore
SplineSet
516 -195 m 1,0,1
 471 -204 471 -204 464 -204 c 0,2,3
 402 -204 402 -204 365 -179 c 128,-1,4
 328 -154 328 -154 328 -111 c 0,5,6
 328 -49 328 -49 424 0 c 1,7,-1
 402 0 l 1,8,-1
 402 73 l 1,9,10
 365 21 365 21 325 -1 c 128,-1,11
 285 -23 285 -23 218 -23 c 128,-1,12
 151 -23 151 -23 105.5 16 c 128,-1,13
 60 55 60 55 60 120 c 2,14,-1
 60 524 l 1,15,-1
 143 524 l 1,16,-1
 143 153 l 2,17,18
 143 106 143 106 172 78 c 128,-1,19
 201 50 201 50 258.5 50 c 128,-1,20
 316 50 316 50 355 98.5 c 128,-1,21
 394 147 394 147 394 227 c 2,22,-1
 394 524 l 1,23,-1
 477 524 l 1,24,-1
 477 0 l 1,25,26
 442 -20 442 -20 421 -49.5 c 128,-1,27
 400 -79 400 -79 400 -105.5 c 128,-1,28
 400 -132 400 -132 418 -146 c 128,-1,29
 436 -160 436 -160 463 -160 c 128,-1,30
 490 -160 490 -160 516 -150 c 1,31,-1
 516 -195 l 1,0,1
EndSplineSet
EndChar

StartChar: uni026C
Encoding: 111 620 114
Width: 427
GlyphClass: 2
Flags: W
LayerCount: 2
Fore
SplineSet
171 356 m 1,0,-1
 171 438 l 1,1,2
 131 438 131 438 114 425.5 c 128,-1,3
 97 413 97 413 97 396 c 0,4,5
 97 356 97 356 171 356 c 1,0,-1
171 511 m 1,6,-1
 171 729 l 1,7,-1
 255 729 l 1,8,-1
 255 356 l 1,9,-1
 407 356 l 1,10,-1
 407 279 l 1,11,-1
 255 279 l 1,12,-1
 255 0 l 1,13,-1
 171 0 l 1,14,-1
 171 279 l 1,15,16
 20 279 20 279 20 392 c 0,17,18
 20 431.580645161 20 431.580645161 50.5 467 c 0,19,20
 84.8565517241 506.897931034 84.8565517241 506.897931034 171 511 c 1,6,-1
EndSplineSet
EndChar

StartChar: uni028B
Encoding: 112 651 115
Width: 520
GlyphClass: 2
Flags: W
LayerCount: 2
Fore
SplineSet
216 -23 m 2,0,-1
 161 -23 l 2,1,2
 112 -23 112 -23 86 -1.5 c 128,-1,3
 60 20 60 20 60 60 c 2,4,-1
 60 524 l 1,5,-1
 143 524 l 1,6,-1
 143 97 l 2,7,8
 143 50 143 50 216 50 c 0,9,10
 261 50 261 50 296 67.5 c 128,-1,11
 331 85 331 85 350 109.5 c 128,-1,12
 369 134 369 134 381 164.5 c 0,13,14
 401 215.333333333 401 215.333333333 401 257.666666667 c 128,-1,15
 401 300 401 300 374.5 358 c 128,-1,16
 348 416 348 416 276 467 c 1,17,-1
 378 471 l 1,18,19
 427 433 427 433 458.5 370.5 c 128,-1,20
 490 308 490 308 490 249 c 0,21,22
 490 198.717948718 490 198.717948718 463.5 144.358974359 c 128,-1,23
 437 90 437 90 407.5 57 c 128,-1,24
 378 24 378 24 328 0.5 c 128,-1,25
 278 -23 278 -23 216 -23 c 2,0,-1
EndSplineSet
EndChar

StartChar: uni02BB
Encoding: 113 699 116
Width: 250
GlyphClass: 2
Flags: W
LayerCount: 2
Fore
SplineSet
190 503 m 1,0,-1
 85 503 l 1,1,-1
 85 623 l 2,2,3
 85 754 85 754 190 754 c 1,4,-1
 190 716 l 1,5,6
 156 715 156 715 145.5 696.5 c 128,-1,7
 135 678 135 678 135 625 c 2,8,-1
 135 607 l 1,9,-1
 190 607 l 1,10,-1
 190 503 l 1,0,-1
EndSplineSet
EndChar

StartChar: circumflex
Encoding: 114 710 117
Width: 333
GlyphClass: 2
Flags: W
LayerCount: 2
Fore
SplineSet
116 741 m 1,0,-1
 211 741 l 1,1,-1
 307 591 l 1,2,-1
 244 591 l 1,3,-1
 163 687 l 1,4,-1
 84 591 l 1,5,-1
 20 591 l 1,6,-1
 116 741 l 1,0,-1
EndSplineSet
EndChar

StartChar: caron
Encoding: 115 711 118
Width: 333
GlyphClass: 2
Flags: W
LayerCount: 2
Fore
SplineSet
210 591 m 1,0,-1
 115 591 l 1,1,-1
 19 741 l 1,2,-1
 82 741 l 1,3,-1
 163 645 l 1,4,-1
 242 741 l 1,5,-1
 306 741 l 1,6,-1
 210 591 l 1,0,-1
EndSplineSet
EndChar

StartChar: breve
Encoding: 116 728 119
Width: 333
GlyphClass: 2
Flags: W
LayerCount: 2
Fore
SplineSet
15 732 m 1,0,-1
 74 732 l 1,1,2
 82 666 82 666 166 666 c 0,3,4
 206 666 206 666 230 683 c 128,-1,5
 254 700 254 700 257 732 c 1,6,-1
 316 732 l 1,7,8
 305 597 305 597 164 597 c 0,9,10
 128 597 128 597 98 606.5 c 128,-1,11
 68 616 68 616 42 648 c 128,-1,12
 16 680 16 680 15 732 c 1,0,-1
EndSplineSet
EndChar

StartChar: dotaccent
Encoding: 117 729 120
Width: 333
GlyphClass: 2
Flags: W
LayerCount: 2
Fore
SplineSet
219 716 m 1,0,-1
 219 612 l 1,1,-1
 115 612 l 1,2,-1
 115 716 l 1,3,-1
 219 716 l 1,0,-1
EndSplineSet
EndChar

StartChar: ring
Encoding: 118 730 121
Width: 333
GlyphClass: 2
Flags: W
LayerCount: 2
Fore
SplineSet
198.5 697.5 m 128,-1,1
 186 710 186 710 167.5 710 c 128,-1,2
 149 710 149 710 136 697 c 128,-1,3
 123 684 123 684 123 666.5 c 128,-1,4
 123 649 123 649 136 636 c 128,-1,5
 149 623 149 623 167 623 c 128,-1,6
 185 623 185 623 198 636 c 128,-1,7
 211 649 211 649 211 667 c 128,-1,0
 211 685 211 685 198.5 697.5 c 128,-1,1
92.5 740.5 m 128,-1,9
 124 772 124 772 167.5 772 c 128,-1,10
 211 772 211 772 242 741 c 128,-1,11
 273 710 273 710 273 666.5 c 128,-1,12
 273 623 273 623 241.5 592.5 c 128,-1,13
 210 562 210 562 167 562 c 128,-1,14
 124 562 124 562 92.5 593 c 128,-1,15
 61 624 61 624 61 666.5 c 128,-1,8
 61 709 61 709 92.5 740.5 c 128,-1,9
EndSplineSet
EndChar

StartChar: tilde
Encoding: 119 732 122
Width: 333
GlyphClass: 2
Flags: W
LayerCount: 2
Fore
SplineSet
35.5 690 m 128,-1,1
 58 717 58 717 87 717 c 128,-1,2
 116 717 116 717 160 698.5 c 128,-1,3
 204 680 204 680 224 680 c 0,4,5
 249 680 249 680 261 717 c 1,6,-1
 319 717 l 1,7,8
 304 613 304 613 230 613 c 0,9,10
 210 613 210 613 160 632 c 128,-1,11
 110 651 110 651 96 651 c 0,12,13
 73 651 73 651 63 614 c 1,14,-1
 5 614 l 1,15,0
 13 663 13 663 35.5 690 c 128,-1,1
EndSplineSet
EndChar

StartChar: uni0313
Encoding: 122 787 125
Width: 0
GlyphClass: 2
Flags: W
LayerCount: 2
Fore
SplineSet
-206 740 m 1,0,-1
 -118 740 l 1,1,-1
 -118 667 l 2,2,3
 -118 624 -118 624 -141.5 600.5 c 128,-1,4
 -165 577 -165 577 -206 577 c 1,5,-1
 -206 619 l 1,6,7
 -181 619 -181 619 -171 629.5 c 128,-1,8
 -161 640 -161 640 -161 666 c 1,9,-1
 -206 666 l 1,10,-1
 -206 740 l 1,0,-1
EndSplineSet
EndChar

StartChar: uni0314
Encoding: 123 788 126
Width: 0
GlyphClass: 2
Flags: W
LayerCount: 2
Fore
SplineSet
-124 740 m 1,0,-1
 -124 666 l 1,1,-1
 -169 666 l 1,2,3
 -169 640 -169 640 -159 629.5 c 128,-1,4
 -149 619 -149 619 -124 619 c 1,5,-1
 -124 577 l 1,6,7
 -165 577 -165 577 -188.5 600.5 c 128,-1,8
 -212 624 -212 624 -212 667 c 2,9,-1
 -212 740 l 1,10,-1
 -124 740 l 1,0,-1
EndSplineSet
EndChar

StartChar: uni0326
Encoding: 125 806 128
Width: 0
GlyphClass: 2
Flags: W
LayerCount: 2
Fore
SplineSet
-269 -76 m 1,0,-1
 -169 -76 l 1,1,-1
 -169 -179 l 2,2,3
 -169 -235 -169 -235 -195 -267.5 c 128,-1,4
 -221 -300 -221 -300 -267 -300 c 2,5,-1
 -269 -300 l 1,6,-1
 -269 -262 l 1,7,8
 -214 -262 -214 -262 -214 -184 c 2,9,-1
 -214 -176 l 1,10,-1
 -269 -176 l 1,11,-1
 -269 -76 l 1,0,-1
EndSplineSet
EndChar

StartChar: Pi
Encoding: 129 928 132
Width: 720
GlyphClass: 2
Flags: W
LayerCount: 2
Fore
SplineSet
640 0 m 1,0,-1
 546 0 l 1,1,-1
 546 647 l 1,2,-1
 174 647 l 1,3,-1
 174 0 l 1,4,-1
 80 0 l 1,5,-1
 80 729 l 1,6,-1
 640 729 l 1,7,-1
 640 0 l 1,0,-1
EndSplineSet
EndChar

StartChar: alpha
Encoding: 132 945 135
Width: 578
GlyphClass: 2
Flags: W
LayerCount: 2
Fore
SplineSet
367 117 m 128,-1,1
 406 168 406 168 406 256 c 128,-1,2
 406 344 406 344 365 399 c 128,-1,3
 324 454 324 454 254 454 c 128,-1,4
 184 454 184 454 149 401.5 c 128,-1,5
 114 349 114 349 114 258 c 0,6,7
 114 66 114 66 256 66 c 0,8,0
 328 66 328 66 367 117 c 128,-1,1
30 262 m 0,9,10
 30 333.875 30 333.875 58 399.5 c 0,11,12
 74 437 74 437 98.5 465.5 c 128,-1,13
 123 494 123 494 164.5 512.5 c 128,-1,14
 206 531 206 531 258 531 c 0,15,16
 384 529 384 529 428 442 c 1,17,-1
 428 524 l 1,18,-1
 500 524 l 1,19,-1
 500 99 l 2,20,21
 500 68 500 68 521 68 c 0,22,23
 532 68 532 68 544 77 c 1,24,-1
 565 8 l 1,25,26
 522 -13 522 -13 488.5 -13 c 128,-1,27
 455 -13 455 -13 437.5 3 c 128,-1,28
 420 19 420 19 420 46 c 2,29,-1
 420 65 l 1,30,31
 406 30 406 30 363.5 9 c 128,-1,32
 321 -12 321 -12 258 -12 c 0,33,34
 30 -12 30 -12 30 262 c 0,9,10
EndSplineSet
EndChar

StartChar: epsilon
Encoding: 133 949 136
Width: 497
GlyphClass: 2
Flags: W
LayerCount: 2
Fore
SplineSet
467 136 m 1,0,1
 456 56 456 56 401.5 23 c 128,-1,2
 347 -10 347 -10 244 -10 c 0,3,4
 30 -10 30 -10 30 136 c 0,5,6
 30 231 30 231 132 261 c 1,7,8
 30 290 30 290 30 386 c 0,9,10
 30 441 30 441 64 475.5 c 128,-1,11
 98 510 98 510 142.5 521 c 128,-1,12
 187 532 187 532 244 532 c 0,13,14
 332 532 332 532 394 498 c 128,-1,15
 456 464 456 464 467 386 c 1,16,-1
 391 386 l 1,17,18
 386 425 386 425 343 443.5 c 128,-1,19
 300 462 300 462 241 462 c 0,20,21
 112 462 112 462 112 377 c 0,22,23
 112 330 112 330 144 310 c 128,-1,24
 176 290 176 290 240 290 c 2,25,-1
 286 290 l 1,26,-1
 286 231 l 1,27,-1
 240 231 l 2,28,29
 177 231 177 231 144.5 211 c 128,-1,30
 112 191 112 191 112 145.5 c 128,-1,31
 112 100 112 100 148 80 c 128,-1,32
 184 60 184 60 241 60 c 128,-1,33
 298 60 298 60 342 78.5 c 128,-1,34
 386 97 386 97 391 136 c 1,35,-1
 467 136 l 1,0,1
EndSplineSet
EndChar

StartChar: eta
Encoding: 134 951 137
Width: 549
GlyphClass: 2
Flags: W
LayerCount: 2
Fore
SplineSet
401 316 m 2,0,1
 401 385 401 385 378 419.5 c 128,-1,2
 355 454 355 454 293 454 c 0,3,4
 155 454 155 454 155 284 c 2,5,-1
 155 0 l 1,6,-1
 67 0 l 1,7,-1
 67 414 l 2,8,9
 67 451 67 451 45 451 c 0,10,11
 40 451 40 451 29 448 c 1,12,-1
 15 520 l 1,13,14
 45 531 45 531 76.5 531 c 128,-1,15
 108 531 108 531 126 506.5 c 128,-1,16
 144 482 144 482 146 445 c 2,17,-1
 147 430 l 1,18,19
 214 530 214 530 311 530 c 0,20,21
 393 530 393 530 438.5 489.5 c 128,-1,22
 484 449 484 449 488 371 c 0,23,24
 489 364 489 364 489 320 c 2,25,-1
 489 -182 l 1,26,-1
 401 -158 l 1,27,-1
 401 316 l 2,0,1
EndSplineSet
EndChar

StartChar: iota
Encoding: 135 953 138
Width: 284
GlyphClass: 2
Flags: W
LayerCount: 2
Fore
SplineSet
148 136 m 2,0,1
 148 110 148 110 161.5 94.5 c 128,-1,2
 175 79 175 79 193.5 79 c 128,-1,3
 212 79 212 79 244 94 c 1,4,-1
 274 13 l 1,5,6
 228 -8 228 -8 176 -8 c 128,-1,7
 124 -8 124 -8 92 28 c 128,-1,8
 60 64 60 64 60 133 c 2,9,-1
 60 524 l 1,10,-1
 148 524 l 1,11,-1
 148 136 l 2,0,1
EndSplineSet
EndChar

StartChar: kappa
Encoding: 136 954 139
Width: 500
GlyphClass: 2
Flags: W
LayerCount: 2
Fore
SplineSet
490 0 m 1,0,-1
 382 0 l 1,1,-1
 210 266 l 1,2,-1
 148 206 l 1,3,-1
 148 0 l 1,4,-1
 60 0 l 1,5,-1
 60 524 l 1,6,-1
 148 524 l 1,7,-1
 148 314 l 1,8,-1
 356 524 l 1,9,-1
 470 524 l 1,10,-1
 272 326 l 1,11,-1
 490 0 l 1,0,-1
EndSplineSet
EndChar

StartChar: lambda
Encoding: 137 955 140
Width: 546
GlyphClass: 2
Flags: W
LayerCount: 2
Fore
SplineSet
208 520 m 1,0,1
 194 559 194 559 188 574.5 c 128,-1,2
 182 590 182 590 169 610.5 c 128,-1,3
 156 631 156 631 140 637.5 c 128,-1,4
 124 644 124 644 100 644 c 1,5,-1
 46 636 l 1,6,-1
 56 718 l 1,7,8
 89 730 89 730 110.5 730 c 128,-1,9
 132 730 132 730 150 724 c 128,-1,10
 168 718 168 718 181 712 c 128,-1,11
 194 706 194 706 207.5 689.5 c 128,-1,12
 221 673 221 673 228 664 c 128,-1,13
 235 655 235 655 246.5 631 c 128,-1,14
 258 607 258 607 261 599 c 0,15,16
 282 543 282 543 288 528 c 2,17,-1
 454 90 l 2,18,19
 462 71 462 71 482 71 c 0,20,21
 487 71 487 71 500 75 c 128,-1,22
 513 79 513 79 516 82 c 1,23,-1
 536 12 l 1,24,25
 488 -12 488 -12 459 -12 c 128,-1,26
 430 -12 430 -12 413.5 0 c 128,-1,27
 397 12 397 12 390 25.5 c 128,-1,28
 383 39 383 39 374 66 c 2,29,-1
 252 420 l 1,30,-1
 106 0 l 1,31,-1
 10 0 l 1,32,-1
 208 520 l 1,0,1
EndSplineSet
EndChar

StartChar: omicron
Encoding: 139 959 142
Width: 544
GlyphClass: 2
Flags: W
LayerCount: 2
Fore
SplineSet
378 110 m 128,-1,1
 424 156 424 156 424 264 c 0,2,3
 424 320 424 320 409 360.5 c 128,-1,4
 394 401 394 401 369.5 421.5 c 128,-1,5
 345 442 345 442 320.5 451 c 128,-1,6
 296 460 296 460 270 460 c 128,-1,7
 244 460 244 460 219.5 451 c 128,-1,8
 195 442 195 442 171 421 c 128,-1,9
 147 400 147 400 132.5 359 c 128,-1,10
 118 318 118 318 118 262 c 128,-1,11
 118 206 118 206 132 165 c 128,-1,12
 146 124 146 124 169.5 103 c 0,13,14
 213.142857143 64 213.142857143 64 272.571428571 64 c 128,-1,0
 332 64 332 64 378 110 c 128,-1,1
30 270 m 0,15,16
 30 331 30 331 45.5 378.5 c 128,-1,17
 61 426 61 426 85 454 c 128,-1,18
 109 482 109 482 142 500.5 c 0,19,20
 198.189189189 532 198.189189189 532 270 532 c 0,21,22
 356.777777778 532 356.777777778 532 429.5 481 c 0,23,24
 468 454 468 454 491 399.5 c 128,-1,25
 514 345 514 345 514 270 c 0,26,27
 514 136 514 136 446.5 63 c 128,-1,28
 379 -10 379 -10 268 -10 c 128,-1,29
 157 -10 157 -10 93.5 61.5 c 128,-1,30
 30 133 30 133 30 270 c 0,15,16
EndSplineSet
EndChar

StartChar: rho
Encoding: 140 961 143
Width: 574
GlyphClass: 2
Flags: W
LayerCount: 2
Fore
SplineSet
408 110 m 128,-1,1
 454 156 454 156 454 264 c 0,2,3
 454 320 454 320 439 360.5 c 128,-1,4
 424 401 424 401 399.5 421.5 c 128,-1,5
 375 442 375 442 350.5 451 c 128,-1,6
 326 460 326 460 300 460 c 128,-1,7
 274 460 274 460 249.5 451 c 128,-1,8
 225 442 225 442 201 421 c 128,-1,9
 177 400 177 400 162.5 359 c 128,-1,10
 148 318 148 318 148 262 c 128,-1,11
 148 206 148 206 162 165 c 128,-1,12
 176 124 176 124 199.5 103 c 0,13,14
 243.142857143 64 243.142857143 64 302.571428571 64 c 128,-1,0
 362 64 362 64 408 110 c 128,-1,1
60 270 m 2,15,16
 60 331 60 331 75.5 378.5 c 128,-1,17
 91 426 91 426 115 454 c 128,-1,18
 139 482 139 482 172 500.5 c 0,19,20
 228.189189189 532 228.189189189 532 300 532 c 0,21,22
 414 532 414 532 479 460.5 c 128,-1,23
 544 389 544 389 544 262.5 c 128,-1,24
 544 136 544 136 476.5 63 c 128,-1,25
 409 -10 409 -10 305 -10 c 128,-1,26
 201 -10 201 -10 148 61 c 1,27,-1
 148 -200 l 1,28,-1
 60 -200 l 1,29,-1
 60 270 l 2,15,16
EndSplineSet
EndChar

StartChar: tau
Encoding: 141 964 144
Width: 492
GlyphClass: 2
Flags: W
LayerCount: 2
Fore
SplineSet
306 -12 m 0,0,1
 233 -12 233 -12 208.5 21.5 c 128,-1,2
 184 55 184 55 184 136 c 2,3,-1
 184 451 l 1,4,-1
 20 451 l 1,5,-1
 20 524 l 1,6,-1
 472 524 l 1,7,-1
 472 451 l 1,8,-1
 272 451 l 1,9,-1
 272 144 l 2,10,11
 272 101 272 101 280.5 86.5 c 128,-1,12
 289 72 289 72 322 72 c 0,13,14
 335 72 335 72 355 77 c 1,15,-1
 374 -2 l 1,16,17
 339 -12 339 -12 306 -12 c 0,0,1
EndSplineSet
EndChar

StartChar: chi
Encoding: 142 967 145
Width: 569
GlyphClass: 2
Flags: W
LayerCount: 2
Fore
SplineSet
569 -200 m 1,0,1
 544 -212 544 -212 518 -212 c 2,2,-1
 510 -212 l 2,3,4
 474 -212 474 -212 443.5 -186.5 c 128,-1,5
 413 -161 413 -161 395 -123 c 2,6,-1
 298 74 l 1,7,-1
 114 -200 l 1,8,-1
 10 -200 l 1,9,-1
 244 160 l 1,10,-1
 95 420 l 2,11,12
 83 442 83 442 72.5 450 c 128,-1,13
 62 458 62 458 37 458 c 1,14,15
 24 454 24 454 13 454 c 1,16,-1
 13 532 l 1,17,18
 37 538 37 538 69 538 c 0,19,20
 135 538 135 538 167 478 c 2,21,-1
 298 234 l 1,22,-1
 455 524 l 1,23,-1
 551 524 l 1,24,-1
 352 160 l 1,25,-1
 483 -91 l 1,26,27
 499 -127 499 -127 535 -127 c 0,28,29
 549 -127 549 -127 569 -121 c 1,30,-1
 569 -200 l 1,0,1
EndSplineSet
EndChar

StartChar: afii10020
Encoding: 145 1043 148
Width: 599
GlyphClass: 2
Flags: W
LayerCount: 2
Fore
SplineSet
173 0 m 1,0,-1
 80 0 l 1,1,-1
 80 729 l 1,2,-1
 569 729 l 1,3,-1
 569 647 l 1,4,-1
 173 647 l 1,5,-1
 173 0 l 1,0,-1
EndSplineSet
EndChar

StartChar: afii10026
Encoding: 146 1048 149
Width: 730
GlyphClass: 2
Flags: W
LayerCount: 2
Fore
SplineSet
80 729 m 1,0,-1
 168 729 l 1,1,-1
 168 126 l 1,2,-1
 549 729 l 1,3,-1
 650 729 l 1,4,-1
 650 0 l 1,5,-1
 562 0 l 1,6,-1
 562 598 l 1,7,-1
 185 0 l 1,8,-1
 80 0 l 1,9,-1
 80 729 l 1,0,-1
EndSplineSet
EndChar

StartChar: afii10028
Encoding: 147 1050 150
Width: 637
GlyphClass: 2
Flags: W
LayerCount: 2
Fore
SplineSet
173 0 m 1,0,-1
 80 0 l 1,1,-1
 80 729 l 1,2,-1
 173 729 l 1,3,-1
 173 423 l 1,4,-1
 478 729 l 1,5,-1
 589 729 l 1,6,-1
 244 384 l 1,7,-1
 622 0 l 1,8,-1
 498 0 l 1,9,-1
 173 333 l 1,10,-1
 173 0 l 1,0,-1
EndSplineSet
EndChar

StartChar: afii10033
Encoding: 148 1055 151
Width: 721
GlyphClass: 2
Flags: W
LayerCount: 2
Fore
SplineSet
547 647 m 1,0,-1
 174 647 l 1,1,-1
 174 0 l 1,2,-1
 80 0 l 1,3,-1
 80 729 l 1,4,-1
 641 729 l 1,5,-1
 641 0 l 1,6,-1
 547 0 l 1,7,-1
 547 647 l 1,0,-1
EndSplineSet
EndChar

StartChar: afii10041
Encoding: 149 1063 152
Width: 620
GlyphClass: 2
Flags: W
LayerCount: 2
Fore
SplineSet
447 275 m 1,0,-1
 215 275 l 2,1,2
 138 275 138 275 94 321 c 128,-1,3
 50 367 50 367 50 432 c 2,4,-1
 50 729 l 1,5,-1
 143 729 l 1,6,-1
 143 414 l 2,7,8
 143 357 143 357 219 357 c 2,9,-1
 447 357 l 1,10,-1
 447 729 l 1,11,-1
 540 729 l 1,12,-1
 540 0 l 1,13,-1
 447 0 l 1,14,-1
 447 275 l 1,0,-1
EndSplineSet
EndChar

StartChar: afii10066
Encoding: 151 1073 154
Width: 534
GlyphClass: 2
Flags: W
LayerCount: 2
Fore
SplineSet
377.5 407 m 128,-1,1
 338 462 338 462 267.5 462 c 128,-1,2
 197 462 197 462 157 407.5 c 128,-1,3
 117 353 117 353 117 258 c 128,-1,4
 117 163 117 163 157 108.5 c 128,-1,5
 197 54 197 54 266.5 54 c 128,-1,6
 336 54 336 54 376.5 108.5 c 128,-1,7
 417 163 417 163 417 257.5 c 128,-1,0
 417 352 417 352 377.5 407 c 128,-1,1
111 469 m 1,8,9
 155 539 155 539 267 539 c 128,-1,10
 379 539 379 539 441.5 464.5 c 128,-1,11
 504 390 504 390 504 257.5 c 128,-1,12
 504 125 504 125 440.5 51 c 128,-1,13
 377 -23 377 -23 266 -23 c 128,-1,14
 155 -23 155 -23 92.5 51.5 c 128,-1,15
 30 126 30 126 30 258 c 0,16,17
 30 412.666666667 30 412.666666667 63 530 c 0,18,19
 81 594 81 594 116 636.5 c 128,-1,20
 151 679 151 679 201 690 c 0,21,22
 215 693 215 693 246.5 698 c 128,-1,23
 278 703 278 703 298.5 707.5 c 128,-1,24
 319 712 319 712 342.5 720 c 0,25,26
 390 736.170212766 390 736.170212766 390 775 c 1,27,-1
 464 775 l 1,28,29
 464 714.571428571 464 714.571428571 450.5 695.285714286 c 128,-1,30
 437 676 437 676 427.5 668 c 128,-1,31
 418 660 418 660 393.5 652 c 128,-1,32
 369 644 369 644 350.5 640 c 0,33,34
 254.636363636 619.272727273 254.636363636 619.272727273 216.318181818 610.136363636 c 128,-1,35
 178 601 178 601 149 562 c 128,-1,36
 120 523 120 523 111 469 c 1,8,9
EndSplineSet
EndChar

StartChar: afii10067
Encoding: 152 1074 155
Width: 488
GlyphClass: 2
Flags: W
LayerCount: 2
Fore
SplineSet
279 524 m 2,0,1
 361 524 361 524 396 484 c 128,-1,2
 431 444 431 444 431 392 c 0,3,4
 431 305 431 305 362 277 c 1,5,6
 458 240 458 240 458 150 c 0,7,8
 458 85 458 85 416 42.5 c 128,-1,9
 374 0 374 0 303 0 c 2,10,-1
 60 0 l 1,11,-1
 60 524 l 1,12,-1
 279 524 l 2,0,1
144 231 m 1,13,-1
 144 76 l 1,14,-1
 284 76 l 2,15,16
 323 76 323 76 345.5 97 c 128,-1,17
 368 118 368 118 368 153.5 c 128,-1,18
 368 189 368 189 345 210 c 128,-1,19
 322 231 322 231 284 231 c 2,20,-1
 144 231 l 1,13,-1
324 327.5 m 128,-1,22
 347 348 347 348 347 376.5 c 128,-1,23
 347 405 347 405 324 427 c 128,-1,24
 301 449 301 449 242 449 c 2,25,-1
 144 449 l 1,26,-1
 144 307 l 1,27,-1
 242 307 l 2,28,21
 301 307 301 307 324 327.5 c 128,-1,22
EndSplineSet
EndChar

StartChar: afii10068
Encoding: 153 1075 156
Width: 390
GlyphClass: 2
Flags: W
LayerCount: 2
Fore
SplineSet
60 524 m 1,0,-1
 370 524 l 1,1,-1
 370 448 l 1,2,-1
 144 448 l 1,3,-1
 144 0 l 1,4,-1
 60 0 l 1,5,-1
 60 524 l 1,0,-1
EndSplineSet
EndChar

StartChar: afii10069
Encoding: 154 1076 157
Width: 582
GlyphClass: 2
Flags: W
LayerCount: 2
Fore
SplineSet
193 76 m 1,0,-1
 414 76 l 1,1,-1
 414 448 l 1,2,-1
 242 448 l 1,3,-1
 242 389 l 2,4,5
 242 165 242 165 193 76 c 1,0,-1
77 64 m 1,6,7
 125 69 125 69 142 192.5 c 128,-1,8
 159 316 159 316 159 524 c 1,9,-1
 498 524 l 1,10,-1
 498 64 l 1,11,-1
 562 64 l 1,12,-1
 562 -120 l 1,13,-1
 492 -120 l 1,14,-1
 492 0 l 1,15,-1
 90 0 l 1,16,-1
 90 -120 l 1,17,-1
 20 -120 l 1,18,-1
 20 64 l 1,19,-1
 77 64 l 1,6,7
EndSplineSet
EndChar

StartChar: afii10072
Encoding: 156 1078 159
Width: 765
GlyphClass: 2
Flags: W
LayerCount: 2
Fore
SplineSet
424 524 m 1,0,-1
 424 323 l 1,1,-1
 616 524 l 1,2,-1
 723 524 l 1,3,-1
 481 274 l 1,4,-1
 755 0 l 1,5,-1
 649 0 l 1,6,-1
 424 226 l 1,7,-1
 424 0 l 1,8,-1
 341 0 l 1,9,-1
 341 226 l 1,10,-1
 116 0 l 1,11,-1
 10 0 l 1,12,-1
 284 274 l 1,13,-1
 42 524 l 1,14,-1
 149 524 l 1,15,-1
 341 323 l 1,16,-1
 341 524 l 1,17,-1
 424 524 l 1,0,-1
EndSplineSet
EndChar

StartChar: afii10073
Encoding: 157 1079 160
Width: 485
GlyphClass: 2
Flags: W
LayerCount: 2
Fore
SplineSet
118 156 m 1,0,1
 124 109 124 109 150.5 81.5 c 128,-1,2
 177 54 177 54 238.5 54 c 128,-1,3
 300 54 300 54 332 76.5 c 128,-1,4
 364 99 364 99 364 133 c 128,-1,5
 364 167 364 167 334.5 194 c 128,-1,6
 305 221 305 221 262 221 c 2,7,-1
 188 221 l 1,8,-1
 188 297 l 1,9,-1
 250 297 l 2,10,11
 298 297 298 297 322.5 323.5 c 128,-1,12
 347 350 347 350 347 384.5 c 128,-1,13
 347 419 347 419 317 440.5 c 128,-1,14
 287 462 287 462 236 462 c 0,15,16
 134 462 134 462 131 378 c 1,17,-1
 43 378 l 1,18,19
 44 455 44 455 93 497 c 128,-1,20
 142 539 142 539 233 539 c 128,-1,21
 324 539 324 539 379 495.5 c 128,-1,22
 434 452 434 452 434 378 c 128,-1,23
 434 304 434 304 369 267 c 1,24,25
 455 229 455 229 455 148 c 128,-1,26
 455 67 455 67 396.5 22 c 128,-1,27
 338 -23 338 -23 239 -23 c 0,28,29
 36 -23 36 -23 30 156 c 1,30,-1
 118 156 l 1,0,1
EndSplineSet
EndChar

StartChar: afii10074
Encoding: 158 1080 161
Width: 547
GlyphClass: 2
Flags: W
LayerCount: 2
Fore
SplineSet
60 524 m 1,0,-1
 144 524 l 1,1,-1
 144 111 l 1,2,-1
 379 524 l 1,3,-1
 487 524 l 1,4,-1
 487 0 l 1,5,-1
 404 0 l 1,6,-1
 404 413 l 1,7,-1
 169 0 l 1,8,-1
 60 0 l 1,9,-1
 60 524 l 1,0,-1
EndSplineSet
EndChar

StartChar: afii10076
Encoding: 160 1082 163
Width: 484
GlyphClass: 2
Flags: W
LayerCount: 2
Fore
SplineSet
143 524 m 1,0,-1
 143 312 l 1,1,-1
 355 524 l 1,2,-1
 451 524 l 1,3,-1
 200 274 l 1,4,-1
 474 0 l 1,5,-1
 368 0 l 1,6,-1
 143 226 l 1,7,-1
 143 0 l 1,8,-1
 60 0 l 1,9,-1
 60 524 l 1,10,-1
 143 524 l 1,0,-1
EndSplineSet
EndChar

StartChar: afii10077
Encoding: 161 1083 164
Width: 497
GlyphClass: 2
Flags: W
LayerCount: 2
Fore
SplineSet
98 524 m 1,0,-1
 437 524 l 1,1,-1
 437 0 l 1,2,-1
 353 0 l 1,3,-1
 353 448 l 1,4,-1
 181 448 l 1,5,-1
 181 350 l 2,6,7
 181 111.96969697 181 111.96969697 117.5 35 c 0,8,9
 80.375 -10 80.375 -10 20 -10 c 1,10,-1
 20 70 l 1,11,12
 58.8571428571 70 58.8571428571 70 74 123 c 0,13,14
 92.1294117647 186.452941176 92.1294117647 186.452941176 94.5647058824 246.726470588 c 0,15,16
 98 331.75 98 331.75 98 441 c 2,17,-1
 98 524 l 1,0,-1
EndSplineSet
EndChar

StartChar: afii10078
Encoding: 162 1084 165
Width: 598
GlyphClass: 2
Flags: W
LayerCount: 2
Fore
SplineSet
60 524 m 1,0,-1
 164 524 l 1,1,-1
 299 198 l 1,2,-1
 434 524 l 1,3,-1
 538 524 l 1,4,-1
 538 0 l 1,5,-1
 454 0 l 1,6,-1
 454 363 l 1,7,-1
 324 40 l 1,8,-1
 274 40 l 1,9,-1
 144 363 l 1,10,-1
 144 0 l 1,11,-1
 60 0 l 1,12,-1
 60 524 l 1,0,-1
EndSplineSet
EndChar

StartChar: afii10079
Encoding: 163 1085 166
Width: 538
GlyphClass: 2
Flags: W
LayerCount: 2
Fore
SplineSet
60 524 m 1,0,-1
 144 524 l 1,1,-1
 144 309 l 1,2,-1
 394 309 l 1,3,-1
 394 524 l 1,4,-1
 478 524 l 1,5,-1
 478 0 l 1,6,-1
 394 0 l 1,7,-1
 394 233 l 1,8,-1
 144 233 l 1,9,-1
 144 0 l 1,10,-1
 60 0 l 1,11,-1
 60 524 l 1,0,-1
EndSplineSet
EndChar

StartChar: afii10081
Encoding: 165 1087 168
Width: 537
GlyphClass: 2
Flags: W
LayerCount: 2
Fore
SplineSet
60 524 m 1,0,-1
 477 524 l 1,1,-1
 477 0 l 1,2,-1
 393 0 l 1,3,-1
 393 448 l 1,4,-1
 144 448 l 1,5,-1
 144 0 l 1,6,-1
 60 0 l 1,7,-1
 60 524 l 1,0,-1
EndSplineSet
EndChar

StartChar: afii10084
Encoding: 168 1090 171
Width: 412
GlyphClass: 2
Flags: W
LayerCount: 2
Fore
SplineSet
20 524 m 1,0,-1
 392 524 l 1,1,-1
 392 448 l 1,2,-1
 248 448 l 1,3,-1
 248 0 l 1,4,-1
 164 0 l 1,5,-1
 164 448 l 1,6,-1
 20 448 l 1,7,-1
 20 524 l 1,0,-1
EndSplineSet
EndChar

StartChar: afii10088
Encoding: 171 1094 174
Width: 558
GlyphClass: 2
Flags: W
LayerCount: 2
Fore
SplineSet
60 0 m 1,0,-1
 60 524 l 1,1,-1
 144 524 l 1,2,-1
 144 76 l 1,3,-1
 393 76 l 1,4,-1
 393 524 l 1,5,-1
 477 524 l 1,6,-1
 477 64 l 1,7,-1
 538 64 l 1,8,-1
 538 -120 l 1,9,-1
 468 -120 l 1,10,-1
 468 0 l 1,11,-1
 60 0 l 1,0,-1
EndSplineSet
EndChar

StartChar: afii10089
Encoding: 172 1095 175
Width: 490
GlyphClass: 2
Flags: W
LayerCount: 2
Fore
SplineSet
50 524 m 1,0,-1
 134 524 l 1,1,-1
 134 327 l 2,2,3
 134 302 134 302 151 289.5 c 128,-1,4
 168 277 168 277 192 277 c 2,5,-1
 346 277 l 1,6,-1
 346 524 l 1,7,-1
 430 524 l 1,8,-1
 430 0 l 1,9,-1
 346 0 l 1,10,-1
 346 201 l 1,11,-1
 195 201 l 2,12,13
 136 201 136 201 93 234 c 128,-1,14
 50 267 50 267 50 324 c 2,15,-1
 50 524 l 1,0,-1
EndSplineSet
EndChar

StartChar: afii10090
Encoding: 173 1096 176
Width: 672
GlyphClass: 2
Flags: W
LayerCount: 2
Fore
SplineSet
378 76 m 1,0,-1
 528 76 l 1,1,-1
 528 524 l 1,2,-1
 612 524 l 1,3,-1
 612 0 l 1,4,-1
 60 0 l 1,5,-1
 60 524 l 1,6,-1
 144 524 l 1,7,-1
 144 76 l 1,8,-1
 294 76 l 1,9,-1
 294 524 l 1,10,-1
 378 524 l 1,11,-1
 378 76 l 1,0,-1
EndSplineSet
EndChar

StartChar: afii10092
Encoding: 174 1098 177
Width: 646
GlyphClass: 2
Flags: W
LayerCount: 2
Fore
SplineSet
287 76 m 1,0,-1
 411 76 l 2,1,2
 477 76 477 76 501 99.5 c 128,-1,3
 525 123 525 123 525 170 c 0,4,5
 525 265 525 265 411 265 c 2,6,-1
 287 265 l 1,7,-1
 287 76 l 1,0,-1
203 0 m 1,8,-1
 203 448 l 1,9,-1
 20 448 l 1,10,-1
 20 524 l 1,11,-1
 287 524 l 1,12,-1
 287 341 l 1,13,-1
 405 341 l 2,14,15
 512 341 512 341 564 295 c 128,-1,16
 616 249 616 249 616 171.5 c 128,-1,17
 616 94 616 94 569 47 c 128,-1,18
 522 0 522 0 449 0 c 2,19,-1
 203 0 l 1,8,-1
EndSplineSet
EndChar

StartChar: afii10093
Encoding: 175 1099 178
Width: 680
GlyphClass: 2
Flags: W
LayerCount: 2
Fore
SplineSet
610 524 m 1,0,-1
 610 0 l 1,1,-1
 527 0 l 1,2,-1
 527 524 l 1,3,-1
 610 524 l 1,0,-1
144 76 m 1,4,-1
 268 76 l 2,5,6
 334 76 334 76 358 99.5 c 128,-1,7
 382 123 382 123 382 170 c 0,8,9
 382 265 382 265 268 265 c 2,10,-1
 144 265 l 1,11,-1
 144 76 l 1,4,-1
144 524 m 1,12,-1
 144 341 l 1,13,-1
 260 341 l 2,14,15
 368 341 368 341 420.5 295.5 c 128,-1,16
 473 250 473 250 473 172 c 128,-1,17
 473 94 473 94 426 47 c 128,-1,18
 379 0 379 0 306 0 c 2,19,-1
 60 0 l 1,20,-1
 60 524 l 1,21,-1
 144 524 l 1,12,-1
EndSplineSet
EndChar

StartChar: afii10094
Encoding: 176 1100 179
Width: 503
GlyphClass: 2
Flags: W
LayerCount: 2
Fore
SplineSet
144 76 m 1,0,-1
 268 76 l 2,1,2
 334 76 334 76 358 99.5 c 128,-1,3
 382 123 382 123 382 170 c 0,4,5
 382 265 382 265 268 265 c 2,6,-1
 144 265 l 1,7,-1
 144 76 l 1,0,-1
144 524 m 1,8,-1
 144 341 l 1,9,-1
 260 341 l 2,10,11
 368 341 368 341 420.5 295.5 c 128,-1,12
 473 250 473 250 473 172 c 128,-1,13
 473 94 473 94 426 47 c 128,-1,14
 379 0 379 0 306 0 c 2,15,-1
 60 0 l 1,16,-1
 60 524 l 1,17,-1
 144 524 l 1,8,-1
EndSplineSet
EndChar

StartChar: afii10095
Encoding: 177 1101 180
Width: 506
GlyphClass: 2
Flags: W
LayerCount: 2
Fore
SplineSet
36 348 m 1,0,1
 43 440 43 440 97.5 489.5 c 128,-1,2
 152 539 152 539 250.5 539 c 128,-1,3
 349 539 349 539 412.5 461 c 128,-1,4
 476 383 476 383 476 254.5 c 128,-1,5
 476 126 476 126 413.5 51.5 c 128,-1,6
 351 -23 351 -23 250.5 -23 c 128,-1,7
 150 -23 150 -23 94 30.5 c 128,-1,8
 38 84 38 84 30 180 c 1,9,-1
 114 180 l 1,10,11
 135 54 135 54 242 54 c 0,12,13
 307 54 307 54 345.5 101 c 128,-1,14
 384 148 384 148 389 232 c 1,15,-1
 162 232 l 1,16,-1
 162 309 l 1,17,-1
 386 309 l 1,18,19
 375 382 375 382 338.5 422 c 128,-1,20
 302 462 302 462 247 462 c 128,-1,21
 192 462 192 462 160 432.5 c 128,-1,22
 128 403 128 403 120 348 c 1,23,-1
 36 348 l 1,0,1
EndSplineSet
EndChar

StartChar: afii10097
Encoding: 178 1103 181
Width: 529
GlyphClass: 2
Flags: W
LayerCount: 2
Fore
SplineSet
157 364 m 2,0,1
 157 294 157 294 248 294 c 2,2,-1
 385 294 l 1,3,-1
 385 449 l 1,4,-1
 248 449 l 2,5,6
 206 449 206 449 181.5 427.5 c 128,-1,7
 157 406 157 406 157 370 c 2,8,-1
 157 364 l 2,0,1
66 375 m 0,9,10
 66 425.636363636 66 425.636363636 96.5 470 c 0,11,12
 113 494 113 494 145 509 c 128,-1,13
 177 524 177 524 221 524 c 2,14,-1
 469 524 l 1,15,-1
 469 0 l 1,16,-1
 385 0 l 1,17,-1
 385 218 l 1,18,-1
 316 218 l 1,19,-1
 113 0 l 1,20,-1
 10 0 l 1,21,-1
 215 221 l 1,22,23
 148 227 148 227 107 265 c 128,-1,24
 66 303 66 303 66 375 c 0,9,10
EndSplineSet
EndChar

StartChar: afii10108
Encoding: 181 1115 184
Width: 579
GlyphClass: 2
Flags: W
LayerCount: 2
Fore
SplineSet
436 348 m 2,0,1
 436 403 436 403 403 427 c 128,-1,2
 370 451 370 451 328 451 c 0,3,4
 262 451 262 451 224.5 402 c 128,-1,5
 187 353 187 353 187 275 c 2,6,-1
 187 0 l 1,7,-1
 104 0 l 1,8,-1
 104 596 l 1,9,-1
 20 596 l 1,10,-1
 20 660 l 1,11,-1
 104 660 l 1,12,-1
 104 729 l 1,13,-1
 187 729 l 1,14,-1
 187 660 l 1,15,-1
 358 660 l 1,16,-1
 358 596 l 1,17,-1
 187 596 l 1,18,-1
 187 437 l 1,19,20
 200 453 200 453 209 463 c 128,-1,21
 218 473 218 473 239 489.5 c 0,22,23
 282.909090909 524 282.909090909 524 355.954545455 524 c 128,-1,24
 429 524 429 524 474 487 c 128,-1,25
 519 450 519 450 519 382 c 2,26,-1
 519 0 l 1,27,-1
 436 0 l 1,28,-1
 436 348 l 2,0,1
EndSplineSet
EndChar

StartChar: afii10194
Encoding: 182 1123 185
Width: 636
GlyphClass: 2
Flags: W
LayerCount: 2
Fore
SplineSet
277 448 m 1,0,-1
 277 341 l 1,1,-1
 395 341 l 2,2,3
 502 341 502 341 554 295 c 128,-1,4
 606 249 606 249 606 171.5 c 128,-1,5
 606 94 606 94 559 47 c 128,-1,6
 512 0 512 0 439 0 c 2,7,-1
 193 0 l 1,8,-1
 193 448 l 1,9,-1
 20 448 l 1,10,-1
 20 524 l 1,11,-1
 193 524 l 1,12,-1
 193 648 l 1,13,-1
 277 648 l 1,14,-1
 277 524 l 1,15,-1
 453 524 l 1,16,-1
 453 448 l 1,17,-1
 277 448 l 1,0,-1
277 76 m 1,18,-1
 401 76 l 2,19,20
 467 76 467 76 491 99.5 c 128,-1,21
 515 123 515 123 515 170 c 0,22,23
 515 265 515 265 401 265 c 2,24,-1
 277 265 l 1,25,-1
 277 76 l 1,18,-1
EndSplineSet
EndChar

StartChar: uni049A
Encoding: 183 1178 186
Width: 658
GlyphClass: 2
Flags: W
LayerCount: 2
Fore
SplineSet
549 74 m 1,0,-1
 622 74 l 1,1,-1
 622 -135 l 1,2,-1
 542 -135 l 1,3,-1
 542 0 l 1,4,-1
 498 0 l 1,5,-1
 173 333 l 1,6,-1
 173 0 l 1,7,-1
 80 0 l 1,8,-1
 80 729 l 1,9,-1
 173 729 l 1,10,-1
 173 423 l 1,11,-1
 478 729 l 1,12,-1
 589 729 l 1,13,-1
 244 384 l 1,14,-1
 549 74 l 1,0,-1
EndSplineSet
EndChar

StartChar: uni049B
Encoding: 184 1179 187
Width: 494
GlyphClass: 2
Flags: W
LayerCount: 2
Fore
SplineSet
410 64 m 1,0,-1
 474 64 l 1,1,-1
 474 -120 l 1,2,-1
 404 -120 l 1,3,-1
 404 0 l 1,4,-1
 368 0 l 1,5,-1
 143 226 l 1,6,-1
 143 0 l 1,7,-1
 60 0 l 1,8,-1
 60 524 l 1,9,-1
 143 524 l 1,10,-1
 143 312 l 1,11,-1
 355 524 l 1,12,-1
 451 524 l 1,13,-1
 200 274 l 1,14,-1
 410 64 l 1,0,-1
EndSplineSet
EndChar

StartChar: uni04A1
Encoding: 185 1185 188
Width: 658
GlyphClass: 2
Flags: W
LayerCount: 2
Fore
SplineSet
204 448 m 1,0,-1
 20 448 l 1,1,-1
 20 524 l 1,2,-1
 287 524 l 1,3,-1
 287 302 l 1,4,-1
 509 524 l 1,5,-1
 616 524 l 1,6,-1
 344 264 l 1,7,-1
 648 0 l 1,8,-1
 545 0 l 1,9,-1
 287 216 l 1,10,-1
 287 0 l 1,11,-1
 204 0 l 1,12,-1
 204 448 l 1,0,-1
EndSplineSet
EndChar

StartChar: uni04A7
Encoding: 186 1191 189
Width: 790
GlyphClass: 2
Flags: W
LayerCount: 2
Fore
SplineSet
559 -70 m 1,0,1
 600 -70 600 -70 633.5 -46 c 128,-1,2
 667 -22 667 -22 667 33 c 2,3,-1
 667 174 l 2,4,5
 667 231 667 231 649 254 c 128,-1,6
 631 277 631 277 589 277 c 0,7,8
 528 277 528 277 502.5 231.5 c 128,-1,9
 477 186 477 186 477 100 c 2,10,-1
 477 0 l 1,11,-1
 393 0 l 1,12,-1
 393 448 l 1,13,-1
 144 448 l 1,14,-1
 144 0 l 1,15,-1
 60 0 l 1,16,-1
 60 524 l 1,17,-1
 477 524 l 1,18,-1
 477 263 l 1,19,20
 493 311 493 311 525.5 330.5 c 128,-1,21
 558 350 558 350 623 350 c 0,22,23
 750 350 750 350 750 207 c 2,24,-1
 750 0 l 2,25,26
 750 -66 750 -66 705.5 -104.5 c 128,-1,27
 661 -143 661 -143 585 -143 c 2,28,-1
 559 -143 l 1,29,-1
 559 -70 l 1,0,1
EndSplineSet
EndChar

StartChar: uni04B7
Encoding: 187 1207 190
Width: 501
GlyphClass: 2
Flags: W
LayerCount: 2
Fore
SplineSet
411 0 m 1,0,-1
 336 0 l 1,1,-1
 336 191 l 1,2,-1
 195 191 l 2,3,4
 130 191 130 191 85 229 c 128,-1,5
 40 267 40 267 40 334 c 2,6,-1
 40 524 l 1,7,-1
 124 524 l 1,8,-1
 124 337 l 2,9,10
 124 267 124 267 192 267 c 2,11,-1
 336 267 l 1,12,-1
 336 524 l 1,13,-1
 420 524 l 1,14,-1
 420 64 l 1,15,-1
 481 64 l 1,16,-1
 481 -120 l 1,17,-1
 411 -120 l 1,18,-1
 411 0 l 1,0,-1
EndSplineSet
EndChar

StartChar: uni04C0
Encoding: 188 1216 191
Width: 254
GlyphClass: 2
Flags: W
LayerCount: 2
Fore
SplineSet
174 729 m 1,0,-1
 174 0 l 1,1,-1
 80 0 l 1,2,-1
 80 729 l 1,3,-1
 174 729 l 1,0,-1
EndSplineSet
EndChar

StartChar: uni0540
Encoding: 192 1344 195
Width: 585
GlyphClass: 2
Flags: W
LayerCount: 2
Fore
SplineSet
501 725 m 0,0,1
 545 725 545 725 564 710 c 1,2,-1
 564 607 l 1,3,4
 540 637 540 637 511 639 c 1,5,6
 474 639 474 639 435 593 c 2,7,-1
 164 265 l 1,8,-1
 548 89 l 1,9,-1
 548 -74 l 1,10,-1
 516 -74 l 1,11,12
 503.592976856 -9.89704708699 503.592976856 -9.89704708699 459.5 22 c 0,13,14
 428.295081967 44.5737704918 428.295081967 44.5737704918 398 59 c 2,15,-1
 20 229 l 1,16,-1
 392 669 l 1,17,18
 437 725 437 725 501 725 c 0,0,1
EndSplineSet
EndChar

StartChar: uni0561
Encoding: 193 1377 196
Width: 833
GlyphClass: 2
Flags: W
LayerCount: 2
Fore
SplineSet
552 66 m 0,0,1
 621 66 621 66 650.5 113.5 c 128,-1,2
 680 161 680 161 680 251 c 2,3,-1
 680 524 l 1,4,-1
 768 524 l 1,5,-1
 768 1 l 1,6,-1
 689 1 l 1,7,-1
 689 74 l 1,8,9
 668 38 668 38 626 14 c 128,-1,10
 584 -10 584 -10 532 -10 c 0,11,12
 416 -10 416 -10 386 81 c 1,13,14
 325 -10 325 -10 226 -10 c 0,15,16
 65 -10 65 -10 65 164 c 2,17,-1
 65 524 l 1,18,-1
 153 524 l 1,19,-1
 153 193 l 2,20,21
 153 130 153 130 171 98 c 128,-1,22
 189 66 189 66 245 66 c 0,23,24
 289.6 66 289.6 66 326.5 93 c 0,25,26
 372 126.292682927 372 126.292682927 372 219 c 2,27,-1
 372 524 l 1,28,-1
 460 524 l 1,29,-1
 460 183 l 2,30,31
 460 126 460 126 481 96 c 128,-1,32
 502 66 502 66 552 66 c 0,0,1
EndSplineSet
EndChar

StartChar: uni0565
Encoding: 194 1381 197
Width: 546
GlyphClass: 2
Flags: W
LayerCount: 2
Fore
SplineSet
261 65 m 0,0,1
 399 65 399 65 399 236 c 2,2,-1
 399 333 l 1,3,-1
 486 333 l 1,4,-1
 486 0 l 1,5,-1
 407 0 l 1,6,-1
 407 74 l 1,7,8
 349 -11 349 -11 242 -11 c 0,9,10
 138.666666667 -11 138.666666667 -11 99 48.5 c 0,11,12
 67.9622641509 95.0566037736 67.9622641509 95.0566037736 65.5 164 c 0,13,14
 65 178 65 178 65 200 c 2,15,-1
 65 719 l 1,16,-1
 153 721 l 1,17,-1
 153 483 l 1,18,-1
 490 483 l 1,19,-1
 490 417 l 1,20,-1
 153 417 l 1,21,-1
 153 204 l 2,22,23
 153 136 153 136 176.5 100.5 c 128,-1,24
 200 65 200 65 261 65 c 0,0,1
EndSplineSet
EndChar

StartChar: uni0575
Encoding: 195 1397 198
Width: 249
GlyphClass: 2
Flags: W
LayerCount: 2
Fore
SplineSet
-3 -116 m 1,0,1
 24 -123 24 -123 38.5 -123 c 128,-1,2
 53 -123 53 -123 63.5 -117 c 128,-1,3
 74 -111 74 -111 79.5 -103 c 128,-1,4
 85 -95 85 -95 87.5 -79.5 c 0,5,6
 91 -57.8 91 -57.8 91 -21 c 2,7,-1
 91 524 l 1,8,-1
 179 524 l 1,9,-1
 179 -18 l 2,10,11
 179 -112 179 -112 150.5 -156 c 128,-1,12
 122 -200 122 -200 49 -200 c 0,13,14
 7 -200 7 -200 -20 -191 c 1,15,-1
 -3 -116 l 1,0,1
EndSplineSet
EndChar

StartChar: uni0576
Encoding: 196 1398 199
Width: 527
GlyphClass: 2
Flags: W
LayerCount: 2
Fore
SplineSet
255 63 m 0,0,1
 350 63 350 63 374 198 c 1,2,-1
 374 524 l 1,3,-1
 462 524 l 1,4,-1
 462 0 l 1,5,-1
 382 0 l 1,6,-1
 382 83 l 1,7,8
 295 -10 295 -10 216 -10 c 0,9,10
 151 -10 151 -10 110.5 25 c 128,-1,11
 70 60 70 60 70 112 c 2,12,-1
 70 556 l 2,13,14
 70 603.675675676 70 603.675675676 105.5 667 c 0,15,16
 124 700 124 700 162.5 722.5 c 128,-1,17
 201 745 201 745 252 745 c 2,18,-1
 317 745 l 1,19,-1
 317 684 l 1,20,21
 222 684 222 684 190 654 c 128,-1,22
 158 624 158 624 158 556 c 2,23,-1
 158 148 l 2,24,25
 158 100 158 100 182.5 81.5 c 128,-1,26
 207 63 207 63 255 63 c 0,0,1
EndSplineSet
EndChar

StartChar: uni0580
Encoding: 197 1408 200
Width: 552
GlyphClass: 2
Flags: W
LayerCount: 2
Fore
SplineSet
291 460 m 0,0,1
 153 460 153 460 153 283 c 2,2,-1
 153 -200 l 1,3,-1
 65 -200 l 1,4,-1
 65 524 l 1,5,-1
 144 524 l 1,6,-1
 144 447 l 1,7,8
 204 535 204 535 309 535 c 0,9,10
 421.223880597 535 421.223880597 535 457 464.5 c 0,11,12
 486 407.352941176 486 407.352941176 486 326 c 2,13,-1
 486 -1 l 1,14,-1
 398 -1 l 1,15,-1
 398 293 l 2,16,17
 398 393.333333333 398 393.333333333 373.5 426 c 0,18,19
 348 460 348 460 291 460 c 0,0,1
EndSplineSet
EndChar

StartChar: afii57793
Encoding: 198 1460 201
Width: 0
GlyphClass: 2
Flags: W
LayerCount: 2
Fore
SplineSet
265 -60 m 1,0,-1
 336 -60 l 1,1,-1
 336 -131 l 1,2,-1
 265 -131 l 1,3,-1
 265 -60 l 1,0,-1
EndSplineSet
EndChar

StartChar: afii57665
Encoding: 199 1489 202
Width: 591
GlyphClass: 2
Flags: W
LayerCount: 2
Fore
SplineSet
405 371 m 2,0,1
 405 438 405 438 356.5 481 c 128,-1,2
 308 524 308 524 197 524 c 2,3,-1
 58 524 l 1,4,-1
 58 600 l 1,5,-1
 203 600 l 2,6,7
 284 600 284 600 343 580 c 128,-1,8
 402 560 402 560 433 526.5 c 0,9,10
 492 462.741935484 492 462.741935484 492 378 c 2,11,-1
 492 76 l 1,12,-1
 566 76 l 1,13,-1
 566 0 l 1,14,-1
 58 0 l 1,15,-1
 58 76 l 1,16,-1
 405 76 l 1,17,-1
 405 371 l 2,0,1
EndSplineSet
EndChar

StartChar: afii57667
Encoding: 200 1491 203
Width: 598
GlyphClass: 2
Flags: W
LayerCount: 2
Fore
SplineSet
460 524 m 1,0,-1
 460 0 l 1,1,-1
 373 0 l 1,2,-1
 373 524 l 1,3,-1
 38 524 l 1,4,-1
 38 600 l 1,5,-1
 543 600 l 1,6,-1
 543 524 l 1,7,-1
 460 524 l 1,0,-1
EndSplineSet
EndChar

StartChar: afii57673
Encoding: 201 1497 204
Width: 200
GlyphClass: 2
Flags: W
LayerCount: 2
Fore
SplineSet
58 600 m 1,0,-1
 145 600 l 1,1,-1
 145 321 l 1,2,-1
 58 286 l 1,3,-1
 58 600 l 1,0,-1
EndSplineSet
EndChar

StartChar: afii57682
Encoding: 202 1506 205
Width: 587
GlyphClass: 2
Flags: W
LayerCount: 2
Fore
SplineSet
205 67 m 1,0,-1
 85 600 l 1,1,-1
 174 600 l 1,2,-1
 289 88 l 1,3,-1
 304 92 l 1,4,5
 366 118 366 118 384 131.5 c 128,-1,6
 402 145 402 145 408.5 151.5 c 128,-1,7
 415 158 415 158 423 177 c 0,8,9
 431.549618321 197.305343511 431.549618321 197.305343511 444 256 c 1,10,-1
 444 600 l 1,11,-1
 531 600 l 1,12,-1
 531 250 l 1,13,14
 521 197 521 197 511.5 168 c 128,-1,15
 502 139 502 139 480.5 110.5 c 128,-1,16
 459 82 459 82 425.5 62.5 c 128,-1,17
 392 43 392 43 334 21 c 1,18,-1
 36 -55 l 1,19,-1
 37 24 l 1,20,-1
 205 67 l 1,0,-1
EndSplineSet
EndChar

StartChar: afii57688
Encoding: 203 1512 206
Width: 547
GlyphClass: 2
Flags: W
LayerCount: 2
Fore
SplineSet
244 600 m 2,0,1
 361 600 361 600 428 541.5 c 128,-1,2
 495 483 495 483 495 378 c 2,3,-1
 495 0 l 1,4,-1
 408 0 l 1,5,-1
 408 372 l 2,6,7
 408 450 408 450 368.5 487 c 128,-1,8
 329 524 329 524 237 524 c 2,9,-1
 37 524 l 1,10,-1
 37 600 l 1,11,-1
 244 600 l 2,0,1
EndSplineSet
EndChar

StartChar: afii57689
Encoding: 204 1513 207
Width: 776
GlyphClass: 2
Flags: W
LayerCount: 2
Fore
SplineSet
246 300 m 1,0,1
 344 304 344 304 346 393 c 1,2,-1
 346 600 l 1,3,-1
 433 600 l 1,4,-1
 433 389 l 2,5,6
 433 318 433 318 377 271 c 128,-1,7
 321 224 321 224 251 224 c 2,8,-1
 151 224 l 1,9,10
 164 168 164 168 224 122 c 128,-1,11
 284 76 284 76 346 76 c 2,12,-1
 433 76 l 2,13,14
 499 76 499 76 566 131 c 128,-1,15
 633 186 633 186 633 262 c 2,16,-1
 633 600 l 1,17,-1
 720 600 l 1,18,-1
 720 257 l 2,19,20
 720 169 720 169 637 86 c 128,-1,21
 554 3 554 3 431 0 c 1,22,-1
 349 0 l 1,23,24
 224 3 224 3 142 85 c 128,-1,25
 60 167 60 167 60 257 c 2,26,-1
 60 600 l 1,27,-1
 147 600 l 1,28,-1
 147 300 l 1,29,-1
 246 300 l 1,0,1
EndSplineSet
EndChar

StartChar: afii57690
Encoding: 205 1514 208
Width: 687
GlyphClass: 2
Flags: W
LayerCount: 2
Fore
SplineSet
548 372 m 2,0,1
 548 524 548 524 377 524 c 2,2,-1
 272 524 l 1,3,-1
 272 224 l 2,4,5
 272 107 272 107 214 53.5 c 128,-1,6
 156 0 156 0 35 0 c 1,7,-1
 35 76 l 1,8,9
 112 76 112 76 148.5 110 c 128,-1,10
 185 144 185 144 185 221 c 2,11,-1
 185 524 l 1,12,-1
 125 524 l 1,13,-1
 125 600 l 1,14,-1
 384 600 l 2,15,16
 505 600 505 600 570 543.5 c 128,-1,17
 635 487 635 487 635 378 c 2,18,-1
 635 0 l 1,19,-1
 548 0 l 1,20,-1
 548 372 l 2,0,1
EndSplineSet
EndChar

StartChar: afii57415
Encoding: 208 1575 211
Width: 286
GlyphClass: 2
Flags: W
AnchorPoint: "Anchor-1" 140 -70 basechar 0
AnchorPoint: "Anchor-0" 150 840 basechar 0
LayerCount: 2
Fore
SplineSet
182 628 m 1,0,1
 190 425 190 425 190 313 c 128,-1,2
 190 201 190 201 181 0 c 1,3,-1
 126 -10 l 1,4,5
 121.398192451 374.250930356 121.398192451 374.250930356 93 691 c 1,6,-1
 92 708 l 1,7,8
 92 746 92 746 111 768 c 128,-1,9
 130 790 130 790 172 798 c 1,10,11
 184 752 184 752 194 723 c 2,12,-1
 215 656 l 1,13,-1
 182 628 l 1,0,1
EndSplineSet
Substitution2: "'fina' Terminal Forms in Arabic lookup 5 subtable" afii57415.fina
EndChar

StartChar: afii57423
Encoding: 214 1583 217
Width: 498
GlyphClass: 2
Flags: W
AnchorPoint: "Anchor-1" 225 -80 basechar 0
AnchorPoint: "Anchor-0" 175 600 basechar 0
LayerCount: 2
Fore
SplineSet
62 130 m 1,0,1
 122 82 122 82 216 82 c 128,-1,2
 310 82 310 82 390 106 c 1,3,4
 370 162 370 162 314 265 c 2,5,-1
 293 304 l 1,6,7
 260 359 260 359 260 395.5 c 0,8,9
 260 460.666666667 260 460.666666667 324 482 c 1,10,11
 344.20754717 425.867924528 344.20754717 425.867924528 383.103773585 341.933962264 c 128,-1,12
 422 258 422 258 435 223 c 128,-1,13
 448 188 448 188 448 155 c 128,-1,14
 448 122 448 122 406 37 c 1,15,16
 314 -10 314 -10 188 -10 c 0,17,18
 116 -10 116 -10 78 10 c 1,19,20
 41 28 41 28 41 66 c 0,21,22
 41 104.8 41 104.8 62 130 c 1,0,1
EndSplineSet
Substitution2: "'fina' Terminal Forms in Arabic lookup 5 subtable" afii57423.fina
EndChar

StartChar: afii57425
Encoding: 216 1585 219
Width: 448
GlyphClass: 2
Flags: W
AnchorPoint: "Anchor-1" 180 -300 basechar 0
AnchorPoint: "Anchor-0" 200 530 basechar 0
LayerCount: 2
Fore
SplineSet
-24 -148 m 1,0,1
 49.5 -162 49.5 -162 89 -162 c 0,2,3
 179 -162 179 -162 243.5 -108 c 128,-1,4
 308 -54 308 -54 342 49 c 1,5,6
 328.402777778 83.6111111111 328.402777778 83.6111111111 295.701388889 140.805555556 c 0,7,8
 224 266.210660437 224 266.210660437 224 316 c 0,9,10
 224 346 224 346 243 365 c 128,-1,11
 262 384 262 384 295 400 c 1,12,13
 303 368 303 368 334 286 c 0,14,15
 387 145.806451613 387 145.806451613 387 87 c 0,16,17
 387 -7 387 -7 351.5 -86.5 c 128,-1,18
 316 -166 316 -166 254 -211 c 128,-1,19
 192 -256 192 -256 116 -256 c 0,20,21
 89 -256 89 -256 42 -236 c 128,-1,22
 -5 -216 -5 -216 -41 -188 c 1,23,-1
 -24 -148 l 1,0,1
EndSplineSet
Substitution2: "'fina' Terminal Forms in Arabic lookup 5 subtable" afii57425.fina
EndChar

StartChar: afii57427
Encoding: 218 1587 221
Width: 1220
GlyphClass: 2
Flags: W
AnchorPoint: "Anchor-1" 840 -120 basechar 0
AnchorPoint: "Anchor-0" 840 440 basechar 0
LayerCount: 2
Fore
SplineSet
470 -304 m 128,-1,1
 388 -348 388 -348 292.5 -348 c 128,-1,2
 197 -348 197 -348 139.5 -289 c 128,-1,3
 82 -230 82 -230 82 -122 c 0,4,5
 82 -84 82 -84 86 -56 c 128,-1,6
 90 -28 90 -28 106 34 c 1,7,-1
 150 24 l 1,8,9
 136 -28 136 -28 136 -62 c 0,10,11
 136 -151 136 -151 180 -200 c 128,-1,12
 224 -249 224 -249 303 -249 c 0,13,14
 361 -249 361 -249 422 -229.5 c 128,-1,15
 483 -210 483 -210 531.5 -175 c 128,-1,16
 580 -140 580 -140 600 -98 c 1,17,18
 521 75 521 75 521 135.5 c 128,-1,19
 521 196 521 196 600 240 c 1,20,21
 606 196 606 196 626 94 c 1,22,23
 664 82 664 82 717 82 c 128,-1,24
 770 82 770 82 808 94 c 1,25,26
 815 106 815 106 822 128 c 2,27,-1
 837 178 l 2,28,29
 866.336575875 274.638132296 866.336575875 274.638132296 889 287 c 0,30,31
 900 294 900 294 915 294 c 128,-1,32
 930 294 930 294 942 284 c 1,33,34
 926 251 926 251 914 210.5 c 128,-1,35
 902 170 902 170 890 131 c 1,36,37
 989.36 85 989.36 85 1102 85 c 1,38,39
 1088 138 1088 138 1060.5 208.5 c 128,-1,40
 1033 279 1033 279 1033 302.5 c 128,-1,41
 1033 326 1033 326 1055 353 c 128,-1,42
 1077 380 1077 380 1112 400 c 1,43,44
 1118 365 1118 365 1126 330 c 128,-1,45
 1134 295 1134 295 1141 261.5 c 0,46,47
 1159 175.357142857 1159 175.357142857 1159 145.678571429 c 128,-1,48
 1159 116 1159 116 1144.5 70 c 128,-1,49
 1130 24 1130 24 1113 -10 c 1,50,51
 1035 -10 1035 -10 980 0 c 128,-1,52
 925 10 925 10 857 42 c 1,53,-1
 847 22 l 2,54,55
 839 8 839 8 795.5 -1 c 128,-1,56
 752 -10 752 -10 707 -10 c 128,-1,57
 662 -10 662 -10 642 -6 c 1,58,59
 645 -31 645 -31 645 -53 c 0,60,61
 645 -125 645 -125 598.5 -192.5 c 128,-1,0
 552 -260 552 -260 470 -304 c 128,-1,1
EndSplineSet
Substitution2: "'medi' Medial Forms in Arabic lookup 7 subtable" afii57427.medi
Substitution2: "'init' Initial Forms in Arabic lookup 6 subtable" afii57427.init
Substitution2: "'fina' Terminal Forms in Arabic lookup 5 subtable" afii57427.fina
EndChar

StartChar: afii57429
Encoding: 220 1589 223
Width: 1320
GlyphClass: 2
Flags: W
AnchorPoint: "Anchor-1" 900 -80 basechar 0
AnchorPoint: "Anchor-0" 850 530 basechar 0
LayerCount: 2
Fore
SplineSet
1118 283 m 128,-1,1
 1066 320 1066 320 1012 320 c 128,-1,2
 958 320 958 320 878 263 c 128,-1,3
 798 206 798 206 708 100 c 1,4,5
 792 82 792 82 879 82 c 0,6,7
 1040.8 82 1040.8 82 1204 184 c 1,8,0
 1170 246 1170 246 1118 283 c 128,-1,1
470 -304 m 128,-1,10
 388 -348 388 -348 292.5 -348 c 128,-1,11
 197 -348 197 -348 139.5 -289 c 128,-1,12
 82 -230 82 -230 82 -122 c 0,13,14
 82 -84 82 -84 86 -56 c 128,-1,15
 90 -28 90 -28 106 34 c 1,16,-1
 150 24 l 1,17,18
 136 -28 136 -28 136 -62 c 0,19,20
 136 -151 136 -151 180 -200 c 128,-1,21
 224 -249 224 -249 303 -249 c 0,22,23
 361 -249 361 -249 422 -229.5 c 128,-1,24
 483 -210 483 -210 531.5 -175 c 128,-1,25
 580 -140 580 -140 600 -98 c 1,26,27
 521 75 521 75 521 135.5 c 128,-1,28
 521 196 521 196 600 240 c 1,29,30
 608 177 608 177 618 127 c 1,31,32
 624 124 624 124 652 114 c 1,33,34
 763 264 763 264 863.5 342 c 128,-1,35
 964 420 964 420 1046 420 c 0,36,37
 1083 420 1083 420 1135.5 389 c 128,-1,38
 1188 358 1188 358 1223 317 c 128,-1,39
 1258 276 1258 276 1258 244 c 0,40,41
 1258 91.6421052632 1258 91.6421052632 1069 24 c 0,42,43
 974 -10 974 -10 870 -10 c 0,44,45
 821 -10 821 -10 754 -2 c 128,-1,46
 687 6 687 6 639 20 c 1,47,48
 645 -24 645 -24 645 -53 c 0,49,50
 645 -125 645 -125 598.5 -192.5 c 128,-1,9
 552 -260 552 -260 470 -304 c 128,-1,10
EndSplineSet
Substitution2: "'medi' Medial Forms in Arabic lookup 7 subtable" afii57429.medi
Substitution2: "'init' Initial Forms in Arabic lookup 6 subtable" afii57429.init
Substitution2: "'fina' Terminal Forms in Arabic lookup 5 subtable" afii57429.fina
EndChar

StartChar: afii57433
Encoding: 221 1593 224
Width: 719
GlyphClass: 2
Flags: W
AnchorPoint: "Anchor-1" 170 -390 basechar 0
AnchorPoint: "Anchor-0" 240 730 basechar 0
LayerCount: 2
Fore
SplineSet
760 -256 m 1,0,1
 590.72 -348 590.72 -348 445.36 -348 c 128,-1,2
 300 -348 300 -348 217.5 -266 c 128,-1,3
 135 -184 135 -184 135 -38.5 c 128,-1,4
 135 107 135 107 246 223 c 1,5,6
 177 239 177 239 129.5 288.5 c 128,-1,7
 82 338 82 338 82 394.5 c 128,-1,8
 82 451 82 451 111 507.5 c 128,-1,9
 140 564 140 564 184 597.5 c 128,-1,10
 228 631 228 631 271.5 631 c 128,-1,11
 315 631 315 631 352.5 611.5 c 128,-1,12
 390 592 390 592 444 545 c 1,13,-1
 422 507 l 1,14,15
 374 525 374 525 353 529.5 c 128,-1,16
 332 534 332 534 305 534 c 0,17,18
 230 534 230 534 150 490 c 1,19,20
 150 416 150 416 205 368 c 128,-1,21
 260 320 260 320 356 312 c 1,22,23
 446 368 446 368 554 400 c 1,24,25
 568 384 568 384 568 363.5 c 128,-1,26
 568 343 568 343 558 328.5 c 128,-1,27
 548 314 548 314 532.5 303 c 128,-1,28
 517 292 517 292 475 274 c 0,29,30
 178 153.936170213 178 153.936170213 178 -40 c 0,31,32
 178 -170.393939394 178 -170.393939394 309 -222 c 0,33,34
 376 -249 376 -249 452 -249 c 0,35,36
 596 -249 596 -249 746 -215 c 1,37,-1
 760 -256 l 1,0,1
EndSplineSet
Substitution2: "'medi' Medial Forms in Arabic lookup 7 subtable" afii57433.medi
Substitution2: "'init' Initial Forms in Arabic lookup 6 subtable" afii57433.init
Substitution2: "'fina' Terminal Forms in Arabic lookup 5 subtable" afii57433.fina
EndChar

StartChar: afii57443
Encoding: 225 1603 228
Width: 671
GlyphClass: 2
Flags: W
AnchorPoint: "Anchor-1" 300 -80 basechar 0
AnchorPoint: "Anchor-0" 225 550 basechar 0
LayerCount: 2
Fore
SplineSet
326 398 m 1,0,-1
 326 404 l 2,1,2
 326 410 326 410 321 417 c 128,-1,3
 316 424 316 424 301.5 424 c 128,-1,4
 287 424 287 424 266.5 408 c 128,-1,5
 246 392 246 392 236 366 c 1,6,7
 258 336 258 336 310 336 c 0,8,9
 338 336 338 336 383 346 c 1,10,-1
 380 288 l 1,11,12
 319 273 319 273 280.5 257.5 c 128,-1,13
 242 242 242 242 192 215 c 1,14,-1
 190 274 l 1,15,-1
 249 307 l 1,16,17
 194 318 194 318 194 365.5 c 128,-1,18
 194 413 194 413 230 450.5 c 128,-1,19
 266 488 266 488 301.5 488 c 128,-1,20
 337 488 337 488 350.5 471.5 c 128,-1,21
 364 455 364 455 364 432.5 c 128,-1,22
 364 410 364 410 354 390 c 1,23,-1
 326 398 l 1,0,-1
542 798 m 1,24,25
 547.166666667 777.333333333 547.166666667 777.333333333 584 656 c 1,26,-1
 553 628 l 1,27,28
 556 563 556 563 578 378 c 128,-1,29
 600 193 600 193 600 140 c 128,-1,30
 600 87 600 87 588 61 c 128,-1,31
 576 35 576 35 557 10 c 1,32,33
 426 -10 426 -10 307 -10 c 128,-1,34
 188 -10 188 -10 104 -2 c 128,-1,35
 20 6 20 6 20 14 c 0,36,37
 20 36 20 36 27 66 c 128,-1,38
 34 96 34 96 40 106 c 1,39,40
 140 82 140 82 280.5 82 c 128,-1,41
 421 82 421 82 555 106 c 1,42,43
 543 164 543 164 530.5 240 c 128,-1,44
 518 316 518 316 493 458 c 128,-1,45
 468 600 468 600 462 702 c 1,46,47
 462 742 462 742 480 766 c 1,48,49
 500 790 500 790 542 798 c 1,24,25
EndSplineSet
Substitution2: "'medi' Medial Forms in Arabic lookup 7 subtable" afii57443.medi
Substitution2: "'init' Initial Forms in Arabic lookup 6 subtable" afii57443.init
Substitution2: "'fina' Terminal Forms in Arabic lookup 5 subtable" afii57443.fina
EndChar

StartChar: afii57444
Encoding: 226 1604 229
Width: 717
GlyphClass: 2
Flags: W
AnchorPoint: "Anchor-1" 315 -420 basechar 0
AnchorPoint: "Anchor-0" 230 700 basechar 0
LayerCount: 2
Fore
SplineSet
562 798 m 1,0,1
 567.5 776 567.5 776 605 656 c 1,2,-1
 576 631 l 1,3,-1
 592 498 l 1,4,-1
 618 255 l 1,5,6
 644 43 644 43 645 -53 c 0,7,8
 645 -125 645 -125 598.5 -192.5 c 128,-1,9
 552 -260 552 -260 470 -304 c 128,-1,10
 388 -348 388 -348 292.5 -348 c 128,-1,11
 197 -348 197 -348 139.5 -289 c 128,-1,12
 82 -230 82 -230 82 -122 c 0,13,14
 82 -84 82 -84 86 -56 c 128,-1,15
 90 -28 90 -28 106 34 c 1,16,-1
 150 24 l 1,17,18
 136 -28 136 -28 136 -62 c 0,19,20
 136 -151 136 -151 180 -200 c 128,-1,21
 224 -249 224 -249 303 -249 c 0,22,23
 361 -249 361 -249 422 -229.5 c 128,-1,24
 483 -210 483 -210 531.5 -175 c 128,-1,25
 580 -140 580 -140 600 -98 c 1,26,27
 578 54 578 54 550.5 216 c 128,-1,28
 523 378 523 378 503 521 c 128,-1,29
 483 664 483 664 483 703 c 0,30,31
 483 782.952380952 483 782.952380952 562 798 c 1,0,1
EndSplineSet
Substitution2: "'medi' Medial Forms in Arabic lookup 7 subtable" afii57444.medi
Substitution2: "'init' Initial Forms in Arabic lookup 6 subtable" afii57444.init
Substitution2: "'fina' Terminal Forms in Arabic lookup 5 subtable" afii57444.fina
EndChar

StartChar: afii57445
Encoding: 227 1605 230
Width: 589
GlyphClass: 2
Flags: W
AnchorPoint: "Anchor-1" 370 -100 basechar 0
AnchorPoint: "Anchor-0" 270 530 basechar 0
LayerCount: 2
Fore
SplineSet
276 310 m 0,0,1
 220.808510638 310 220.808510638 310 164 221 c 1,2,-1
 125 240 l 1,3,4
 157 322 157 322 202 366 c 128,-1,5
 247 410 247 410 298 410 c 0,6,7
 348.571428571 410 348.571428571 410 404.285714286 337 c 128,-1,8
 460 264 460 264 486 234 c 128,-1,9
 512 204 512 204 542 182 c 1,10,-1
 496 60 l 1,11,12
 262 60 262 60 128 14 c 1,13,14
 133 -26 133 -26 155.5 -147.5 c 128,-1,15
 178 -269 178 -269 186 -348 c 1,16,17
 146 -388 146 -388 104 -416 c 1,18,19
 104 -318 104 -318 94 -172 c 1,20,21
 82 -28 82 -28 82 -4.5 c 128,-1,22
 82 19 82 19 94 47.5 c 128,-1,23
 106 76 106 76 120 108 c 1,24,25
 258 148 258 148 416 148 c 2,26,-1
 431 148 l 1,27,28
 416 168 416 168 398.5 196 c 128,-1,29
 381 224 381 224 361.5 249 c 0,30,31
 313.92 310 313.92 310 276 310 c 0,0,1
EndSplineSet
Substitution2: "'medi' Medial Forms in Arabic lookup 7 subtable" afii57445.medi
Substitution2: "'init' Initial Forms in Arabic lookup 6 subtable" afii57445.init
Substitution2: "'fina' Terminal Forms in Arabic lookup 5 subtable" afii57445.fina
EndChar

StartChar: afii57470
Encoding: 229 1607 232
Width: 491
GlyphClass: 2
Flags: W
AnchorPoint: "Anchor-1" 240 -80 basechar 0
AnchorPoint: "Anchor-0" 200 600 basechar 0
LayerCount: 2
Fore
SplineSet
370 140 m 1,0,1
 346 257 346 257 234 345 c 1,2,3
 190 303 190 303 163.5 258 c 128,-1,4
 137 213 137 213 137 173 c 128,-1,5
 137 133 137 133 164.5 109.5 c 128,-1,6
 192 86 192 86 231.5 86 c 128,-1,7
 271 86 271 86 307.5 101.5 c 128,-1,8
 344 117 344 117 370 140 c 1,0,1
82 142 m 0,9,10
 82 258 82 258 200 370 c 1,11,-1
 194 375 l 1,12,13
 170 390 170 390 170 424 c 0,14,15
 170 443 170 443 179.5 459.5 c 128,-1,16
 189 476 189 476 203 482 c 1,17,18
 258 464 258 464 311 416.5 c 128,-1,19
 364 369 364 369 397 309.5 c 128,-1,20
 430 250 430 250 430 208 c 128,-1,21
 430 166 430 166 402 104 c 128,-1,22
 374 42 374 42 348 24 c 0,23,24
 298 -10 298 -10 229 -10 c 128,-1,25
 160 -10 160 -10 121 31 c 128,-1,26
 82 72 82 72 82 142 c 0,9,10
EndSplineSet
Substitution2: "'medi' Medial Forms in Arabic lookup 7 subtable" afii57470.medi
Substitution2: "'init' Initial Forms in Arabic lookup 6 subtable" afii57470.init
Substitution2: "'fina' Terminal Forms in Arabic lookup 5 subtable" afii57470.fina
EndChar

StartChar: afii57448
Encoding: 230 1608 233
Width: 564
GlyphClass: 2
Flags: W
AnchorPoint: "Anchor-1" 240 -300 basechar 0
AnchorPoint: "Anchor-0" 270 500 basechar 0
LayerCount: 2
Fore
SplineSet
446 116 m 1,0,1
 425 196 425 196 382.5 246.5 c 128,-1,2
 340 297 340 297 296 297 c 0,3,4
 272 297 272 297 247.5 279 c 128,-1,5
 223 261 223 261 206.5 231.5 c 128,-1,6
 190 202 190 202 190 179 c 0,7,8
 190 135 190 135 225 111.5 c 128,-1,9
 260 88 260 88 323.25 88 c 128,-1,10
 386.5 88 386.5 88 446 116 c 1,0,1
232 -256 m 0,11,12
 192 -256 192 -256 134 -232 c 128,-1,13
 76 -208 76 -208 41 -179 c 1,14,-1
 58 -140 l 1,15,16
 124 -162 124 -162 209.5 -162 c 128,-1,17
 295 -162 295 -162 359.5 -109 c 128,-1,18
 424 -56 424 -56 458 49 c 1,19,-1
 456 54 l 1,20,-1
 456 58 l 1,21,22
 385 -10 385 -10 295 -10 c 0,23,24
 226 -10 226 -10 185 32 c 128,-1,25
 144 74 144 74 144 141 c 128,-1,26
 144 208 144 208 168.5 267 c 128,-1,27
 193 326 193 326 233.5 363 c 128,-1,28
 274 400 274 400 319 400 c 128,-1,29
 364 400 364 400 407.5 354.5 c 128,-1,30
 451 309 451 309 477 233.5 c 128,-1,31
 503 158 503 158 503 79.5 c 128,-1,32
 503 1 503 1 464.5 -81.5 c 128,-1,33
 426 -164 426 -164 365 -210 c 128,-1,34
 304 -256 304 -256 232 -256 c 0,11,12
EndSplineSet
Substitution2: "'fina' Terminal Forms in Arabic lookup 5 subtable" afii57448.fina
EndChar

StartChar: afii57449
Encoding: 231 1609 234
Width: 744
GlyphClass: 2
Flags: W
AnchorPoint: "Anchor-1" 350 -410 basechar 0
AnchorPoint: "Anchor-0" 250 280 basechar 0
LayerCount: 2
Fore
SplineSet
660 -68 m 1,0,1
 630 -62 630 -62 566 -57.5 c 128,-1,2
 502 -53 502 -53 458 -37.5 c 0,3,4
 368 -5.79545454545 368 -5.79545454545 368 100 c 0,5,6
 368 158 368 158 409 228.5 c 128,-1,7
 450 299 450 299 507 349.5 c 128,-1,8
 564 400 564 400 605 400 c 128,-1,9
 646 400 646 400 668 376 c 128,-1,10
 690 352 690 352 704 295 c 1,11,-1
 660 282 l 1,12,13
 652 294 652 294 644 297.5 c 128,-1,14
 636 301 636 301 622 301 c 0,15,16
 590 301 590 301 542.5 267.5 c 128,-1,17
 495 234 495 234 458.5 187 c 128,-1,18
 422 140 422 140 412 95 c 1,19,20
 445.303643725 63.5465587045 445.303643725 63.5465587045 544 50 c 1,21,22
 608 40 608 40 640 28 c 128,-1,23
 672 16 672 16 687 -6 c 128,-1,24
 702 -28 702 -28 702 -66 c 0,25,26
 702 -120 702 -120 637 -188.5 c 128,-1,27
 572 -257 572 -257 477 -302.5 c 128,-1,28
 382 -348 382 -348 300 -348 c 0,29,30
 197 -348 197 -348 139.5 -289 c 128,-1,31
 82 -230 82 -230 82 -122 c 0,32,33
 82 -84 82 -84 86 -56 c 128,-1,34
 90 -28 90 -28 106 34 c 1,35,-1
 150 24 l 1,36,37
 136 -28 136 -28 136 -62 c 0,38,39
 136 -151 136 -151 180 -200 c 128,-1,40
 224 -249 224 -249 303 -249 c 0,41,42
 360 -249 360 -249 435 -223.5 c 128,-1,43
 510 -198 510 -198 574 -155 c 128,-1,44
 638 -112 638 -112 660 -68 c 1,0,1
EndSplineSet
Substitution2: "'medi' Medial Forms in Arabic lookup 7 subtable" afii57449.medi
Substitution2: "'init' Initial Forms in Arabic lookup 6 subtable" afii57449.init
Substitution2: "'fina' Terminal Forms in Arabic lookup 5 subtable" afii57449.fina
EndChar

StartChar: afii57454
Encoding: 233 1614 236
Width: 0
GlyphClass: 4
Flags: W
AnchorPoint: "Anchor-4" 100 680 basemark 0
AnchorPoint: "Anchor-4" 100 540 mark 0
AnchorPoint: "Anchor-2" 100 540 mark 0
AnchorPoint: "Anchor-0" 100 540 mark 0
LayerCount: 2
Fore
SplineSet
246 660 m 1,0,-1
 248 644 l 1,1,2
 248 606 248 606 213 591 c 1,3,4
 128 551 128 551 -28 503 c 1,5,-1
 -22 568 l 1,6,7
 136 616 136 616 246 660 c 1,0,-1
EndSplineSet
EndChar

StartChar: afii57455
Encoding: 234 1615 237
Width: 0
GlyphClass: 4
Flags: W
AnchorPoint: "Anchor-4" 100 780 basemark 0
AnchorPoint: "Anchor-4" 80 500 mark 0
AnchorPoint: "Anchor-2" 80 500 mark 0
AnchorPoint: "Anchor-0" 80 500 mark 0
LayerCount: 2
Fore
SplineSet
70 662 m 0,0,1
 70 625 70 625 129 607 c 1,2,3
 136 619 136 619 136 638 c 128,-1,4
 136 657 136 657 127 671.5 c 128,-1,5
 118 686 118 686 105 686 c 128,-1,6
 92 686 92 686 81 678 c 128,-1,7
 70 670 70 670 70 662 c 0,0,1
-52 512 m 1,8,9
 21.1086142322 523.423220974 21.1086142322 523.423220974 90 568 c 1,10,11
 67 578 67 578 50.5 597 c 128,-1,12
 34 616 34 616 34 639.5 c 128,-1,13
 34 663 34 663 47 685 c 128,-1,14
 60 707 60 707 81 720.5 c 128,-1,15
 102 734 102 734 123.5 734 c 128,-1,16
 145 734 145 734 159.5 708 c 128,-1,17
 174 682 174 682 174 650 c 128,-1,18
 174 618 174 618 167 598 c 1,19,20
 191 595 191 595 215 595 c 1,21,22
 213 571 213 571 198.5 562.5 c 128,-1,23
 184 554 184 554 154 554 c 2,24,-1
 144 554 l 1,25,-1
 135 555 l 1,26,27
 101 520 101 520 61.5 496.5 c 128,-1,28
 22 473 22 473 -3 473 c 0,29,30
 -52 473 -52 473 -52 512 c 1,8,9
EndSplineSet
EndChar

StartChar: afii57456
Encoding: 235 1616 238
Width: 0
GlyphClass: 4
Flags: W
AnchorPoint: "Anchor-5" 110 -260 basemark 0
AnchorPoint: "Anchor-5" 115 -105 mark 0
AnchorPoint: "Anchor-3" 115 -105 mark 0
AnchorPoint: "Anchor-1" 115 -105 mark 0
LayerCount: 2
Fore
SplineSet
246 -106 m 1,0,-1
 248 -122 l 1,1,2
 248 -160 248 -160 213 -175 c 1,3,4
 128 -215 128 -215 -28 -263 c 1,5,-1
 -22 -198 l 1,6,7
 136 -150 136 -150 246 -106 c 1,0,-1
EndSplineSet
EndChar

StartChar: uni06A9
Encoding: 241 1705 244
Width: 869
GlyphClass: 2
Flags: W
AnchorPoint: "Anchor-1" 400 -80 basechar 0
AnchorPoint: "Anchor-0" 418 695 basechar 0
LayerCount: 2
Fore
SplineSet
774 188 m 0,0,1
 774 -10 774 -10 370 -10 c 0,2,3
 220 -10 220 -10 151 33 c 128,-1,4
 82 76 82 76 82 160 c 0,5,6
 82 202 82 202 98 236 c 1,7,-1
 140 236 l 1,8,9
 136 222 136 222 136 188 c 0,10,11
 136 132 136 132 191 107 c 128,-1,12
 246 82 246 82 381 82 c 0,13,14
 528.333333333 82 528.333333333 82 626.5 110.5 c 0,15,16
 673 124 673 124 726 152 c 1,17,18
 680 290 680 290 472 389 c 1,19,20
 462 385 462 385 437 385 c 128,-1,21
 412 385 412 385 391 407 c 128,-1,22
 370 429 370 429 370 457 c 128,-1,23
 370 485 370 485 382 529.5 c 128,-1,24
 394 574 394 574 402 578 c 0,25,26
 546 653 546 653 625 689.5 c 128,-1,27
 704 726 704 726 830 778 c 1,28,29
 848 763.6 848 763.6 848 732 c 1,30,-1
 847 722 l 1,31,32
 840 680 840 680 796 662 c 0,33,34
 576 572 576 572 414 496 c 1,35,36
 502 474 502 474 587 423 c 128,-1,37
 672 372 672 372 723 308 c 128,-1,38
 774 244 774 244 774 188 c 0,0,1
EndSplineSet
Substitution2: "'medi' Medial Forms in Arabic lookup 7 subtable" uni06A9.medi
Substitution2: "'init' Initial Forms in Arabic lookup 6 subtable" uni06A9.init
Substitution2: "'fina' Terminal Forms in Arabic lookup 5 subtable" uni06A9.fina
EndChar

StartChar: uni06BE
Encoding: 243 1726 246
Width: 760
GlyphClass: 2
Flags: W
AnchorPoint: "Anchor-1" 370 -80 basechar 0
AnchorPoint: "Anchor-0" 350 600 basechar 0
LayerCount: 2
Fore
SplineSet
508 265 m 0,0,1
 508 172 508 172 446 104 c 1,2,3
 533 66 533 66 634 56 c 1,4,5
 634 136 634 136 592 219 c 128,-1,6
 550 302 550 302 484 360 c 1,7,8
 508 314 508 314 508 265 c 0,0,1
255 240 m 1,9,10
 311 180 311 180 376 140 c 1,11,12
 437 188 437 188 437 268 c 0,13,14
 437 301 437 301 415.5 331.5 c 128,-1,15
 394 362 394 362 370.5 362 c 128,-1,16
 347 362 347 362 324.5 346.5 c 0,17,18
 275.13740458 312.494656489 275.13740458 312.494656489 255 240 c 1,9,10
182 -10 m 0,19,20
 130 -10 130 -10 20 50 c 1,21,-1
 32 92 l 1,22,23
 77 82 77 82 153.5 82 c 128,-1,24
 230 82 230 82 286 98 c 1,25,26
 212 162 212 162 212 240 c 0,27,28
 212 275 212 275 226 315 c 0,29,30
 256.545454545 402.272727273 256.545454545 402.272727273 318 433 c 1,31,-1
 346 512 l 1,32,33
 447 484 447 484 528.5 424.5 c 128,-1,34
 610 365 610 365 654 287.5 c 128,-1,35
 698 210 698 210 698 130 c 0,36,37
 698 74 698 74 637 -32 c 1,38,39
 482 -14 482 -14 370 43 c 1,40,41
 280 -10 280 -10 182 -10 c 0,19,20
EndSplineSet
Substitution2: "'medi' Medial Forms in Arabic lookup 7 subtable" uni06BE.medi
Substitution2: "'init' Initial Forms in Arabic lookup 6 subtable" uni06BE.init
Substitution2: "'fina' Terminal Forms in Arabic lookup 5 subtable" uni06BE.fina
EndChar

StartChar: uni0710
Encoding: 247 1808 250
Width: 452
GlyphClass: 2
Flags: W
LayerCount: 2
Fore
SplineSet
35 -137 m 1,0,1
 97.2044681884 -48.6041767848 97.2044681884 -48.6041767848 138.602234094 76.1979116076 c 128,-1,2
 180 201 180 201 180 280.5 c 128,-1,3
 180 360 180 360 169.5 424.5 c 128,-1,4
 159 489 159 489 142.5 532 c 0,5,6
 114.698630137 604.452054795 114.698630137 604.452054795 95 634 c 1,7,-1
 180 634 l 1,8,9
 212 590 212 590 241.5 510.5 c 128,-1,10
 271 431 271 431 271 361.5 c 128,-1,11
 271 292 271 292 244 90 c 1,12,-1
 415 90 l 1,13,-1
 415 0 l 1,14,-1
 195 0 l 1,15,16
 162 -78 162 -78 118 -137 c 1,17,-1
 35 -137 l 1,0,1
EndSplineSet
EndChar

StartChar: uni071D
Encoding: 248 1821 251
Width: 484
GlyphClass: 2
Flags: W
LayerCount: 2
Fore
SplineSet
448 17 m 1,0,-1
 342 96 l 1,1,-1
 335 0 l 1,2,-1
 -72 0 l 1,3,-1
 -72 90 l 1,4,-1
 285 90 l 1,5,-1
 285 273 l 1,6,-1
 448 80 l 1,7,-1
 448 17 l 1,0,-1
EndSplineSet
EndChar

StartChar: uni0721
Encoding: 249 1825 252
Width: 682
GlyphClass: 2
Flags: W
LayerCount: 2
Fore
SplineSet
566 90 m 1,0,-1
 566 339 l 1,1,-1
 407 339 l 1,2,-1
 313 90 l 1,3,-1
 566 90 l 1,0,-1
645 0 m 1,4,-1
 278 0 l 1,5,-1
 217 -138 l 1,6,-1
 134 -138 l 1,7,-1
 323 339 l 1,8,-1
 107 339 l 1,9,-1
 107 427 l 1,10,-1
 645 427 l 1,11,-1
 645 0 l 1,4,-1
EndSplineSet
EndChar

StartChar: uni072A
Encoding: 250 1834 253
Width: 509
GlyphClass: 2
Flags: W
LayerCount: 2
Fore
SplineSet
403 90 m 1,0,-1
 405 211 l 1,1,2
 405 292 405 292 363 315.5 c 128,-1,3
 321 339 321 339 175 339 c 1,4,-1
 175 429 l 1,5,6
 267 429 267 429 322.5 423.5 c 128,-1,7
 378 418 378 418 413 402.5 c 128,-1,8
 448 387 448 387 460.5 362.5 c 128,-1,9
 473 338 473 338 473 297 c 2,10,-1
 473 0 l 1,11,-1
 107 0 l 1,12,-1
 107 90 l 1,13,-1
 403 90 l 1,0,-1
285 526 m 1,14,-1
 162 526 l 1,15,-1
 162 608 l 1,16,-1
 285 608 l 1,17,-1
 285 526 l 1,14,-1
EndSplineSet
EndChar

StartChar: uni0780
Encoding: 251 1920 254
Width: 474
GlyphClass: 2
Flags: W
LayerCount: 2
Fore
SplineSet
454 364 m 0,0,1
 454 339 454 339 375 282.5 c 128,-1,2
 296 226 296 226 198 179 c 128,-1,3
 100 132 100 132 54 132 c 0,4,5
 36 132 36 132 18 142 c 128,-1,6
 0 152 0 152 0 170 c 128,-1,7
 0 188 0 188 9 208.5 c 128,-1,8
 18 229 18 229 35 229 c 0,9,10
 41 229 41 229 53 218 c 128,-1,11
 65 207 65 207 82.5 207 c 128,-1,12
 100 207 100 207 145 227 c 128,-1,13
 190 247 190 247 229.5 270 c 128,-1,14
 269 293 269 293 317 326 c 128,-1,15
 365 359 365 359 380 370 c 128,-1,16
 395 381 395 381 404.5 387.5 c 128,-1,17
 414 394 414 394 425 394 c 128,-1,18
 436 394 436 394 445 386.5 c 128,-1,19
 454 379 454 379 454 364 c 0,0,1
EndSplineSet
EndChar

StartChar: uni0784
Encoding: 252 1924 255
Width: 482
GlyphClass: 2
Flags: W
LayerCount: 2
Fore
SplineSet
167 296 m 1,0,1
 129 292 129 292 107.5 274 c 128,-1,2
 86 256 86 256 86 228 c 0,3,4
 86 217 86 217 94 209.5 c 0,5,6
 105.068493151 199.123287671 105.068493151 199.123287671 130 192 c 1,7,8
 184 267 184 267 197 285 c 1,9,10
 179 294 179 294 167 296 c 1,0,1
391 306 m 0,11,12
 391 324 391 324 363.5 324 c 128,-1,13
 336 324 336 324 293.5 292 c 128,-1,14
 251 260 251 260 202 189 c 1,15,16
 251 197 251 197 272.5 204.5 c 128,-1,17
 294 212 294 212 328 235 c 0,18,19
 391 277 391 277 391 306 c 0,11,12
313.5 374.5 m 128,-1,21
 338 383 338 383 379.5 383 c 128,-1,22
 421 383 421 383 441.5 358.5 c 128,-1,23
 462 334 462 334 462 313 c 0,24,25
 462 249 462 249 371.5 186.5 c 128,-1,26
 281 124 281 124 169 124 c 0,27,28
 98 124 98 124 59 148 c 128,-1,29
 20 172 20 172 20 233 c 0,30,31
 20 276 20 276 68.5 320.5 c 128,-1,32
 117 365 117 365 172 365 c 0,33,34
 200 365 200 365 215 358.5 c 128,-1,35
 230 352 230 352 248 331 c 1,36,37
 270 351 270 351 279.5 358.5 c 128,-1,20
 289 366 289 366 313.5 374.5 c 128,-1,21
EndSplineSet
EndChar

StartChar: uni0788
Encoding: 253 1928 256
Width: 474
GlyphClass: 2
Flags: W
LayerCount: 2
Fore
SplineSet
330 313 m 0,0,1
 303 313 303 313 272.5 290 c 128,-1,2
 242 267 242 267 242 246 c 0,3,4
 242 236 242 236 249 228 c 128,-1,5
 256 220 256 220 273.5 220 c 128,-1,6
 291 220 291 220 332.5 246 c 128,-1,7
 374 272 374 272 374 292.5 c 128,-1,8
 374 313 374 313 330 313 c 0,0,1
344 372 m 0,9,10
 387.9 372 387.9 372 422 341 c 0,11,12
 444 321 444 321 444 291 c 0,13,14
 444 247 444 247 358 190 c 1,15,16
 114 24 114 24 57 24 c 128,-1,17
 0 24 0 24 0 68 c 0,18,19
 0 84 0 84 7.5 100 c 128,-1,20
 15 116 15 116 26 116 c 128,-1,21
 37 116 37 116 48.5 106 c 128,-1,22
 60 96 60 96 64 96 c 0,23,24
 99 96 99 96 116 103 c 0,25,26
 164 124 164 124 233 171 c 1,27,28
 175 196 175 196 175 239.5 c 128,-1,29
 175 283 175 283 222.5 327.5 c 128,-1,30
 270 372 270 372 344 372 c 0,9,10
EndSplineSet
EndChar

StartChar: uni078B
Encoding: 254 1931 257
Width: 604
GlyphClass: 2
Flags: W
LayerCount: 2
Fore
SplineSet
376 237 m 1,0,1
 405 215 405 215 428 215 c 128,-1,2
 451 215 451 215 477 227.5 c 128,-1,3
 503 240 503 240 503 260 c 128,-1,4
 503 280 503 280 488.5 293.5 c 128,-1,5
 474 307 474 307 457 314.5 c 0,6,7
 411 334.794117647 411 334.794117647 411 355 c 0,8,9
 411 370 411 370 418.5 380 c 128,-1,10
 426 390 426 390 444.5 390 c 128,-1,11
 463 390 463 390 478 381 c 0,12,13
 479 381 479 381 488 388 c 128,-1,14
 497 395 497 395 500.5 397 c 128,-1,15
 504 399 504 399 512 403.5 c 0,16,17
 525.333333333 411 525.333333333 411 543 411 c 0,18,19
 584 411 584 411 584 376 c 0,20,21
 584 350 584 350 537 332 c 1,22,23
 539 330 539 330 545.5 324 c 128,-1,24
 552 318 552 318 554 315.5 c 128,-1,25
 556 313 556 313 560.5 307 c 128,-1,26
 565 301 565 301 567 297 c 0,27,28
 572 287 572 287 572 273 c 0,29,30
 572 223 572 223 536.5 188.5 c 128,-1,31
 501 154 501 154 440.5 154 c 128,-1,32
 380 154 380 154 350 172 c 1,33,34
 288 113 288 113 185 51.5 c 128,-1,35
 82 -10 82 -10 43 -10 c 0,36,37
 0 -10 0 -10 0 39 c 0,38,39
 0 55 0 55 9.5 72.5 c 128,-1,40
 19 90 19 90 39 90 c 0,41,42
 45 90 45 90 57 80 c 128,-1,43
 69 70 69 70 74 70 c 0,44,45
 109 70 109 70 184.5 120 c 128,-1,46
 260 170 260 170 293 207 c 1,47,48
 281 221 281 221 281 238.5 c 128,-1,49
 281 256 281 256 294.5 267.5 c 128,-1,50
 308 279 308 279 329 279 c 0,51,52
 372 279 372 279 376 237 c 1,0,1
EndSplineSet
EndChar

StartChar: uni0790
Encoding: 255 1936 258
Width: 881
GlyphClass: 2
Flags: W
LayerCount: 2
Fore
SplineSet
172 246 m 1,0,1
 143 211 143 211 105.5 185 c 128,-1,2
 68 159 68 159 46 159 c 128,-1,3
 24 159 24 159 12 166 c 128,-1,4
 0 173 0 173 0 190 c 128,-1,5
 0 207 0 207 9.5 213 c 128,-1,6
 19 219 19 219 31.5 222.5 c 128,-1,7
 44 226 44 226 60 237 c 128,-1,8
 76 248 76 248 86 266 c 1,9,10
 34 266 34 266 34 306 c 0,11,12
 34 361 34 361 101 361 c 0,13,14
 131 361 131 361 147 349.5 c 128,-1,15
 163 338 163 338 183 303 c 1,16,-1
 668 303 l 2,17,18
 700 303 700 303 754.5 343 c 128,-1,19
 809 383 809 383 822.5 383 c 128,-1,20
 836 383 836 383 848.5 375.5 c 128,-1,21
 861 368 861 368 861 351 c 0,22,23
 861 321 861 321 798.5 283 c 128,-1,24
 736 245 736 245 694 245 c 2,25,-1
 172 246 l 1,0,1
EndSplineSet
EndChar

StartChar: uni07A6
Encoding: 256 1958 259
Width: 0
GlyphClass: 2
Flags: W
LayerCount: 2
Fore
SplineSet
543 716 m 0,0,1
 543 694 543 694 421.5 620.5 c 128,-1,2
 300 547 300 547 269 547 c 1,3,4
 258 548 258 548 250.5 556 c 128,-1,5
 243 564 243 564 243 577 c 0,6,7
 243 607 243 607 263 614 c 0,8,9
 290 623 290 623 376 675 c 128,-1,10
 462 727 462 727 482.5 742 c 128,-1,11
 503 757 503 757 513 757 c 0,12,13
 543 757 543 757 543 716 c 0,0,1
EndSplineSet
EndChar

StartChar: uni07A8
Encoding: 257 1960 260
Width: 0
GlyphClass: 2
Flags: W
LayerCount: 2
Fore
SplineSet
471 -7.5 m 128,-1,1
 478 -4 478 -4 490 -4 c 128,-1,2
 502 -4 502 -4 509.5 -14 c 128,-1,3
 517 -24 517 -24 517 -36 c 128,-1,4
 517 -48 517 -48 512 -53 c 0,5,6
 470 -95 470 -95 359 -155 c 128,-1,7
 248 -215 248 -215 223 -215 c 0,8,9
 189 -215 189 -215 189 -178 c 0,10,11
 189 -170 189 -170 207.5 -161 c 128,-1,12
 226 -152 226 -152 267 -133 c 128,-1,13
 308 -114 308 -114 347 -90.5 c 128,-1,14
 386 -67 386 -67 416 -46 c 128,-1,15
 446 -25 446 -25 455 -18 c 128,-1,0
 464 -11 464 -11 471 -7.5 c 128,-1,1
EndSplineSet
EndChar

StartChar: uni07AC
Encoding: 258 1964 261
Width: 0
GlyphClass: 2
Flags: W
LayerCount: 2
Fore
SplineSet
248 577 m 0,0,1
 260 577 260 577 276.5 582.5 c 128,-1,2
 293 588 293 588 303 588 c 128,-1,3
 313 588 313 588 323.5 579.5 c 128,-1,4
 334 571 334 571 334 558 c 0,5,6
 334 533 334 533 305.5 521 c 128,-1,7
 277 509 277 509 236.5 509 c 128,-1,8
 196 509 196 509 165.5 534 c 128,-1,9
 135 559 135 559 135 611.5 c 128,-1,10
 135 664 135 664 209 720 c 128,-1,11
 283 776 283 776 324 781 c 1,12,13
 364 781 364 781 364 753 c 0,14,15
 364 739 364 739 335 720 c 2,16,-1
 266 675 l 2,17,18
 237 656 237 656 223 641.5 c 128,-1,19
 209 627 209 627 209 610 c 0,20,21
 209 577 209 577 248 577 c 0,0,1
EndSplineSet
EndChar

StartChar: uni07B0
Encoding: 259 1968 262
Width: 0
GlyphClass: 2
Flags: W
LayerCount: 2
Fore
SplineSet
382 671 m 0,0,1
 382 706 382 706 336.5 706 c 128,-1,2
 291 706 291 706 264 674 c 128,-1,3
 237 642 237 642 237 611 c 0,4,5
 237 597 237 597 248 592.5 c 128,-1,6
 259 588 259 588 285.5 588 c 128,-1,7
 312 588 312 588 347 616 c 128,-1,8
 382 644 382 644 382 671 c 0,0,1
169 610 m 0,9,10
 169 678 169 678 227.5 723.5 c 128,-1,11
 286 769 286 769 349 769 c 0,12,13
 392 769 392 769 418 745 c 128,-1,14
 444 721 444 721 444 679 c 0,15,16
 444 614 444 614 382.5 568.5 c 128,-1,17
 321 523 321 523 269 523 c 0,18,19
 169 523 169 523 169 610 c 0,9,10
EndSplineSet
EndChar

StartChar: uni0902
Encoding: 260 2306 263
Width: 0
GlyphClass: 2
Flags: W
LayerCount: 2
Fore
SplineSet
-107 844 m 1,0,-1
 -33 770 l 1,1,-1
 -107 696 l 1,2,-1
 -181 770 l 1,3,-1
 -107 844 l 1,0,-1
EndSplineSet
EndChar

StartChar: uni0905
Encoding: 261 2309 264
Width: 717
GlyphClass: 2
Flags: W
LayerCount: 2
Fore
SplineSet
479 320 m 0,0,1
 487 320 487 320 516 326.5 c 128,-1,2
 545 333 545 333 557 338 c 1,3,-1
 557 540 l 1,4,-1
 453 540 l 1,5,-1
 453 613 l 1,6,-1
 727 613 l 1,7,-1
 727 540 l 1,8,-1
 631 540 l 1,9,-1
 631 0 l 1,10,-1
 557 0 l 1,11,-1
 557 262 l 1,12,13
 535 251 535 251 498.5 251 c 128,-1,14
 462 251 462 251 443 263 c 1,15,16
 450 242 450 242 450 211 c 0,17,18
 450 58 450 58 294 58 c 0,19,20
 246 58 246 58 196 88 c 128,-1,21
 146 118 146 118 111.5 158.5 c 128,-1,22
 77 199 77 199 54 236.5 c 128,-1,23
 31 274 31 274 30 292 c 1,24,-1
 89 327 l 1,25,26
 169.857142857 188.387755102 169.857142857 188.387755102 233.5 150 c 0,27,28
 265 131 265 131 297 131 c 0,29,30
 377 131 377 131 377 211 c 0,31,32
 377 270 377 270 343.5 295 c 128,-1,33
 310 320 310 320 267 320 c 128,-1,34
 224 320 224 320 206 311 c 1,35,-1
 182 371 l 1,36,37
 200 371 200 371 205 370 c 1,38,39
 260 370 260 370 292.5 397.5 c 128,-1,40
 325 425 325 425 326 471 c 1,41,-1
 326 474 l 2,42,43
 326 540 326 540 253.5 540 c 128,-1,44
 181 540 181 540 130 467 c 1,45,-1
 71 511 l 1,46,47
 71 522 71 522 98.5 546 c 128,-1,48
 126 570 126 570 172 591.5 c 128,-1,49
 218 613 218 613 259 613 c 0,50,51
 317 613 317 613 357.5 572 c 128,-1,52
 398 531 398 531 398 468 c 128,-1,53
 398 405 398 405 341 363 c 1,54,55
 357 360 357 360 400.5 340 c 128,-1,56
 444 320 444 320 479 320 c 0,0,1
EndSplineSet
EndChar

StartChar: uni0915
Encoding: 262 2325 265
Width: 749
GlyphClass: 2
Flags: W
LayerCount: 2
Fore
SplineSet
146 202.5 m 128,-1,1
 177 180 177 180 215 180 c 128,-1,2
 253 180 253 180 289 200 c 128,-1,3
 325 220 325 220 347 252 c 1,4,-1
 347 540 l 1,5,-1
 -10 540 l 1,6,-1
 -10 613 l 1,7,-1
 759 613 l 1,8,-1
 759 540 l 1,9,-1
 420 540 l 1,10,-1
 420 362 l 1,11,12
 478 442 478 442 547 442 c 128,-1,13
 616 442 616 442 657.5 401 c 128,-1,14
 699 360 699 360 699 294 c 0,15,16
 699 206 699 206 578 68 c 1,17,-1
 508 116 l 1,18,19
 539 133 539 133 581 187.5 c 128,-1,20
 623 242 623 242 626 291 c 1,21,22
 626 324 626 324 603 346 c 128,-1,23
 580 368 580 368 550.5 368 c 128,-1,24
 521 368 521 368 493.5 344.5 c 128,-1,25
 466 321 466 321 452.5 301 c 128,-1,26
 439 281 439 281 420 250 c 1,27,-1
 420 0 l 1,28,-1
 347 0 l 1,29,-1
 347 158 l 1,30,31
 330 140 330 140 293 122 c 128,-1,32
 256 104 256 104 214 104 c 0,33,34
 149 104 149 104 95 152 c 128,-1,35
 41 200 41 200 41 266 c 128,-1,36
 41 332 41 332 84 388 c 128,-1,37
 127 444 127 444 201 444 c 0,38,39
 236 444 236 444 285 433 c 1,40,-1
 285 357 l 1,41,42
 238 370 238 370 201 370 c 128,-1,43
 164 370 164 370 140.5 344 c 128,-1,44
 117 318 117 318 115 277 c 1,45,0
 115 225 115 225 146 202.5 c 128,-1,1
EndSplineSet
EndChar

StartChar: uni0917
Encoding: 263 2327 266
Width: 522
GlyphClass: 2
Flags: W
LayerCount: 2
Fore
SplineSet
213 265 m 2,0,1
 213 230.214285714 213 230.214285714 204.5 221.107142857 c 128,-1,2
 196 212 196 212 183 212 c 0,3,4
 144 212 144 212 93 269.5 c 128,-1,5
 42 327 42 327 42 356 c 0,6,7
 42 379 42 379 82 382 c 1,8,-1
 141 382 l 1,9,-1
 141 540 l 1,10,-1
 -10 540 l 1,11,-1
 -10 613 l 1,12,-1
 532 613 l 1,13,-1
 532 540 l 1,14,-1
 451 540 l 1,15,-1
 451 0 l 1,16,-1
 379 0 l 1,17,-1
 379 540 l 1,18,-1
 213 540 l 1,19,-1
 213 265 l 2,0,1
EndSplineSet
EndChar

StartChar: uni0919
Encoding: 264 2329 267
Width: 680
GlyphClass: 2
Flags: W
LayerCount: 2
Fore
SplineSet
189 377 m 0,0,1
 189 411 189 411 213.5 427.5 c 128,-1,2
 238 444 238 444 257 444 c 2,3,-1
 450 444 l 1,4,-1
 450 540 l 1,5,-1
 -10 540 l 1,6,-1
 -10 613 l 1,7,-1
 690 613 l 1,8,-1
 690 540 l 1,9,-1
 522 540 l 1,10,-1
 522 370 l 1,11,-1
 271 370 l 1,12,13
 291 321 291 321 318 290.5 c 128,-1,14
 345 260 345 260 371 260 c 0,15,16
 374 260 374 260 396.5 266 c 128,-1,17
 419 272 419 272 450.5 278.5 c 128,-1,18
 482 285 482 285 505 285 c 128,-1,19
 528 285 528 285 550 248.5 c 128,-1,20
 572 212 572 212 572 170 c 128,-1,21
 572 128 572 128 555 90 c 128,-1,22
 538 52 538 52 509.5 32 c 0,23,24
 455.35 -6 455.35 -6 394.675 -6 c 128,-1,25
 334 -6 334 -6 280 21 c 128,-1,26
 226 48 226 48 185 86.5 c 128,-1,27
 144 125 144 125 111 165.5 c 128,-1,28
 78 206 78 206 60 233.5 c 128,-1,29
 42 261 42 261 42 266 c 1,30,-1
 93 312 l 1,31,32
 138.660550459 238.073394495 138.660550459 238.073394495 206 164 c 0,33,34
 246 120 246 120 293.5 92.5 c 128,-1,35
 341 65 341 65 386 65 c 0,36,37
 499 65 499 65 499 177 c 0,38,39
 499 211 499 211 468 211 c 0,40,41
 456 211 456 211 420 200 c 128,-1,42
 384 189 384 189 364 187 c 1,43,44
 310 187 310 187 249.5 253.5 c 128,-1,45
 189 320 189 320 189 377 c 0,0,1
603 415 m 1,46,-1
 677 341 l 1,47,-1
 603 267 l 1,48,-1
 529 341 l 1,49,-1
 603 415 l 1,46,-1
EndSplineSet
EndChar

StartChar: uni091B
Encoding: 265 2331 268
Width: 644
GlyphClass: 2
Flags: W
LayerCount: 2
Fore
SplineSet
434 117 m 1,0,1
 357 233 357 233 357 309.5 c 128,-1,2
 357 386 357 386 443 424 c 1,3,-1
 443 540 l 1,4,-1
 172 540 l 2,5,6
 152 540 152 540 134.5 499.5 c 128,-1,7
 117 459 117 459 116.5 428 c 128,-1,8
 116 397 116 397 149.5 371.5 c 128,-1,9
 183 346 183 346 210.5 346 c 128,-1,10
 238 346 238 346 276 351 c 1,11,-1
 309 291 l 1,12,13
 246 291 246 291 205.5 255.5 c 128,-1,14
 165 220 165 220 165 181 c 0,15,16
 165 66 165 66 289 65 c 0,17,18
 379 65 379 65 434 117 c 1,0,1
488 174 m 1,19,20
 534 204 534 204 534 301 c 0,21,22
 534 356 534 356 486 356 c 0,23,24
 457 356 457 356 445 342.5 c 128,-1,25
 433 329 433 329 433 298 c 0,26,27
 433 229 433 229 488 174 c 1,19,20
143 297 m 1,28,29
 101 304 101 304 73 351 c 128,-1,30
 45 398 45 398 45 455 c 128,-1,31
 45 512 45 512 80 540 c 1,32,-1
 -10 540 l 1,33,-1
 -10 613 l 1,34,-1
 654 613 l 1,35,-1
 654 540 l 1,36,-1
 516 540 l 1,37,-1
 516 428 l 1,38,39
 540 417 540 417 551.5 410 c 128,-1,40
 563 403 563 403 578.5 388.5 c 0,41,42
 607 361.838709677 607 361.838709677 607 297.419354839 c 128,-1,43
 607 233 607 233 574 173 c 128,-1,44
 541 113 541 113 491 74.5 c 128,-1,45
 441 36 441 36 383.5 14 c 128,-1,46
 326 -8 326 -8 275 -8 c 0,47,48
 189 -8 189 -8 141 44.5 c 128,-1,49
 93 97 93 97 93 175 c 128,-1,50
 93 253 93 253 143 297 c 1,28,29
EndSplineSet
EndChar

StartChar: uni091C
Encoding: 266 2332 269
Width: 703
GlyphClass: 2
Flags: W
LayerCount: 2
Fore
SplineSet
374 252 m 0,0,1
 374 273 374 273 362.5 299 c 128,-1,2
 351 325 351 325 340.5 340.5 c 128,-1,3
 330 356 330 356 310 382 c 128,-1,4
 290 408 290 408 288 411 c 1,5,-1
 288 423 l 1,6,-1
 558 423 l 1,7,-1
 558 540 l 1,8,-1
 -10 540 l 1,9,-1
 -10 613 l 1,10,-1
 713 613 l 1,11,-1
 713 540 l 1,12,-1
 632 540 l 1,13,-1
 632 0 l 1,14,-1
 558 0 l 1,15,-1
 558 351 l 1,16,-1
 412 351 l 1,17,18
 447 310 447 310 447 253 c 0,19,20
 447 173 447 173 405 139.5 c 128,-1,21
 363 106 363 106 306 104 c 1,22,23
 261 104 261 104 220 129 c 128,-1,24
 179 154 179 154 150.5 190 c 128,-1,25
 122 226 122 226 98 271 c 0,26,27
 58.4705882353 345.117647059 58.4705882353 345.117647059 42 411 c 1,28,-1
 101 453 l 1,29,30
 107 408 107 408 138 344.5 c 128,-1,31
 169 281 169 281 218 229.5 c 128,-1,32
 267 178 267 178 312 178 c 0,33,34
 374 178 374 178 374 252 c 0,0,1
EndSplineSet
EndChar

StartChar: uni0920
Encoding: 267 2336 270
Width: 531
GlyphClass: 2
Flags: W
LayerCount: 2
Fore
SplineSet
119.5 268 m 128,-1,1
 115 253 115 253 115 229 c 128,-1,2
 115 205 115 205 129 175.5 c 128,-1,3
 143 146 143 146 163 128.5 c 128,-1,4
 183 111 183 111 207.5 99.5 c 0,5,6
 249.043478261 80 249.043478261 80 285 80 c 0,7,8
 354 80 354 80 387.5 104.5 c 128,-1,9
 421 129 421 129 421 185 c 128,-1,10
 421 241 421 241 364 280 c 1,11,-1
 418 329 l 1,12,13
 494 287 494 287 494 182 c 0,14,15
 494 102 494 102 433 54 c 128,-1,16
 372 6 372 6 284 6 c 0,17,18
 178 6 178 6 109.5 83.5 c 128,-1,19
 41 161 41 161 41 246 c 0,20,21
 41 314 41 314 89 364.5 c 128,-1,22
 137 415 137 415 209 415 c 2,23,-1
 351 415 l 1,24,-1
 351 540 l 1,25,-1
 -10 540 l 1,26,-1
 -10 613 l 1,27,-1
 541 613 l 1,28,-1
 541 540 l 1,29,-1
 423 540 l 1,30,-1
 423 342 l 1,31,-1
 201 342 l 2,32,33
 178 342 178 342 160 330 c 128,-1,34
 142 318 142 318 133 300.5 c 128,-1,0
 124 283 124 283 119.5 268 c 128,-1,1
EndSplineSet
EndChar

StartChar: uni0921
Encoding: 268 2337 271
Width: 611
GlyphClass: 2
Flags: W
LayerCount: 2
Fore
SplineSet
189 377 m 0,0,1
 189 411 189 411 213.5 427.5 c 128,-1,2
 238 444 238 444 257 444 c 2,3,-1
 450 444 l 1,4,-1
 450 540 l 1,5,-1
 -10 540 l 1,6,-1
 -10 613 l 1,7,-1
 621 613 l 1,8,-1
 621 540 l 1,9,-1
 522 540 l 1,10,-1
 522 370 l 1,11,-1
 271 370 l 1,12,13
 291 321 291 321 318 290.5 c 128,-1,14
 345 260 345 260 371 260 c 0,15,16
 374 260 374 260 396.5 266 c 128,-1,17
 419 272 419 272 450.5 278.5 c 128,-1,18
 482 285 482 285 505 285 c 128,-1,19
 528 285 528 285 550 248.5 c 128,-1,20
 572 212 572 212 572 170 c 128,-1,21
 572 128 572 128 555 90 c 128,-1,22
 538 52 538 52 509.5 32 c 0,23,24
 455.35 -6 455.35 -6 394.675 -6 c 128,-1,25
 334 -6 334 -6 280 21 c 128,-1,26
 226 48 226 48 185 86.5 c 128,-1,27
 144 125 144 125 111 165.5 c 128,-1,28
 78 206 78 206 60 233.5 c 128,-1,29
 42 261 42 261 42 266 c 1,30,-1
 93 312 l 1,31,32
 138.660550459 238.073394495 138.660550459 238.073394495 206 164 c 0,33,34
 246 120 246 120 293.5 92.5 c 128,-1,35
 341 65 341 65 386 65 c 0,36,37
 499 65 499 65 499 177 c 0,38,39
 499 211 499 211 468 211 c 0,40,41
 456 211 456 211 420 200 c 128,-1,42
 384 189 384 189 364 187 c 1,43,44
 310 187 310 187 249.5 253.5 c 128,-1,45
 189 320 189 320 189 377 c 0,0,1
EndSplineSet
EndChar

StartChar: uni0922
Encoding: 269 2338 272
Width: 538
GlyphClass: 2
Flags: W
LayerCount: 2
Fore
SplineSet
367 66 m 1,0,1
 389 71 389 71 409 91.5 c 128,-1,2
 429 112 429 112 429 135 c 0,3,4
 429 194 429 194 379 194 c 0,5,6
 333 194 333 194 333 144 c 128,-1,7
 333 94 333 94 367 66 c 1,0,1
49 252 m 0,8,9
 49 297.032258065 49 297.032258065 79.5 360 c 0,10,11
 95 392 95 392 127.5 414 c 128,-1,12
 160 436 160 436 203 436 c 2,13,-1
 355 436 l 1,14,-1
 355 540 l 1,15,-1
 -10 540 l 1,16,-1
 -10 613 l 1,17,-1
 548 613 l 1,18,-1
 548 540 l 1,19,-1
 429 540 l 1,20,-1
 429 362 l 1,21,-1
 213 362 l 2,22,23
 172 362 172 362 147 331 c 128,-1,24
 122 300 122 300 122 245.5 c 128,-1,25
 122 191 122 191 166.5 138.5 c 128,-1,26
 211 86 211 86 288 66 c 1,27,28
 262 105 262 105 262 153.5 c 128,-1,29
 262 202 262 202 293 235 c 128,-1,30
 324 268 324 268 367.5 268 c 128,-1,31
 411 268 411 268 437.5 253 c 128,-1,32
 464 238 464 238 477 216 c 0,33,34
 502 173.692307692 502 173.692307692 502 137.346153846 c 128,-1,35
 502 101 502 101 484.5 70.5 c 128,-1,36
 467 40 467 40 438 24 c 0,37,38
 383.625 -6 383.625 -6 318 -6 c 0,39,40
 214 -6 214 -6 131.5 68 c 128,-1,41
 49 142 49 142 49 252 c 0,8,9
EndSplineSet
EndChar

StartChar: uni0923
Encoding: 270 2339 273
Width: 608
GlyphClass: 2
Flags: W
LayerCount: 2
Fore
SplineSet
187 269 m 0,0,1
 217 269 217 269 239.5 289.5 c 128,-1,2
 262 310 262 310 262 359 c 2,3,-1
 262 540 l 1,4,-1
 115 540 l 1,5,-1
 115 355 l 2,6,7
 115 269 115 269 187 269 c 0,0,1
618 540 m 1,8,-1
 537 540 l 1,9,-1
 537 0 l 1,10,-1
 463 0 l 1,11,-1
 463 540 l 1,12,-1
 335 540 l 1,13,-1
 335 347 l 2,14,15
 335 284 335 284 296.5 239.5 c 128,-1,16
 258 195 258 195 192.5 195 c 128,-1,17
 127 195 127 195 84.5 238 c 128,-1,18
 42 281 42 281 42 342 c 2,19,-1
 42 540 l 1,20,-1
 -10 540 l 1,21,-1
 -10 613 l 1,22,-1
 618 613 l 1,23,-1
 618 540 l 1,8,-1
EndSplineSet
EndChar

StartChar: uni0924
Encoding: 271 2340 274
Width: 564
GlyphClass: 2
Flags: W
LayerCount: 2
Fore
SplineSet
47.5 261 m 128,-1,1
 42 287 42 287 42 314 c 128,-1,2
 42 341 42 341 50 367 c 128,-1,3
 58 393 58 393 82.5 414.5 c 128,-1,4
 107 436 107 436 146 436 c 2,5,-1
 420 436 l 1,6,-1
 420 540 l 1,7,-1
 -10 540 l 1,8,-1
 -10 613 l 1,9,-1
 574 613 l 1,10,-1
 574 540 l 1,11,-1
 493 540 l 1,12,-1
 493 0 l 1,13,-1
 420 0 l 1,14,-1
 420 362 l 1,15,-1
 180 362 l 2,16,17
 117 362 117 362 115 303 c 1,18,19
 115 241 115 241 181.5 160.5 c 128,-1,20
 248 80 248 80 285 53 c 1,21,-1
 233 -1 l 1,22,-1
 220 10 l 1,23,24
 167.346938776 58.2653061224 167.346938776 58.2653061224 149.173469388 80.6326530612 c 128,-1,25
 131 103 131 103 114.5 123.5 c 128,-1,26
 98 144 98 144 86 166 c 128,-1,27
 74 188 74 188 63.5 211.5 c 128,-1,0
 53 235 53 235 47.5 261 c 128,-1,1
EndSplineSet
EndChar

StartChar: uni0925
Encoding: 272 2341 275
Width: 660
GlyphClass: 2
Flags: W
LayerCount: 2
Fore
SplineSet
304 188 m 0,0,1
 418 188 418 188 515 323 c 1,2,-1
 515 540 l 1,3,-1
 411 540 l 1,4,-1
 411 613 l 1,5,-1
 670 613 l 1,6,-1
 670 540 l 1,7,-1
 588 540 l 1,8,-1
 588 0 l 1,9,-1
 515 0 l 1,10,-1
 515 211 l 1,11,12
 499 195 499 195 467 172 c 128,-1,13
 435 149 435 149 421.5 142.5 c 128,-1,14
 408 136 408 136 389 128.5 c 0,15,16
 355.270358306 115.185667752 355.270358306 115.185667752 305 113 c 1,17,18
 204 113 204 113 124 190.5 c 128,-1,19
 44 268 44 268 42 329 c 1,20,21
 82 317 82 317 131 317 c 0,22,23
 294 317 294 317 294 440 c 0,24,25
 294 481 294 481 267.5 508 c 128,-1,26
 241 535 241 535 195 538 c 1,27,28
 129 538 129 538 129 492 c 0,29,30
 129 444 129 444 188 444 c 0,31,32
 194 444 194 444 204 446 c 1,33,-1
 204 379 l 1,34,35
 55 379 55 379 55 494 c 0,36,37
 55 526 55 526 72 550 c 128,-1,38
 89 574 89 574 114.5 586.5 c 0,39,40
 162.44 610 162.44 610 198 610 c 0,41,42
 272 610 272 610 319.5 559.5 c 128,-1,43
 367 509 367 509 367 440 c 0,44,45
 367 280 367 280 168 253 c 1,46,47
 213 188 213 188 304 188 c 0,0,1
EndSplineSet
EndChar

StartChar: uni0926
Encoding: 273 2342 276
Width: 500
GlyphClass: 2
Flags: W
LayerCount: 2
Fore
SplineSet
76.5 400.5 m 128,-1,1
 111 444 111 444 163 444 c 2,2,-1
 354 444 l 1,3,-1
 354 540 l 1,4,-1
 -10 540 l 1,5,-1
 -10 613 l 1,6,-1
 510 613 l 1,7,-1
 510 540 l 1,8,-1
 428 540 l 1,9,-1
 428 370 l 1,10,-1
 188 370 l 2,11,12
 155 370 155 370 135 348.5 c 128,-1,13
 115 327 115 327 115 294 c 0,14,15
 115 162 115 162 318 162 c 1,16,17
 318 188 318 188 317 191 c 1,18,19
 317 258 317 258 387 258 c 0,20,21
 408 258 408 258 427 239 c 128,-1,22
 446 220 446 220 446 191 c 0,23,24
 446 142 446 142 402 113 c 1,25,26
 438 34 438 34 496 -39 c 1,27,-1
 398 -39 l 1,28,29
 365 17 365 17 340 89 c 1,30,31
 267 89 267 89 212 103 c 128,-1,32
 157 117 157 117 125.5 137.5 c 128,-1,33
 94 158 94 158 74.5 186.5 c 0,34,35
 42 234 42 234 42 295.5 c 128,-1,0
 42 357 42 357 76.5 400.5 c 128,-1,1
EndSplineSet
EndChar

StartChar: uni0928
Encoding: 274 2344 277
Width: 568
GlyphClass: 2
Flags: W
LayerCount: 2
Fore
SplineSet
42 342 m 128,-1,1
 42 362 42 362 56.5 380.5 c 128,-1,2
 71 399 71 399 93 399 c 2,3,-1
 423 399 l 1,4,-1
 423 540 l 1,5,-1
 -10 540 l 1,6,-1
 -10 613 l 1,7,-1
 578 613 l 1,8,-1
 578 540 l 1,9,-1
 497 540 l 1,10,-1
 497 0 l 1,11,-1
 423 0 l 1,12,-1
 423 327 l 1,13,-1
 199 327 l 1,14,-1
 199 239 l 2,15,16
 199 215 199 215 194 209 c 128,-1,17
 189 203 189 203 166 203 c 0,18,19
 150 203 150 203 96 262.5 c 128,-1,0
 42 322 42 322 42 342 c 128,-1,1
EndSplineSet
EndChar

StartChar: uni092A
Encoding: 275 2346 278
Width: 479
GlyphClass: 2
Flags: W
LayerCount: 2
Fore
SplineSet
219 240 m 0,0,1
 279 240 279 240 334 295 c 1,2,-1
 334 540 l 1,3,-1
 115 540 l 1,4,-1
 115 322 l 2,5,6
 115 285 115 285 144.5 262.5 c 128,-1,7
 174 240 174 240 219 240 c 0,0,1
334 205 m 1,8,9
 292 166 292 166 219 166 c 128,-1,10
 146 166 146 166 94 210 c 128,-1,11
 42 254 42 254 42 318 c 2,12,-1
 42 540 l 1,13,-1
 -10 540 l 1,14,-1
 -10 613 l 1,15,-1
 489 613 l 1,16,-1
 489 540 l 1,17,-1
 406 540 l 1,18,-1
 406 0 l 1,19,-1
 334 0 l 1,20,-1
 334 205 l 1,8,9
EndSplineSet
EndChar

StartChar: uni092B
Encoding: 276 2347 279
Width: 733
GlyphClass: 2
Flags: W
LayerCount: 2
Fore
SplineSet
115 322 m 2,0,1
 115 285 115 285 144.5 262.5 c 128,-1,2
 174 240 174 240 226 240 c 128,-1,3
 278 240 278 240 334 288 c 1,4,-1
 334 540 l 1,5,-1
 115 540 l 1,6,-1
 115 322 l 2,0,1
334 201 m 1,7,8
 284 166 284 166 215 166 c 128,-1,9
 146 166 146 166 94 210 c 128,-1,10
 42 254 42 254 42 318 c 2,11,-1
 42 540 l 1,12,-1
 -10 540 l 1,13,-1
 -10 613 l 1,14,-1
 743 613 l 1,15,-1
 743 540 l 1,16,-1
 406 540 l 1,17,-1
 406 354 l 1,18,19
 474 417 474 417 523 417 c 0,20,21
 592 417 592 417 639 373.5 c 128,-1,22
 686 330 686 330 686 262 c 0,23,24
 686 176 686 176 563 45 c 1,25,-1
 494 93 l 1,26,27
 528 110 528 110 569.5 163 c 128,-1,28
 611 216 611 216 611 261.5 c 128,-1,29
 611 307 611 307 582.5 326 c 128,-1,30
 554 345 554 345 533 345 c 128,-1,31
 512 345 512 345 485.5 326 c 128,-1,32
 459 307 459 307 406 258 c 1,33,-1
 406 0 l 1,34,-1
 334 0 l 1,35,-1
 334 201 l 1,7,8
EndSplineSet
EndChar

StartChar: uni092C
Encoding: 277 2348 280
Width: 492
GlyphClass: 2
Flags: W
LayerCount: 2
Fore
SplineSet
115 289 m 0,0,1
 115 245 115 245 142.5 218 c 128,-1,2
 170 191 170 191 210.5 191 c 128,-1,3
 251 191 251 191 287 209 c 1,4,-1
 122 327 l 1,5,6
 115 313 115 313 115 289 c 0,0,1
333 240 m 1,7,8
 343 245 343 245 347 252 c 1,9,-1
 347 540 l 1,10,-1
 -10 540 l 1,11,-1
 -10 613 l 1,12,-1
 502 613 l 1,13,-1
 502 540 l 1,14,-1
 420 540 l 1,15,-1
 420 0 l 1,16,-1
 347 0 l 1,17,-1
 347 166 l 1,18,19
 282 119 282 119 225 118 c 128,-1,20
 168 117 168 117 130 137.5 c 128,-1,21
 92 158 92 158 74.5 188 c 0,22,23
 42 243.714285714 42 243.714285714 42 283 c 0,24,25
 42 352 42 352 86.5 404 c 128,-1,26
 131 456 131 456 201 456 c 0,27,28
 241 456 241 456 285 444 c 1,29,-1
 305 364 l 1,30,31
 249 382 249 382 214.5 382.5 c 128,-1,32
 180 383 180 383 154 367 c 1,33,-1
 333 240 l 1,7,8
EndSplineSet
EndChar

StartChar: uni092D
Encoding: 278 2349 281
Width: 578
GlyphClass: 2
Flags: W
LayerCount: 2
Fore
SplineSet
41 580.5 m 128,-1,1
 76 611 76 611 125.5 611 c 128,-1,2
 175 611 175 611 211.5 587.5 c 128,-1,3
 248 564 248 564 248 509 c 2,4,-1
 248 333 l 1,5,-1
 433 333 l 1,6,-1
 433 540 l 1,7,-1
 329 540 l 1,8,-1
 329 613 l 1,9,-1
 588 613 l 1,10,-1
 588 540 l 1,11,-1
 506 540 l 1,12,-1
 506 0 l 1,13,-1
 433 0 l 1,14,-1
 433 259 l 1,15,-1
 248 259 l 1,16,-1
 248 160 l 2,17,18
 248 148 248 148 216 148 c 0,19,20
 194 148 194 148 145 205 c 128,-1,21
 96 262 96 262 96 286 c 0,22,23
 96 300 96 300 109.5 316.5 c 128,-1,24
 123 333 123 333 134 333 c 2,25,-1
 175 333 l 1,26,-1
 175 487 l 2,27,28
 175 515 175 515 161.5 527 c 128,-1,29
 148 539 148 539 130 539 c 0,30,31
 78 539 78 539 78 492 c 0,32,33
 78 479 78 479 96 446 c 1,34,-1
 18 446 l 1,35,36
 6 475 6 475 6 502 c 0,37,0
 6 550 6 550 41 580.5 c 128,-1,1
EndSplineSet
EndChar

StartChar: uni092E
Encoding: 279 2350 282
Width: 518
GlyphClass: 2
Flags: W
LayerCount: 2
Fore
SplineSet
373 333 m 1,0,-1
 373 540 l 1,1,-1
 166 540 l 1,2,-1
 166 333 l 1,3,-1
 373 333 l 1,0,-1
14 286 m 0,4,5
 14 299 14 299 27.5 316 c 128,-1,6
 41 333 41 333 53 333 c 2,7,-1
 94 333 l 1,8,-1
 94 540 l 1,9,-1
 -10 540 l 1,10,-1
 -10 613 l 1,11,-1
 528 613 l 1,12,-1
 528 540 l 1,13,-1
 446 540 l 1,14,-1
 446 0 l 1,15,-1
 373 0 l 1,16,-1
 373 259 l 1,17,-1
 166 259 l 1,18,-1
 166 181 l 2,19,20
 166 162 166 162 161 155 c 128,-1,21
 156 148 156 148 133.5 148 c 128,-1,22
 111 148 111 148 62.5 204 c 128,-1,23
 14 260 14 260 14 286 c 0,4,5
EndSplineSet
EndChar

StartChar: uni0930
Encoding: 280 2352 283
Width: 435
GlyphClass: 2
Flags: W
LayerCount: 2
Fore
SplineSet
356 396 m 2,0,1
 356 345 356 345 318.5 312 c 128,-1,2
 281 279 281 279 227 279 c 0,3,4
 218 279 218 279 198 281 c 1,5,6
 256 197 256 197 316.5 123.5 c 128,-1,7
 377 50 377 50 393 41 c 1,8,-1
 342 -13 l 1,9,10
 270 59 270 59 232.5 109 c 128,-1,11
 195 159 195 159 185.5 171.5 c 128,-1,12
 176 184 176 184 151.5 218.5 c 128,-1,13
 127 253 127 253 117 268 c 0,14,15
 73 334 73 334 28 397 c 1,16,-1
 87 438 l 1,17,-1
 118 393 l 2,18,19
 147 352 147 352 221 352 c 0,20,21
 283 352 283 352 283 398 c 2,22,-1
 283 540 l 1,23,-1
 -10 540 l 1,24,-1
 -10 613 l 1,25,-1
 445 613 l 1,26,-1
 445 540 l 1,27,-1
 356 540 l 1,28,-1
 356 396 l 2,0,1
EndSplineSet
EndChar

StartChar: uni0932
Encoding: 281 2354 284
Width: 656
GlyphClass: 2
Flags: W
LayerCount: 2
Fore
SplineSet
115 248 m 0,0,1
 115 170.672727273 115 170.672727273 198.5 114.5 c 0,2,3
 232.727272727 91.4743801653 232.727272727 91.4743801653 272.363636364 72.7371900826 c 128,-1,4
 312 54 312 54 314 53 c 1,5,-1
 277 -11 l 1,6,7
 217.020080321 9.68273092369 217.020080321 9.68273092369 140 67 c 0,8,9
 97 99 97 99 69.5 148 c 128,-1,10
 42 197 42 197 42 259 c 128,-1,11
 42 321 42 321 91.5 368.5 c 128,-1,12
 141 416 141 416 223.5 416 c 128,-1,13
 306 416 306 416 373 345 c 1,14,15
 439 411 439 411 511 416 c 1,16,-1
 511 540 l 1,17,-1
 -10 540 l 1,18,-1
 -10 613 l 1,19,-1
 666 613 l 1,20,-1
 666 540 l 1,21,-1
 585 540 l 1,22,-1
 585 0 l 1,23,-1
 511 0 l 1,24,-1
 511 344 l 1,25,26
 464 339 464 339 415 282 c 128,-1,27
 366 225 366 225 355 183 c 1,28,-1
 289 216 l 1,29,30
 297 258 297 258 327 289 c 1,31,32
 278 335 278 335 232 344 c 1,33,34
 185 344 185 344 150 322 c 128,-1,35
 115 300 115 300 115 248 c 0,0,1
EndSplineSet
EndChar

StartChar: uni0933
Encoding: 282 2355 285
Width: 661
GlyphClass: 2
Flags: W
LayerCount: 2
Fore
SplineSet
301 250 m 1,0,1
 295 292 295 292 269.5 324.5 c 128,-1,2
 244 357 244 357 203 357 c 0,3,4
 117 357 117 357 117 244 c 128,-1,5
 117 131 117 131 203 131 c 0,6,7
 229 131 229 131 248.5 145 c 128,-1,8
 268 159 268 159 278.5 181.5 c 0,9,10
 296.823529412 220.764705882 296.823529412 220.764705882 301 250 c 1,0,1
374 248 m 1,11,12
 374 209 374 209 403 170 c 128,-1,13
 432 131 432 131 471.5 131 c 128,-1,14
 511 131 511 131 532.5 168.5 c 128,-1,15
 554 206 554 206 554 251.5 c 128,-1,16
 554 297 554 297 534 327 c 128,-1,17
 514 357 514 357 474 357 c 0,18,19
 444.333333333 357 444.333333333 357 430.166666667 347 c 128,-1,20
 416 337 416 337 408 327.5 c 128,-1,21
 400 318 400 318 395.5 310 c 128,-1,22
 391 302 391 302 386.5 290.5 c 128,-1,23
 382 279 382 279 380.5 273 c 128,-1,24
 379 267 379 267 376 258 c 1,25,-1
 374 248 l 1,11,12
336 352 m 1,26,27
 348 376 348 376 379 402 c 128,-1,28
 410 428 410 428 447 433 c 1,29,-1
 447 540 l 1,30,-1
 -10 540 l 1,31,-1
 -10 613 l 1,32,-1
 671 613 l 1,33,-1
 671 540 l 1,34,-1
 521 540 l 1,35,-1
 521 430 l 1,36,37
 552 420 552 420 574 395.5 c 128,-1,38
 596 371 596 371 606.5 341.5 c 0,39,40
 623.483221477 293.785234899 623.483221477 293.785234899 626 251 c 1,41,42
 626 166 626 166 585 115 c 128,-1,43
 544 64 544 64 469 62 c 1,44,45
 375 62 375 62 336 151 c 1,46,47
 296 58 296 58 200 58 c 0,48,49
 128 58 128 58 86.5 109.5 c 128,-1,50
 45 161 45 161 45 244.5 c 128,-1,51
 45 328 45 328 91 380 c 128,-1,52
 137 432 137 432 205 432 c 0,53,54
 292 432 292 432 336 352 c 1,26,27
EndSplineSet
EndChar

StartChar: uni0936
Encoding: 283 2358 286
Width: 646
GlyphClass: 2
Flags: W
LayerCount: 2
Fore
SplineSet
351 540 m 1,0,1
 394 484 394 484 394 406.5 c 128,-1,2
 394 329 394 329 333.5 260.5 c 128,-1,3
 273 192 273 192 193 192 c 1,4,-1
 373 36 l 1,5,-1
 323 -16 l 1,6,-1
 40 232 l 1,7,-1
 86 285 l 1,8,-1
 133 245 l 1,9,10
 177.285714286 245 177.285714286 245 239 272 c 0,11,12
 271 286 271 286 293 316.5 c 128,-1,13
 315 347 315 347 316 387 c 1,14,15
 266 345 266 345 214 345 c 128,-1,16
 162 345 162 345 119.5 374 c 128,-1,17
 77 403 77 403 77 457.5 c 128,-1,18
 77 512 77 512 98 540 c 1,19,-1
 -10 540 l 1,20,-1
 -10 613 l 1,21,-1
 656 611 l 1,22,-1
 656 540 l 1,23,-1
 569 540 l 1,24,-1
 569 0 l 1,25,-1
 498 0 l 1,26,-1
 498 540 l 1,27,-1
 351 540 l 1,0,1
311 462 m 1,28,29
 288 539 288 539 219 540 c 0,30,31
 191 540 191 540 171.5 519 c 128,-1,32
 152 498 152 498 152 474.5 c 128,-1,33
 152 451 152 451 172 434.5 c 128,-1,34
 192 418 192 418 215.5 418 c 128,-1,35
 239 418 239 418 261 429.5 c 0,36,37
 297.666666667 448.666666667 297.666666667 448.666666667 311 462 c 1,28,29
EndSplineSet
EndChar

StartChar: uni0937
Encoding: 284 2359 287
Width: 479
GlyphClass: 2
Flags: W
LayerCount: 2
Fore
SplineSet
115 311 m 2,0,1
 115 273 115 273 144 251 c 128,-1,2
 173 229 173 229 219 229 c 0,3,4
 288 229 288 229 317 270 c 1,5,-1
 115 484 l 1,6,-1
 115 311 l 2,0,1
334 329 m 1,7,-1
 334 540 l 1,8,-1
 135 540 l 1,9,-1
 334 329 l 1,7,-1
334 193 m 1,10,11
 292 154 292 154 219 154 c 128,-1,12
 146 154 146 154 94 198 c 128,-1,13
 42 242 42 242 42 307 c 2,14,-1
 42 540 l 1,15,-1
 -10 540 l 1,16,-1
 -10 613 l 1,17,-1
 489 613 l 1,18,-1
 489 540 l 1,19,-1
 406 540 l 1,20,-1
 406 0 l 1,21,-1
 334 0 l 1,22,-1
 334 193 l 1,10,11
EndSplineSet
EndChar

StartChar: uni0938
Encoding: 285 2360 288
Width: 667
GlyphClass: 2
Flags: W
LayerCount: 2
Fore
SplineSet
521 358 m 1,0,-1
 521 540 l 1,1,-1
 356 540 l 1,2,-1
 356 396 l 2,3,4
 356 381 356 381 351 358 c 1,5,-1
 521 358 l 1,0,-1
677 540 m 1,6,-1
 596 540 l 1,7,-1
 596 0 l 1,8,-1
 521 0 l 1,9,-1
 521 286 l 1,10,-1
 357 286 l 1,11,-1
 330 323 l 1,12,13
 292 279 292 279 224 279 c 0,14,15
 208 279 208 279 198 281 c 1,16,17
 249 208 249 208 297 149 c 0,18,19
 379.285714286 47.8571428571 379.285714286 47.8571428571 393 41 c 1,20,-1
 342 -13 l 1,21,22
 270 59 270 59 232.5 109 c 128,-1,23
 195 159 195 159 185.5 171.5 c 128,-1,24
 176 184 176 184 151.5 218.5 c 128,-1,25
 127 253 127 253 117 268 c 0,26,27
 73 334 73 334 28 397 c 1,28,-1
 87 438 l 1,29,-1
 118 393 l 2,30,31
 147 352 147 352 221 352 c 0,32,33
 283 352 283 352 283 398 c 2,34,-1
 283 540 l 1,35,-1
 -10 540 l 1,36,-1
 -10 613 l 1,37,-1
 677 613 l 1,38,-1
 677 540 l 1,6,-1
EndSplineSet
EndChar

StartChar: uni0939
Encoding: 286 2361 289
Width: 486
GlyphClass: 2
Flags: W
LayerCount: 2
Fore
SplineSet
167 190 m 128,-1,1
 123 161 123 161 123 127 c 128,-1,2
 123 93 123 93 148 68.5 c 128,-1,3
 173 44 173 44 213.5 28.5 c 0,4,5
 292.595092025 -1.77096114519 292.595092025 -1.77096114519 379 -10 c 1,6,-1
 362 -70 l 1,7,8
 319.75862069 -70 319.75862069 -70 255.879310345 -50.5 c 128,-1,9
 192 -31 192 -31 151 -10 c 128,-1,10
 110 11 110 11 80.5 47.5 c 128,-1,11
 51 84 51 84 51 129 c 0,12,13
 51 186 51 186 116 242 c 1,14,15
 41 317 41 317 41 379 c 0,16,17
 41 406 41 406 58.5 425 c 128,-1,18
 76 444 76 444 101 444 c 2,19,-1
 339 444 l 1,20,-1
 339 540 l 1,21,-1
 -10 540 l 1,22,-1
 -10 613 l 1,23,-1
 496 613 l 1,24,-1
 496 540 l 1,25,-1
 411 540 l 1,26,-1
 411 370 l 1,27,-1
 130 370 l 2,28,29
 122 370 122 370 122 360 c 128,-1,30
 122 350 122 350 140 322.5 c 128,-1,31
 158 295 158 295 180 277 c 1,32,33
 227 293 227 293 265 293 c 128,-1,34
 303 293 303 293 331.5 287.5 c 128,-1,35
 360 282 360 282 388.5 268.5 c 128,-1,36
 417 255 417 255 433.5 227 c 128,-1,37
 450 199 450 199 450 169 c 128,-1,38
 450 139 450 139 439 118 c 128,-1,39
 428 97 428 97 419 87.5 c 128,-1,40
 410 78 410 78 391 61 c 1,41,-1
 332 107 l 1,42,43
 376 130 376 130 377 163 c 0,44,45
 377 187 377 187 346.5 203 c 128,-1,46
 316 219 316 219 263.5 219 c 128,-1,0
 211 219 211 219 167 190 c 128,-1,1
EndSplineSet
EndChar

StartChar: uni093C
Encoding: 287 2364 290
Width: 0
GlyphClass: 2
Flags: W
LayerCount: 2
Fore
SplineSet
-408 77 m 1,0,-1
 -334 3 l 1,1,-1
 -408 -71 l 1,2,-1
 -482 3 l 1,3,-1
 -408 77 l 1,0,-1
EndSplineSet
EndChar

StartChar: uni093E
Encoding: 288 2366 291
Width: 226
GlyphClass: 2
Flags: W
LayerCount: 2
Fore
SplineSet
236 540 m 1,0,-1
 149 540 l 1,1,-1
 149 0 l 1,2,-1
 77 0 l 1,3,-1
 77 540 l 1,4,-1
 -10 540 l 1,5,-1
 -10 613 l 1,6,-1
 236 613 l 1,7,-1
 236 540 l 1,0,-1
EndSplineSet
EndChar

StartChar: uni093F
Encoding: 289 2367 292
Width: 226
GlyphClass: 2
Flags: W
LayerCount: 2
Fore
SplineSet
648 613 m 1,0,-1
 564 613 l 1,1,2
 502.68161435 684.538116592 502.68161435 684.538116592 430.5 732 c 0,3,4
 394 756 394 756 340.5 776 c 128,-1,5
 287 796 287 796 236 796 c 0,6,7
 129 796 129 796 129 686 c 0,8,9
 129 662 129 662 143 613 c 1,10,-1
 236 613 l 1,11,-1
 236 540 l 1,12,-1
 149 540 l 1,13,-1
 149 0 l 1,14,-1
 77 0 l 1,15,-1
 77 540 l 1,16,-1
 -10 540 l 1,17,-1
 -10 613 l 1,18,-1
 75 613 l 1,19,20
 58 667 58 667 58 691 c 0,21,22
 58 769 58 769 113 819 c 128,-1,23
 168 869 168 869 253 869 c 0,24,25
 441 869 441 869 648 613 c 1,0,-1
EndSplineSet
EndChar

StartChar: uni0940
Encoding: 290 2368 293
Width: 226
GlyphClass: 2
Flags: W
LayerCount: 2
Fore
SplineSet
-192.5 811.5 m 128,-1,1
 -142 855 -142 855 -56 855 c 128,-1,2
 30 855 30 855 90 797.5 c 128,-1,3
 150 740 150 740 150 645 c 0,4,5
 150 620 150 620 149 613 c 1,6,-1
 236 613 l 1,7,-1
 236 540 l 1,8,-1
 149 540 l 1,9,-1
 149 1 l 1,10,-1
 77 1 l 1,11,-1
 77 540 l 1,12,-1
 -10 540 l 1,13,-1
 -10 613 l 1,14,-1
 79 613 l 1,15,16
 82 634 82 634 82 644 c 0,17,18
 82 706 82 706 41 745 c 128,-1,19
 0 784 0 784 -61 784 c 0,20,21
 -88.4615384615 784 -88.4615384615 784 -116.230769231 774.5 c 0,22,23
 -168.926372155 756.472556894 -168.926372155 756.472556894 -171 715 c 1,24,25
 -171 672 -171 672 -124 613 c 1,26,-1
 -202 613 l 1,27,28
 -243 665 -243 665 -243 716.5 c 128,-1,0
 -243 768 -243 768 -192.5 811.5 c 128,-1,1
EndSplineSet
EndChar

StartChar: uni0941
Encoding: 291 2369 294
Width: 0
GlyphClass: 2
Flags: W
LayerCount: 2
Fore
SplineSet
-113 -75 m 0,0,1
 -166 -75 -166 -75 -217 -120 c 1,2,-1
 -257 -72 l 1,3,4
 -198 -14 -198 -14 -120 -14 c 128,-1,5
 -42 -14 -42 -14 -14.5 -50.5 c 128,-1,6
 13 -87 13 -87 13 -133 c 0,7,8
 13 -197 13 -197 -40.5 -231.5 c 128,-1,9
 -94 -266 -94 -266 -176 -266 c 0,10,11
 -307.97826087 -266 -307.97826087 -266 -374.5 -206 c 0,12,13
 -431.358262427 -154.716077026 -431.358262427 -154.716077026 -447 -55 c 1,14,-1
 -376 -55 l 1,15,16
 -363 -132 -363 -132 -304 -168 c 128,-1,17
 -245 -204 -245 -204 -180.5 -204 c 0,18,19
 -54 -204 -54 -204 -54 -133 c 0,20,21
 -54 -107 -54 -107 -70 -91 c 128,-1,22
 -86 -75 -86 -75 -113 -75 c 0,0,1
EndSplineSet
EndChar

StartChar: uni0943
Encoding: 292 2371 295
Width: 0
GlyphClass: 2
Flags: W
LayerCount: 2
Fore
SplineSet
-430.5 -184.5 m 128,-1,1
 -402 -201 -402 -201 -361 -201 c 128,-1,2
 -320 -201 -320 -201 -275 -171 c 1,3,-1
 -241 -222 l 1,4,5
 -287 -268 -287 -268 -356 -268 c 0,6,7
 -415.2 -268 -415.2 -268 -466.5 -245.5 c 0,8,9
 -495 -233 -495 -233 -513 -206.5 c 128,-1,10
 -531 -180 -531 -180 -531 -143 c 0,11,12
 -531 -87 -531 -87 -496.5 -50.5 c 128,-1,13
 -462 -14 -462 -14 -405 -14 c 2,14,-1
 -308 -14 l 1,15,-1
 -308 -75 l 1,16,-1
 -392 -75 l 2,17,18
 -423 -75 -423 -75 -441 -93 c 128,-1,19
 -459 -111 -459 -111 -459 -139.5 c 128,-1,0
 -459 -168 -459 -168 -430.5 -184.5 c 128,-1,1
EndSplineSet
EndChar

StartChar: uni0945
Encoding: 293 2373 296
Width: 0
GlyphClass: 2
Flags: W
LayerCount: 2
Fore
SplineSet
-35 750.5 m 128,-1,1
 0 773 0 773 1 827 c 1,2,-1
 74 827 l 1,3,4
 74 749 74 749 18.5 702.5 c 128,-1,5
 -37 656 -37 656 -112.5 656 c 128,-1,6
 -188 656 -188 656 -243.5 703.5 c 128,-1,7
 -299 751 -299 751 -300 827 c 1,8,-1
 -229 827 l 1,9,10
 -229 798 -229 798 -214.5 776.5 c 128,-1,11
 -200 755 -200 755 -179 745.5 c 0,12,13
 -140.315789474 728 -140.315789474 728 -105.157894737 728 c 128,-1,0
 -70 728 -70 728 -35 750.5 c 128,-1,1
EndSplineSet
EndChar

StartChar: uni0947
Encoding: 294 2375 297
Width: 0
GlyphClass: 2
Flags: W
LayerCount: 2
Fore
SplineSet
-76 613 m 1,0,-1
 -151 613 l 1,1,-1
 -388 841 l 1,2,-1
 -327 900 l 1,3,-1
 -76 613 l 1,0,-1
EndSplineSet
EndChar

StartChar: uni0948
Encoding: 295 2376 298
Width: 0
GlyphClass: 2
Flags: W
LayerCount: 2
Fore
SplineSet
-72 613 m 1,0,-1
 -141 613 l 1,1,-1
 -416 728 l 1,2,-1
 -387 788 l 1,3,-1
 -187 698 l 1,4,-1
 -273 865 l 1,5,-1
 -211 900 l 1,6,-1
 -72 613 l 1,0,-1
EndSplineSet
EndChar

StartChar: uni094B
Encoding: 297 2379 300
Width: 226
GlyphClass: 2
Flags: W
LayerCount: 2
Fore
SplineSet
236 540 m 1,0,-1
 149 540 l 1,1,-1
 149 0 l 1,2,-1
 77 0 l 1,3,-1
 77 540 l 1,4,-1
 -10 540 l 1,5,-1
 -10 613 l 1,6,-1
 77 613 l 1,7,-1
 -160 840 l 1,8,-1
 -99 899 l 1,9,-1
 152 613 l 1,10,-1
 236 613 l 1,11,-1
 236 540 l 1,0,-1
EndSplineSet
EndChar

StartChar: uni094D
Encoding: 298 2381 301
Width: 0
GlyphClass: 2
Flags: W
LayerCount: 2
Fore
SplineSet
57 -198 m 1,0,-1
 24 -230 l 1,1,-1
 -162 -25 l 1,2,-1
 -75 -25 l 1,3,-1
 57 -198 l 1,0,-1
EndSplineSet
EndChar

StartChar: uni0982
Encoding: 300 2434 303
Width: 331
GlyphClass: 2
Flags: W
LayerCount: 2
Fore
SplineSet
222 350.5 m 128,-1,1
 244 371 244 371 244 400 c 128,-1,2
 244 429 244 429 222 449.5 c 128,-1,3
 200 470 200 470 169 470 c 128,-1,4
 138 470 138 470 116 449.5 c 128,-1,5
 94 429 94 429 94 400 c 128,-1,6
 94 371 94 371 116 350.5 c 128,-1,7
 138 330 138 330 169 330 c 128,-1,0
 200 330 200 330 222 350.5 c 128,-1,1
87.5 322 m 128,-1,9
 54 354 54 354 54 400 c 128,-1,10
 54 446 54 446 87.5 478 c 128,-1,11
 121 510 121 510 169 510 c 128,-1,12
 217 510 217 510 250.5 478 c 128,-1,13
 284 446 284 446 284 400 c 128,-1,14
 284 354 284 354 250.5 322 c 128,-1,15
 217 290 217 290 169 290 c 128,-1,8
 121 290 121 290 87.5 322 c 128,-1,9
269 -30 m 1,16,17
 189.528722492 106.527579308 189.528722492 106.527579308 29 200 c 1,18,-1
 49 235 l 1,19,20
 217.125 138.928571429 217.125 138.928571429 304 -10 c 1,21,-1
 269 -30 l 1,16,17
EndSplineSet
EndChar

StartChar: uni0985
Encoding: 301 2437 304
Width: 666
GlyphClass: 2
Flags: W
AnchorPoint: "Anchor-1" 561 0 basechar 0
LayerCount: 2
Fore
SplineSet
453 234 m 0,0,1
 453 227 453 227 451 215 c 1,2,3
 509.15920398 194.228855721 509.15920398 194.228855721 536 155 c 1,4,-1
 536 465 l 1,5,-1
 271 465 l 1,6,7
 296 442.083333333 296 442.083333333 296 395 c 1,8,9
 361 395 361 395 407 348 c 128,-1,10
 453 301 453 301 453 234 c 0,0,1
256 390 m 1,11,12
 256 436.176470588 256 436.176470588 221 465 c 1,13,-1
 -10 465 l 1,14,-1
 -10 500 l 1,15,-1
 676 500 l 1,16,-1
 676 465 l 1,17,-1
 576 465 l 1,18,-1
 576 0 l 1,19,-1
 536 0 l 1,20,-1
 536 105 l 1,21,22
 496.947986577 160.494966443 496.947986577 160.494966443 441 175 c 1,23,24
 421 132 421 132 379 106 c 128,-1,25
 337 80 337 80 286 80 c 0,26,27
 195 80 195 80 121 159.5 c 128,-1,28
 47 239 47 239 26 360 c 1,29,-1
 66 365 l 1,30,31
 85 259 85 259 147 189.5 c 128,-1,32
 209 120 209 120 286 120 c 0,33,34
 338 120 338 120 374.5 153.5 c 128,-1,35
 411 187 411 187 411 236 c 128,-1,36
 411 285 411 285 379 320 c 128,-1,37
 347 355 347 355 301 355 c 1,38,39
 310 343.75 310 343.75 310 325.875 c 128,-1,40
 310 308 310 308 294 291.5 c 128,-1,41
 278 275 278 275 254.5 275 c 128,-1,42
 231 275 231 275 213.5 291 c 128,-1,43
 196 307 196 307 196 330 c 128,-1,44
 196 353 196 353 213.5 370.5 c 128,-1,45
 231 388 231 388 256 390 c 1,11,12
EndSplineSet
EndChar

StartChar: uni0987
Encoding: 302 2439 305
Width: 400
GlyphClass: 2
Flags: W
AnchorPoint: "Anchor-1" 180 4 basechar 0
LayerCount: 2
Fore
SplineSet
97 685 m 1,0,1
 62 665.3125 62 665.3125 62 644.15625 c 128,-1,2
 62 623 62 623 73.5 611.5 c 128,-1,3
 85 600 85 600 105.5 600 c 128,-1,4
 126 600 126 600 172 610 c 128,-1,5
 218 620 218 620 242 620 c 0,6,7
 288 620 288 620 320 585 c 128,-1,8
 352 550 352 550 352 500 c 1,9,-1
 410 500 l 1,10,-1
 410 465 l 1,11,-1
 152 465 l 1,12,13
 175.720930233 423.488372093 175.720930233 423.488372093 182 390 c 1,14,15
 248 384 248 384 292.5 346.5 c 128,-1,16
 337 309 337 309 337 259.5 c 128,-1,17
 337 210 337 210 297.5 170.5 c 128,-1,18
 258 131 258 131 197 120 c 1,19,20
 264 102 264 102 323.5 51.5 c 128,-1,21
 383 1 383 1 427 -75 c 1,22,-1
 387 -95 l 1,23,24
 344 -3 344 -3 246.5 51 c 128,-1,25
 149 105 149 105 27 105 c 1,26,-1
 22 145 l 1,27,-1
 97 140 l 1,28,29
 180 140 180 140 238.5 175 c 128,-1,30
 297 210 297 210 297 260 c 0,31,32
 297 297 297 297 265 323.5 c 128,-1,33
 233 350 233 350 187 350 c 1,34,35
 187 317 187 317 165 293.5 c 128,-1,36
 143 270 143 270 114 270 c 128,-1,37
 85 270 85 270 66 284.5 c 128,-1,38
 47 299 47 299 47 324 c 128,-1,39
 47 349 47 349 75 369.5 c 128,-1,40
 103 390 103 390 142 390 c 1,41,42
 133.764705882 433.235294118 133.764705882 433.235294118 102 465 c 1,43,-1
 -10 465 l 1,44,-1
 -10 500 l 1,45,-1
 312 500 l 1,46,47
 312 533 312 533 291.5 556.5 c 128,-1,48
 271 580 271 580 244.5 580 c 128,-1,49
 218 580 218 580 172 570 c 128,-1,50
 126 560 126 560 97.5 560 c 128,-1,51
 69 560 69 560 45.5 582 c 128,-1,52
 22 604 22 604 22 629.5 c 0,53,54
 22 677.631578947 22 677.631578947 62 705 c 1,55,-1
 97 685 l 1,0,1
EndSplineSet
EndChar

StartChar: uni09A3
Encoding: 303 2467 306
Width: 465
GlyphClass: 2
Flags: W
AnchorPoint: "Anchor-1" 355 0 basechar 0
AnchorPoint: "Anchor-0" 355 2 basechar 0
LayerCount: 2
Fore
SplineSet
335 305 m 2,0,1
 335 373 335 373 294 421.5 c 128,-1,2
 253 470 253 470 199 470 c 128,-1,3
 145 470 145 470 110 438 c 128,-1,4
 75 406 75 406 75 364 c 128,-1,5
 75 322 75 322 93.5 293.5 c 128,-1,6
 112 265 112 265 140 260 c 1,7,8
 134 283 134 283 148 301.5 c 128,-1,9
 162 320 162 320 184 320 c 128,-1,10
 206 320 206 320 220.5 305.5 c 128,-1,11
 235 291 235 291 235 269 c 128,-1,12
 235 247 235 247 216 231 c 128,-1,13
 197 215 197 215 170 215 c 0,14,15
 114 215 114 215 74.5 257.5 c 128,-1,16
 35 300 35 300 35 361 c 128,-1,17
 35 422 35 422 82 466 c 128,-1,18
 129 510 129 510 195 510 c 0,19,20
 241 510 241 510 279 487 c 128,-1,21
 317 464 317 464 335 425 c 1,22,-1
 335 560 l 1,23,-1
 375 560 l 1,24,-1
 375 500 l 1,25,-1
 475 500 l 1,26,-1
 475 465 l 1,27,-1
 375 465 l 1,28,-1
 375 0 l 1,29,-1
 335 0 l 1,30,-1
 335 305 l 2,0,1
EndSplineSet
EndChar

StartChar: uni09A4
Encoding: 304 2468 307
Width: 577
GlyphClass: 2
Flags: W
AnchorPoint: "Anchor-1" 358 0 basechar 0
AnchorPoint: "Anchor-0" 320 -35 basechar 0
LayerCount: 2
Fore
SplineSet
-10 500 m 1,0,-1
 587 500 l 1,1,-1
 587 465 l 1,2,-1
 -10 465 l 1,3,-1
 -10 500 l 1,0,-1
276 285 m 1,4,5
 288 288 288 288 302 288 c 128,-1,6
 316 288 316 288 331 274 c 128,-1,7
 346 260 346 260 346 239.5 c 128,-1,8
 346 219 346 219 330 204.5 c 128,-1,9
 314 190 314 190 289 190 c 128,-1,10
 264 190 264 190 245 210.5 c 128,-1,11
 226 231 226 231 226 260 c 0,12,13
 226 306 226 306 262.5 338 c 128,-1,14
 299 370 299 370 351 370 c 0,15,16
 426 370 426 370 478.5 318.5 c 128,-1,17
 531 267 531 267 531 188.5 c 128,-1,18
 531 110 531 110 468 50 c 128,-1,19
 405 -10 405 -10 316 -10 c 0,20,21
 200 -10 200 -10 118 89.5 c 128,-1,22
 36 189 36 189 36 330 c 1,23,-1
 76 335 l 1,24,25
 76 207 76 207 146.5 116 c 128,-1,26
 217 25 217 25 316 25 c 0,27,28
 388 25 388 25 439.5 75 c 128,-1,29
 491 125 491 125 491 188 c 128,-1,30
 491 251 491 251 450 290.5 c 128,-1,31
 409 330 409 330 351 330 c 0,32,33
 321 330 321 330 299.5 317 c 128,-1,34
 278 304 278 304 276 285 c 1,4,5
EndSplineSet
EndChar

StartChar: uni09A8
Encoding: 305 2472 308
Width: 459
GlyphClass: 2
Flags: W
AnchorPoint: "Anchor-1" 345 0 basechar 0
AnchorPoint: "Anchor-0" 350 4 basechar 0
LayerCount: 2
Fore
SplineSet
329 155 m 1,0,1
 318 218 318 218 272.5 259 c 128,-1,2
 227 300 227 300 169 300 c 0,3,4
 142 300 142 300 121.5 290.5 c 128,-1,5
 101 281 101 281 94 265 c 1,6,7
 123 265 123 265 143.5 247.5 c 128,-1,8
 164 230 164 230 164 206 c 128,-1,9
 164 182 164 182 144 166 c 128,-1,10
 124 150 124 150 96 150 c 128,-1,11
 68 150 68 150 48.5 169 c 128,-1,12
 29 188 29 188 29 215 c 0,13,14
 29 267 29 267 70 303.5 c 128,-1,15
 111 340 111 340 165.5 340 c 128,-1,16
 220 340 220 340 263 317 c 128,-1,17
 306 294 306 294 329 255 c 1,18,-1
 329 465 l 1,19,-1
 -10 465 l 1,20,-1
 -10 500 l 1,21,-1
 469 500 l 1,22,-1
 469 465 l 1,23,-1
 369 465 l 1,24,-1
 369 0 l 1,25,-1
 329 0 l 1,26,-1
 329 155 l 1,0,1
EndSplineSet
EndChar

StartChar: uni09AA
Encoding: 306 2474 309
Width: 522
GlyphClass: 2
Flags: W
AnchorPoint: "Anchor-1" 415 0 basechar 0
AnchorPoint: "Anchor-0" 419 1 basechar 0
LayerCount: 2
Fore
SplineSet
302 410 m 1,0,1
 252 460 252 460 207 460 c 0,2,3
 154.368421053 460 154.368421053 460 87 380 c 1,4,5
 127 373 127 373 157.5 352 c 128,-1,6
 188 331 188 331 202 300 c 1,7,-1
 302 410 l 1,0,1
392 315 m 1,8,9
 373 346.666666667 373 346.666666667 327 385 c 1,10,-1
 157 185 l 1,11,-1
 127 210 l 1,12,-1
 177 270 l 1,13,14
 166 300 166 300 136.5 321.5 c 128,-1,15
 107 343 107 343 67 350 c 1,16,17
 61 336 61 336 52.5 328 c 128,-1,18
 44 320 44 320 36.5 320 c 128,-1,19
 29 320 29 320 23 324.5 c 128,-1,20
 17 329 17 329 17 335 c 1,21,22
 25 381 25 381 94.5 443 c 128,-1,23
 164 505 164 505 203.5 505 c 0,24,25
 282.967741935 505 282.967741935 505 392 375 c 1,26,-1
 392 560 l 1,27,-1
 432 560 l 1,28,-1
 432 500 l 1,29,-1
 532 500 l 1,30,-1
 532 465 l 1,31,-1
 432 465 l 1,32,-1
 432 0 l 1,33,-1
 392 0 l 1,34,-1
 392 315 l 1,8,9
EndSplineSet
EndChar

StartChar: uni09AC
Encoding: 307 2476 310
Width: 428
GlyphClass: 2
Flags: W
AnchorPoint: "Anchor-1" 316 0 basechar 0
AnchorPoint: "Anchor-0" 315 1 basechar 0
LayerCount: 2
Fore
SplineSet
298 365 m 1,0,1
 153.882352941 325.882352941 153.882352941 325.882352941 68 240 c 1,2,3
 133 229 133 229 192.5 187 c 128,-1,4
 252 145 252 145 298 80 c 1,5,-1
 298 365 l 1,0,1
18 250 m 1,6,7
 128.64516129 360.64516129 128.64516129 360.64516129 298 405 c 1,8,-1
 298 465 l 1,9,-1
 -10 465 l 1,10,-1
 -10 500 l 1,11,-1
 438 500 l 1,12,-1
 438 465 l 1,13,-1
 338 465 l 1,14,-1
 338 0 l 1,15,-1
 298 0 l 1,16,17
 269 79 269 79 199.5 134 c 128,-1,18
 130 189 130 189 38 205 c 1,19,-1
 18 250 l 1,6,7
EndSplineSet
EndChar

StartChar: uni09AE
Encoding: 308 2478 311
Width: 427
GlyphClass: 2
Flags: W
AnchorPoint: "Anchor-1" 316 0 basechar 0
AnchorPoint: "Anchor-0" 314 4 basechar 0
LayerCount: 2
Fore
SplineSet
87 465 m 1,0,1
 152 385.322580645 152 385.322580645 152 235 c 1,2,3
 200 227 200 227 238 202 c 128,-1,4
 276 177 276 177 297 140 c 1,5,-1
 297 465 l 1,6,-1
 87 465 l 1,0,1
256.5 130 m 128,-1,8
 216 185 216 185 157 190 c 1,9,10
 160 160 160 160 140.5 137.5 c 128,-1,11
 121 115 121 115 94 115 c 128,-1,12
 67 115 67 115 49.5 132.5 c 128,-1,13
 32 150 32 150 32 176 c 128,-1,14
 32 202 32 202 55.5 221 c 128,-1,15
 79 240 79 240 112 240 c 1,16,17
 112 321 112 321 92 380.5 c 128,-1,18
 72 440 72 440 37 465 c 1,19,-1
 -10 465 l 1,20,-1
 -10 500 l 1,21,-1
 437 500 l 1,22,-1
 437 465 l 1,23,-1
 337 465 l 1,24,-1
 337 0 l 1,25,-1
 297 0 l 1,26,7
 297 75 297 75 256.5 130 c 128,-1,8
EndSplineSet
EndChar

StartChar: uni09AF
Encoding: 309 2479 312
Width: 443
GlyphClass: 2
Flags: W
AnchorPoint: "Anchor-1" 332 -5 basechar 0
AnchorPoint: "Anchor-0" 337 4 basechar 0
LayerCount: 2
Fore
SplineSet
313 465 m 1,0,-1
 98 465 l 1,1,-1
 223 345 l 1,2,-1
 78 210 l 1,3,4
 153 197 153 197 214 160.5 c 128,-1,5
 275 124 275 124 313 70 c 1,6,-1
 313 465 l 1,0,-1
217.5 110 m 128,-1,8
 145 157 145 157 43 175 c 1,9,-1
 18 210 l 1,10,-1
 163 345 l 1,11,-1
 38 465 l 1,12,-1
 -10 465 l 1,13,-1
 -10 500 l 1,14,-1
 453 500 l 1,15,-1
 453 465 l 1,16,-1
 353 465 l 1,17,-1
 353 0 l 1,18,-1
 313 0 l 1,19,7
 290 63 290 63 217.5 110 c 128,-1,8
EndSplineSet
EndChar

StartChar: uni09B0
Encoding: 310 2480 313
Width: 423
GlyphClass: 2
Flags: W
AnchorPoint: "Anchor-1" 316 0 basechar 0
AnchorPoint: "Anchor-0" 316 4 basechar 0
LayerCount: 2
Fore
SplineSet
89.5 21.5 m 128,-1,1
 78 33 78 33 78 50 c 128,-1,2
 78 67 78 67 89.5 78.5 c 128,-1,3
 101 90 101 90 118 90 c 128,-1,4
 135 90 135 90 146.5 78.5 c 128,-1,5
 158 67 158 67 158 50 c 128,-1,6
 158 33 158 33 146.5 21.5 c 128,-1,7
 135 10 135 10 118 10 c 128,-1,0
 101 10 101 10 89.5 21.5 c 128,-1,1
293 365 m 1,8,9
 137.786535304 324.154351396 137.786535304 324.154351396 68 240 c 1,10,11
 138 228 138 228 197 186 c 128,-1,12
 256 144 256 144 293 80 c 1,13,-1
 293 365 l 1,8,9
197 135 m 128,-1,15
 130 190 130 190 43 205 c 1,16,-1
 23 245 l 1,17,18
 60 297 60 297 129.5 338.5 c 128,-1,19
 199 380 199 380 293 405 c 1,20,-1
 293 465 l 1,21,-1
 -10 465 l 1,22,-1
 -10 500 l 1,23,-1
 433 500 l 1,24,-1
 433 465 l 1,25,-1
 333 465 l 1,26,-1
 333 0 l 1,27,-1
 293 0 l 1,28,14
 264 80 264 80 197 135 c 128,-1,15
EndSplineSet
EndChar

StartChar: uni09B2
Encoding: 311 2482 314
Width: 573
GlyphClass: 2
Flags: W
AnchorPoint: "Anchor-1" 465 0 basechar 0
AnchorPoint: "Anchor-0" 462 2 basechar 0
LayerCount: 2
Fore
SplineSet
163 155 m 1,0,1
 152 166 152 166 152 184.5 c 128,-1,2
 152 203 152 203 168.5 219 c 128,-1,3
 185 235 185 235 208 235 c 128,-1,4
 231 235 231 235 247 219 c 128,-1,5
 263 203 263 203 263 178 c 128,-1,6
 263 153 263 153 236.5 134 c 128,-1,7
 210 115 210 115 173 115 c 0,8,9
 117 115 117 115 77.5 154.5 c 128,-1,10
 38 194 38 194 38 251 c 128,-1,11
 38 308 38 308 79 349 c 128,-1,12
 120 390 120 390 178 390 c 0,13,14
 213 390 213 390 241.5 373.5 c 128,-1,15
 270 357 270 357 283 330 c 1,16,17
 296 357 296 357 317.5 373.5 c 128,-1,18
 339 390 339 390 362 390 c 128,-1,19
 385 390 385 390 406.5 375.5 c 128,-1,20
 428 361 428 361 443 335 c 1,21,-1
 443 465 l 1,22,-1
 -10 465 l 1,23,-1
 -10 500 l 1,24,-1
 583 500 l 1,25,-1
 583 465 l 1,26,-1
 483 465 l 1,27,-1
 483 0 l 1,28,-1
 443 0 l 1,29,-1
 443 260 l 1,30,31
 432 300 432 300 410 325 c 128,-1,32
 388 350 388 350 363 350 c 128,-1,33
 338 350 338 350 320.5 326.5 c 128,-1,34
 303 303 303 303 303 270 c 1,35,-1
 263 270 l 1,36,37
 260 304 260 304 235.5 327 c 128,-1,38
 211 350 211 350 174 350 c 128,-1,39
 137 350 137 350 107.5 320.5 c 128,-1,40
 78 291 78 291 78 251 c 128,-1,41
 78 211 78 211 103 183 c 128,-1,42
 128 155 128 155 163 155 c 1,0,1
EndSplineSet
EndChar

StartChar: uni09B7
Encoding: 312 2487 315
Width: 424
GlyphClass: 2
Flags: W
AnchorPoint: "Anchor-1" 312 -1 basechar 0
AnchorPoint: "Anchor-0" 309 5 basechar 0
LayerCount: 2
Fore
SplineSet
294 465 m 1,0,-1
 89 465 l 1,1,-1
 294 295 l 1,2,-1
 294 465 l 1,0,-1
294 250 m 1,3,-1
 194 330 l 1,4,-1
 74 225 l 1,5,6
 143 213 143 213 200 178 c 128,-1,7
 257 143 257 143 294 90 c 1,8,-1
 294 250 l 1,3,-1
203 129.5 m 128,-1,10
 133 182 133 182 39 190 c 1,11,-1
 19 230 l 1,12,-1
 159 355 l 1,13,-1
 34 465 l 1,14,-1
 -10 465 l 1,15,-1
 -10 500 l 1,16,-1
 434 500 l 1,17,-1
 434 465 l 1,18,-1
 334 465 l 1,19,-1
 334 0 l 1,20,-1
 294 0 l 1,21,9
 273 77 273 77 203 129.5 c 128,-1,10
EndSplineSet
EndChar

StartChar: uni09B8
Encoding: 313 2488 316
Width: 508
GlyphClass: 2
Flags: W
AnchorPoint: "Anchor-1" 380 0 basechar 0
AnchorPoint: "Anchor-0" 396 2 basechar 0
LayerCount: 2
Fore
SplineSet
253 315 m 1,0,1
 278 340 278 340 311 340 c 128,-1,2
 344 340 344 340 378 310 c 1,3,-1
 378 465 l 1,4,-1
 143 465 l 1,5,6
 222.836956522 397.445652174 222.836956522 397.445652174 253 315 c 1,0,1
378 255 m 1,7,8
 339.428571429 300 339.428571429 300 308 300 c 0,9,10
 288 300 288 300 263.5 278.5 c 128,-1,11
 239 257 239 257 217 219 c 128,-1,12
 195 181 195 181 168.5 158 c 128,-1,13
 142 135 142 135 118 135 c 0,14,15
 80 135 80 135 51 166.5 c 128,-1,16
 22 198 22 198 18 245 c 1,17,-1
 53 255 l 1,18,19
 56 221 56 221 74.5 198 c 128,-1,20
 93 175 93 175 114.5 175 c 128,-1,21
 136 175 136 175 160.5 204 c 128,-1,22
 185 233 185 233 218 290 c 1,23,24
 195 352 195 352 157.5 397.5 c 128,-1,25
 120 443 120 443 73 465 c 1,26,-1
 -10 465 l 1,27,-1
 -10 500 l 1,28,-1
 518 500 l 1,29,-1
 518 465 l 1,30,-1
 418 465 l 1,31,-1
 418 0 l 1,32,-1
 378 0 l 1,33,-1
 378 255 l 1,7,8
EndSplineSet
EndChar

StartChar: uni09BC
Encoding: 314 2492 317
Width: 0
GlyphClass: 2
Flags: W
AnchorPoint: "Anchor-0" 455 -60 mark 0
LayerCount: 2
Fore
SplineSet
213.5 -118.5 m 128,-1,1
 202 -107 202 -107 202 -90 c 128,-1,2
 202 -73 202 -73 213.5 -61.5 c 128,-1,3
 225 -50 225 -50 242 -50 c 128,-1,4
 259 -50 259 -50 270.5 -61.5 c 128,-1,5
 282 -73 282 -73 282 -90 c 128,-1,6
 282 -107 282 -107 270.5 -118.5 c 128,-1,7
 259 -130 259 -130 242 -130 c 128,-1,0
 225 -130 225 -130 213.5 -118.5 c 128,-1,1
EndSplineSet
EndChar

StartChar: uni09BE
Encoding: 315 2494 318
Width: 223
GlyphClass: 2
Flags: W
LayerCount: 2
Fore
SplineSet
93 335 m 1,0,1
 88 390 88 390 66.5 427.5 c 128,-1,2
 45 465 45 465 18 465 c 2,3,-1
 -10 465 l 1,4,-1
 -10 500 l 1,5,-1
 18 500 l 2,6,7
 42 500 42 500 62 486.5 c 128,-1,8
 82 473 82 473 93 450 c 1,9,-1
 93 560 l 1,10,-1
 133 560 l 1,11,-1
 133 500 l 1,12,-1
 233 500 l 1,13,-1
 233 465 l 1,14,-1
 133 465 l 1,15,-1
 133 0 l 1,16,-1
 93 0 l 1,17,-1
 93 335 l 1,0,1
EndSplineSet
EndChar

StartChar: uni09BF
Encoding: 316 2495 319
Width: 220
GlyphClass: 2
Flags: W
LayerCount: 2
Fore
SplineSet
80 500 m 1,0,1
 50 530 50 530 50 583 c 128,-1,2
 50 636 50 636 100 675.5 c 128,-1,3
 150 715 150 715 214 715 c 0,4,5
 340 715 340 715 480 575 c 1,6,-1
 455 550 l 1,7,8
 395 610 395 610 334 642.5 c 128,-1,9
 273 675 273 675 219.5 675 c 128,-1,10
 166 675 166 675 128 647 c 128,-1,11
 90 619 90 619 90 580 c 0,12,13
 90 555 90 555 102 533.5 c 128,-1,14
 114 512 114 512 135 500 c 1,15,-1
 230 500 l 1,16,-1
 230 465 l 1,17,-1
 130 465 l 1,18,-1
 130 0 l 1,19,-1
 90 0 l 1,20,-1
 90 465 l 1,21,-1
 -10 465 l 1,22,-1
 -10 500 l 1,23,-1
 80 500 l 1,0,1
EndSplineSet
EndChar

StartChar: uni09C0
Encoding: 317 2496 320
Width: 220
GlyphClass: 2
Flags: W
LayerCount: 2
Fore
SplineSet
-170 558 m 1,0,-1
 -265 550 l 1,1,2
 -313 550 -313 550 -346.5 576.5 c 128,-1,3
 -380 603 -380 603 -380 640 c 0,4,5
 -380 690 -380 690 -333.5 720 c 128,-1,6
 -287 750 -287 750 -210 750 c 0,7,8
 -69 750 -69 750 30.5 677 c 128,-1,9
 130 604 130 604 130 500 c 1,10,-1
 230 500 l 1,11,-1
 230 465 l 1,12,-1
 130 465 l 1,13,-1
 130 0 l 1,14,-1
 90 0 l 1,15,-1
 90 465 l 1,16,-1
 -10 465 l 1,17,-1
 -10 500 l 1,18,-1
 90 500 l 1,19,20
 82 589 82 589 -4 649.5 c 128,-1,21
 -90 710 -90 710 -210 710 c 0,22,23
 -264 710 -264 710 -302 689.5 c 128,-1,24
 -340 669 -340 669 -340 643.5 c 128,-1,25
 -340 618 -340 618 -317.5 602.5 c 128,-1,26
 -295 587 -295 587 -263 587 c 1,27,-1
 -170 595 l 1,28,29
 -133 595 -133 595 -106.5 568.5 c 128,-1,30
 -80 542 -80 542 -80 505 c 1,31,-1
 -120 505 l 1,32,33
 -120 527 -120 527 -134.5 542.5 c 128,-1,34
 -149 558 -149 558 -170 558 c 1,0,-1
EndSplineSet
EndChar

StartChar: uni09C1
Encoding: 318 2497 321
Width: 0
GlyphClass: 2
Flags: W
AnchorPoint: "Anchor-0" -110 -25 mark 0
LayerCount: 2
Fore
SplineSet
-145 -85 m 1,0,1
 -169 -65 -169 -65 -197.5 -65 c 128,-1,2
 -226 -65 -226 -65 -240.5 -76.5 c 128,-1,3
 -255 -88 -255 -88 -255 -103.5 c 128,-1,4
 -255 -119 -255 -119 -242 -129.5 c 128,-1,5
 -229 -140 -229 -140 -209.5 -140 c 128,-1,6
 -190 -140 -190 -140 -172 -125 c 128,-1,7
 -154 -110 -154 -110 -145 -85 c 1,0,1
-90 5 m 1,8,9
 -90 -47 -90 -47 -100 -75 c 1,10,11
 -21.5873015873 -130.714285714 -21.5873015873 -130.714285714 30 -220 c 1,12,-1
 -5 -240 l 1,13,14
 -50.5926430518 -160.708446866 -50.5926430518 -160.708446866 -115 -115 c 1,15,16
 -129 -145 -129 -145 -154.5 -162.5 c 128,-1,17
 -180 -180 -180 -180 -212.5 -180 c 128,-1,18
 -245 -180 -245 -180 -270 -158 c 128,-1,19
 -295 -136 -295 -136 -295 -104 c 128,-1,20
 -295 -72 -295 -72 -268.5 -48.5 c 128,-1,21
 -242 -25 -242 -25 -203.083333333 -25 c 128,-1,22
 -164.166666667 -25 -164.166666667 -25 -135 -50 c 1,23,24
 -130 -20 -130 -20 -130 5 c 1,25,-1
 -90 5 l 1,8,9
EndSplineSet
EndChar

StartChar: uni09C7
Encoding: 319 2503 322
Width: 309
GlyphClass: 2
Flags: W
LayerCount: 2
Fore
SplineSet
190 30 m 1,0,1
 185 42.5 185 42.5 185 59.25 c 128,-1,2
 185 76 185 76 199.5 90.5 c 128,-1,3
 214 105 214 105 236 105 c 128,-1,4
 258 105 258 105 274 90.5 c 128,-1,5
 290 76 290 76 290 52 c 128,-1,6
 290 28 290 28 268 9 c 128,-1,7
 246 -10 246 -10 215 -10 c 0,8,9
 151 -10 151 -10 105.5 51.5 c 128,-1,10
 60 113 60 113 60 191.5 c 0,11,12
 60 345 60 345 180 465 c 1,13,-1
 -10 465 l 1,14,-1
 -10 500 l 1,15,-1
 319 500 l 1,16,-1
 319 465 l 1,17,-1
 235 465 l 1,18,19
 172 421 172 421 136 350.5 c 128,-1,20
 100 280 100 280 100 207.5 c 128,-1,21
 100 135 100 135 125 88 c 128,-1,22
 150 41 150 41 190 30 c 1,0,1
EndSplineSet
EndChar

StartChar: uni09CB
Encoding: 320 2507 323
Width: 600
GlyphClass: 2
Flags: W
LayerCount: 2
Fore
SplineSet
470 335 m 1,0,1
 465 390 465 390 443.5 427.5 c 128,-1,2
 422 465 422 465 395 465 c 2,3,-1
 367 465 l 1,4,-1
 367 500 l 1,5,-1
 395 500 l 2,6,7
 419 500 419 500 439 486.5 c 128,-1,8
 459 473 459 473 470 450 c 1,9,-1
 470 560 l 1,10,-1
 510 560 l 1,11,-1
 510 500 l 1,12,-1
 610 500 l 1,13,-1
 610 465 l 1,14,-1
 510 465 l 1,15,-1
 510 0 l 1,16,-1
 470 0 l 1,17,-1
 470 335 l 1,0,1
190 30 m 1,18,19
 185 42.5 185 42.5 185 59.25 c 128,-1,20
 185 76 185 76 199.5 90.5 c 128,-1,21
 214 105 214 105 236 105 c 128,-1,22
 258 105 258 105 274 90.5 c 128,-1,23
 290 76 290 76 290 52 c 128,-1,24
 290 28 290 28 268 9 c 128,-1,25
 246 -10 246 -10 215 -10 c 0,26,27
 151 -10 151 -10 105.5 51.5 c 128,-1,28
 60 113 60 113 60 191.5 c 0,29,30
 60 345 60 345 180 465 c 1,31,-1
 -10 465 l 1,32,-1
 -10 500 l 1,33,-1
 309 500 l 1,34,-1
 309 465 l 1,35,-1
 235 465 l 1,36,37
 172 421 172 421 136 350.5 c 128,-1,38
 100 280 100 280 100 207.5 c 128,-1,39
 100 135 100 135 125 88 c 128,-1,40
 150 41 150 41 190 30 c 1,18,19
EndSplineSet
EndChar

StartChar: uni09CD
Encoding: 321 2509 324
Width: 0
GlyphClass: 2
Flags: W
LayerCount: 2
Fore
SplineSet
-43 -166 m 1,0,-1
 -209 -43 l 1,1,-1
 -179 -3 l 1,2,-1
 -13 -126 l 1,3,-1
 -43 -166 l 1,0,-1
EndSplineSet
EndChar

StartChar: uni09DF
Encoding: 322 2527 325
Width: 453
GlyphClass: 2
Flags: W
AnchorPoint: "Anchor-1" 341 0 basechar 0
AnchorPoint: "Anchor-0" 342 4 basechar 0
LayerCount: 2
Fore
SplineSet
118.5 5.5 m 128,-1,1
 108 16 108 16 108 30 c 128,-1,2
 108 44 108 44 118.5 54.5 c 128,-1,3
 129 65 129 65 143 65 c 128,-1,4
 157 65 157 65 167.5 54.5 c 128,-1,5
 178 44 178 44 178 30 c 128,-1,6
 178 16 178 16 167.5 5.5 c 128,-1,7
 157 -5 157 -5 143 -5 c 128,-1,0
 129 -5 129 -5 118.5 5.5 c 128,-1,1
323 465 m 1,8,-1
 103 465 l 1,9,-1
 223 340 l 1,10,-1
 68 220 l 1,11,12
 153 213 153 213 220.5 174.5 c 128,-1,13
 288 136 288 136 323 75 c 1,14,-1
 323 465 l 1,8,-1
221.5 122.5 m 128,-1,16
 147 171 147 171 48 180 c 1,17,-1
 18 235 l 1,18,-1
 163 345 l 1,19,-1
 48 465 l 1,20,-1
 -10 465 l 1,21,-1
 -10 500 l 1,22,-1
 463 500 l 1,23,-1
 463 465 l 1,24,-1
 363 465 l 1,25,-1
 363 0 l 1,26,-1
 323 0 l 1,27,15
 296 74 296 74 221.5 122.5 c 128,-1,16
EndSplineSet
EndChar

StartChar: uni0A1C
Encoding: 323 2588 326
Width: 653
GlyphClass: 2
Flags: W
LayerCount: 2
Fore
SplineSet
25 314 m 0,0,1
 25 367 25 367 59.5 399.5 c 128,-1,2
 94 432 94 432 147 432 c 0,3,4
 181 432 181 432 181 404 c 2,5,-1
 181 341 l 1,6,-1
 467 341 l 1,7,-1
 467 576 l 1,8,-1
 -10 576 l 1,9,-1
 -10 641 l 1,10,-1
 669 641 l 1,11,-1
 669 576 l 1,12,-1
 531 576 l 1,13,-1
 531 0 l 1,14,-1
 467 0 l 1,15,-1
 467 277 l 1,16,-1
 181 277 l 1,17,-1
 181 0 l 1,18,-1
 115 0 l 1,19,-1
 115 277 l 1,20,-1
 63 277 l 2,21,22
 25 277 25 277 25 314 c 0,0,1
EndSplineSet
EndChar

StartChar: uni0A2A
Encoding: 324 2602 327
Width: 645
GlyphClass: 2
Flags: W
LayerCount: 2
Fore
SplineSet
118 243 m 1,0,1
 197 171 197 171 284 171 c 0,2,3
 355.384615385 171 355.384615385 171 430 219.5 c 0,4,5
 440 226 440 226 461 241 c 1,6,-1
 461 641 l 1,7,-1
 666 641 l 1,8,-1
 666 576 l 1,9,-1
 525 576 l 1,10,-1
 525 0 l 1,11,-1
 461 0 l 1,12,-1
 461 176 l 1,13,14
 385 107 385 107 287 107 c 0,15,16
 247 107 247 107 203 122 c 128,-1,17
 159 137 159 137 127 157 c 128,-1,18
 95 177 95 177 74.5 197 c 128,-1,19
 54 217 54 217 54 229.5 c 128,-1,20
 54 242 54 242 92 343.5 c 128,-1,21
 130 445 130 445 130 480.5 c 128,-1,22
 130 516 130 516 111.5 546 c 128,-1,23
 93 576 93 576 51 576 c 2,24,-1
 -9 576 l 1,25,-1
 -9 641 l 1,26,-1
 89 641 l 2,27,28
 134 641 134 641 165 589.5 c 128,-1,29
 196 538 196 538 196 489 c 128,-1,30
 196 440 196 440 173.5 367 c 128,-1,31
 151 294 151 294 118 243 c 1,0,1
EndSplineSet
EndChar

StartChar: uni0A2C
Encoding: 325 2604 328
Width: 624
GlyphClass: 2
Flags: W
LayerCount: 2
Fore
SplineSet
271 110 m 0,0,1
 319 110 319 110 373.5 139.5 c 128,-1,2
 428 169 428 169 438 192 c 1,3,-1
 438 321 l 1,4,-1
 260 321 l 1,5,6
 203 295 203 295 108 184 c 1,7,8
 194 110 194 110 271 110 c 0,0,1
129 576 m 1,9,10
 146 513 146 513 177.5 471.5 c 128,-1,11
 209 430 209 430 271 385 c 1,12,-1
 438 385 l 1,13,-1
 438 576 l 1,14,-1
 129 576 l 1,9,10
503 0 m 1,15,-1
 438 0 l 1,16,-1
 438 118 l 1,17,18
 422 96 422 96 361 70.5 c 128,-1,19
 300 45 300 45 266.5 45 c 128,-1,20
 233 45 233 45 192.5 56.5 c 128,-1,21
 152 68 152 68 105 102.5 c 128,-1,22
 58 137 58 137 40 188 c 1,23,24
 67.4426829268 244.996341463 67.4426829268 244.996341463 116.5 288.5 c 0,25,26
 157.770491803 325.098360656 157.770491803 325.098360656 204 359 c 1,27,28
 203 360 203 360 186.5 373.5 c 128,-1,29
 170 387 170 387 163 393.5 c 128,-1,30
 156 400 156 400 140.5 415.5 c 128,-1,31
 125 431 125 431 116 445.5 c 128,-1,32
 107 460 107 460 95.5 480 c 0,33,34
 72.2255965293 520.477223427 72.2255965293 520.477223427 64 576 c 1,35,-1
 -9 576 l 1,36,-1
 -9 641 l 1,37,-1
 637 641 l 1,38,-1
 637 576 l 1,39,-1
 503 576 l 1,40,-1
 503 0 l 1,15,-1
EndSplineSet
EndChar

StartChar: uni0A3E
Encoding: 326 2622 329
Width: 286
GlyphClass: 2
Flags: W
LayerCount: 2
Fore
SplineSet
151 250 m 1,0,-1
 87 250 l 1,1,-1
 87 576 l 1,2,-1
 -13 576 l 1,3,-1
 -13 641 l 1,4,-1
 309 641 l 1,5,-1
 309 576 l 1,6,-1
 151 576 l 1,7,-1
 151 250 l 1,0,-1
EndSplineSet
EndChar

StartChar: uni0A40
Encoding: 327 2624 330
Width: 301
GlyphClass: 2
Flags: W
LayerCount: 2
Fore
SplineSet
-182 854 m 128,-1,1
 -142 900 -142 900 -53.5 900 c 128,-1,2
 35 900 35 900 91 851.5 c 128,-1,3
 147 803 147 803 147 699 c 2,4,-1
 147 641 l 1,5,-1
 322 641 l 1,6,-1
 322 576 l 1,7,-1
 147 576 l 1,8,-1
 147 0 l 1,9,-1
 83 0 l 1,10,-1
 83 576 l 1,11,-1
 -9 576 l 1,12,-1
 -9 641 l 1,13,-1
 83 641 l 1,14,15
 83 758 83 758 53 798.5 c 128,-1,16
 23 839 23 839 -36.5 839 c 128,-1,17
 -96 839 -96 839 -124 817.5 c 128,-1,18
 -152 796 -152 796 -158 738 c 1,19,-1
 -222 738 l 1,20,0
 -222 808 -222 808 -182 854 c 128,-1,1
EndSplineSet
EndChar

StartChar: uni0A70
Encoding: 328 2672 331
Width: 0
GlyphClass: 2
Flags: W
LayerCount: 2
Fore
SplineSet
-264.5 898 m 128,-1,1
 -226 931 -226 931 -162 931 c 128,-1,2
 -98 931 -98 931 -61 898 c 128,-1,3
 -24 865 -24 865 -24 812 c 0,4,5
 -24 780 -24 780 -48 743.5 c 128,-1,6
 -72 707 -72 707 -89 707 c 0,7,8
 -93 707 -93 707 -93 712 c 128,-1,9
 -93 717 -93 717 -77.5 750.5 c 128,-1,10
 -62 784 -62 784 -62 811 c 128,-1,11
 -62 838 -62 838 -92.5 861 c 128,-1,12
 -123 884 -123 884 -164 884 c 128,-1,13
 -205 884 -205 884 -235.5 859.5 c 128,-1,14
 -266 835 -266 835 -266 800 c 0,15,16
 -266 781 -266 781 -250 749.5 c 128,-1,17
 -234 718 -234 718 -234 712.5 c 128,-1,18
 -234 707 -234 707 -239 707 c 0,19,20
 -254 707 -254 707 -278.5 743.5 c 128,-1,21
 -303 780 -303 780 -303 812 c 0,22,0
 -303 865 -303 865 -264.5 898 c 128,-1,1
EndSplineSet
EndChar

StartChar: uni0A97
Encoding: 329 2711 332
Width: 578
GlyphClass: 2
Flags: W
LayerCount: 2
Fore
SplineSet
53 450 m 1,0,1
 103 500 103 500 179 500 c 128,-1,2
 255 500 255 500 306.5 448.5 c 128,-1,3
 358 397 358 397 358 323.5 c 128,-1,4
 358 250 358 250 304 197.5 c 128,-1,5
 250 145 250 145 173 145 c 0,6,7
 128 145 128 145 87 167.5 c 128,-1,8
 46 190 46 190 18 230 c 1,9,-1
 53 265 l 1,10,11
 70 235 70 235 102.5 217.5 c 128,-1,12
 135 200 135 200 180 200 c 128,-1,13
 225 200 225 200 261.5 236.5 c 128,-1,14
 298 273 298 273 298 324 c 128,-1,15
 298 375 298 375 263 410 c 128,-1,16
 228 445 228 445 175.5 445 c 128,-1,17
 123 445 123 445 93 415 c 1,18,-1
 53 450 l 1,0,1
488 500 m 1,19,-1
 488 0 l 1,20,-1
 428 0 l 1,21,-1
 428 500 l 1,22,-1
 488 500 l 1,19,-1
EndSplineSet
EndChar

StartChar: uni0A9C
Encoding: 330 2716 333
Width: 594
GlyphClass: 2
Flags: W
LayerCount: 2
Fore
SplineSet
367 230 m 1,0,1
 307 143.103448276 307 143.103448276 307 105 c 0,2,3
 307 82 307 82 324.5 66 c 128,-1,4
 342 50 342 50 365 50 c 128,-1,5
 388 50 388 50 402.5 66 c 128,-1,6
 417 82 417 82 417 106.5 c 0,7,8
 417 157.083333333 417 157.083333333 367 230 c 1,0,1
407 275 m 1,9,10
 477 174.117647059 477 174.117647059 477 105 c 0,11,12
 477 62 477 62 445 31 c 128,-1,13
 413 0 413 0 365 0 c 128,-1,14
 317 0 317 0 282 31 c 128,-1,15
 247 62 247 62 247 105 c 0,16,17
 247 190 247 190 342 285 c 1,18,19
 219.083333333 460 219.083333333 460 157 460 c 0,20,21
 130 460 130 460 111 436.5 c 128,-1,22
 92 413 92 413 92 382 c 128,-1,23
 92 351 92 351 109.5 330.5 c 128,-1,24
 127 310 127 310 149.5 310 c 0,25,26
 196.6875 310 196.6875 310 212 345 c 1,27,-1
 252 315 l 1,28,29
 237 289 237 289 210.5 274.5 c 128,-1,30
 184 260 184 260 152 260 c 0,31,32
 102 260 102 260 67 295 c 128,-1,33
 32 330 32 330 32 382 c 128,-1,34
 32 434 32 434 68.5 472 c 128,-1,35
 105 510 105 510 156.5 510 c 128,-1,36
 208 510 208 510 267 459 c 128,-1,37
 326 408 326 408 377 320 c 1,38,39
 413 363 413 363 466 429.5 c 128,-1,40
 519 496 519 496 542 510 c 1,41,-1
 582 480 l 1,42,43
 477 375 477 375 407 275 c 1,9,10
EndSplineSet
EndChar

StartChar: uni0AA4
Encoding: 331 2724 334
Width: 561
GlyphClass: 2
Flags: W
LayerCount: 2
Fore
SplineSet
111.5 351.5 m 128,-1,1
 182 410 182 410 281 410 c 2,2,-1
 411 410 l 1,3,-1
 411 500 l 1,4,-1
 471 500 l 1,5,-1
 471 0 l 1,6,-1
 411 0 l 1,7,-1
 411 360 l 1,8,-1
 281 360 l 2,9,10
 206 360 206 360 153.5 316 c 128,-1,11
 101 272 101 272 101 206 c 128,-1,12
 101 140 101 140 153.5 90 c 128,-1,13
 206 40 206 40 281 40 c 1,14,-1
 271 -5 l 1,15,16
 176 -5 176 -5 108.5 58 c 128,-1,17
 41 121 41 121 41 207 c 128,-1,0
 41 293 41 293 111.5 351.5 c 128,-1,1
EndSplineSet
EndChar

StartChar: uni0AB0
Encoding: 332 2736 335
Width: 373
GlyphClass: 2
Flags: W
LayerCount: 2
Fore
SplineSet
9 470 m 1,0,1
 58.4117647059 505 58.4117647059 505 134.705882353 505 c 128,-1,2
 211 505 211 505 262.5 459.5 c 128,-1,3
 314 414 314 414 314 348 c 128,-1,4
 314 282 314 282 268 231.5 c 128,-1,5
 222 181 222 181 154 175 c 1,6,-1
 169 95 l 2,7,8
 172 75 172 75 186.5 62.5 c 128,-1,9
 201 50 201 50 219 50 c 2,10,-1
 344 50 l 1,11,-1
 344 0 l 1,12,-1
 219 0 l 2,13,14
 177 0 177 0 146 22.5 c 128,-1,15
 115 45 115 45 109 80 c 2,16,-1
 89 180 l 1,17,-1
 24 180 l 1,18,-1
 24 230 l 1,19,-1
 129 230 l 2,20,21
 181 230 181 230 217.5 265 c 128,-1,22
 254 300 254 300 254 344.5 c 128,-1,23
 254 389 254 389 220.5 417 c 128,-1,24
 187 445 187 445 130.708333333 445 c 128,-1,25
 74.4166666667 445 74.4166666667 445 39 420 c 1,26,-1
 9 470 l 1,0,1
EndSplineSet
EndChar

StartChar: uni0ABE
Encoding: 333 2750 336
Width: 240
GlyphClass: 2
Flags: W
LayerCount: 2
Fore
SplineSet
150 500 m 1,0,-1
 150 0 l 1,1,-1
 90 0 l 1,2,-1
 90 500 l 1,3,-1
 150 500 l 1,0,-1
EndSplineSet
EndChar

StartChar: uni0AC0
Encoding: 334 2752 337
Width: 240
GlyphClass: 2
Flags: W
LayerCount: 2
Fore
SplineSet
-104.5 687.5 m 128,-1,1
 -59 740 -59 740 6 740 c 128,-1,2
 71 740 71 740 110.5 691 c 128,-1,3
 150 642 150 642 150 560 c 2,4,-1
 150 0 l 1,5,-1
 90 0 l 1,6,-1
 90 560 l 2,7,8
 90 619 90 619 67 654.5 c 128,-1,9
 44 690 44 690 5 690 c 128,-1,10
 -34 690 -34 690 -62 652 c 128,-1,11
 -90 614 -90 614 -90 560 c 2,12,-1
 -90 505 l 1,13,-1
 -150 505 l 1,14,-1
 -150 560 l 2,15,0
 -150 635 -150 635 -104.5 687.5 c 128,-1,1
EndSplineSet
EndChar

StartChar: uni0AC1
Encoding: 335 2753 338
Width: 0
GlyphClass: 2
Flags: W
LayerCount: 2
Fore
SplineSet
-235 -35 m 1,0,1
 -179 5 -179 5 -125 5 c 128,-1,2
 -71 5 -71 5 -33 -30 c 128,-1,3
 5 -65 5 -65 5 -118 c 128,-1,4
 5 -171 5 -171 -45 -210.5 c 128,-1,5
 -95 -250 -95 -250 -174 -250 c 128,-1,6
 -253 -250 -253 -250 -331 -209 c 128,-1,7
 -409 -168 -409 -168 -460 -95 c 1,8,-1
 -420 -65 l 1,9,10
 -366 -129 -366 -129 -299 -164.5 c 128,-1,11
 -232 -200 -232 -200 -175.5 -200 c 128,-1,12
 -119 -200 -119 -200 -87 -175 c 128,-1,13
 -55 -150 -55 -150 -55 -118 c 128,-1,14
 -55 -86 -55 -86 -75.5 -65.5 c 128,-1,15
 -96 -45 -96 -45 -133.5 -45 c 128,-1,16
 -171 -45 -171 -45 -205 -75 c 1,17,-1
 -235 -35 l 1,0,1
EndSplineSet
EndChar

StartChar: uni0B06
Encoding: 336 2822 339
Width: 967
GlyphClass: 2
Flags: W
LayerCount: 2
Fore
SplineSet
808 725 m 1,0,-1
 880 725 l 1,1,-1
 880 0 l 1,2,-1
 808 0 l 1,3,-1
 808 725 l 1,0,-1
136.5 51.5 m 128,-1,5
 58 117 58 117 58 209 c 0,6,7
 58 287 58 287 117.5 356.5 c 128,-1,8
 177 426 177 426 274 461 c 1,9,10
 339 491 339 491 377 535 c 128,-1,11
 415 579 415 579 415 623 c 0,12,13
 415 651 415 651 399.5 670.5 c 128,-1,14
 384 690 384 690 362 690 c 128,-1,15
 340 690 340 690 325 670.5 c 128,-1,16
 310 651 310 651 310 623 c 2,17,-1
 310 519 l 1,18,-1
 236 519 l 1,19,-1
 236 623 l 2,20,21
 236 651 236 651 218.5 670.5 c 128,-1,22
 201 690 201 690 176.5 690 c 128,-1,23
 152 690 152 690 134.5 670.5 c 128,-1,24
 117 651 117 651 117 627.5 c 0,25,26
 117 582.153846154 117 582.153846154 146 571 c 0,27,28
 163 565 163 565 173.5 553 c 128,-1,29
 184 541 184 541 184 526 c 128,-1,30
 184 511 184 511 171.5 499 c 128,-1,31
 159 487 159 487 141 487 c 0,32,33
 100 487 100 487 71.5 527 c 128,-1,34
 43 567 43 567 43 627 c 128,-1,35
 43 687 43 687 78 722 c 128,-1,36
 113 757 113 757 177 757 c 0,37,38
 210 757 210 757 236 742 c 128,-1,39
 262 727 262 727 274 702 c 1,40,41
 281 726 281 726 305.5 741.5 c 128,-1,42
 330 757 330 757 362 757 c 0,43,44
 420 757 420 757 454.5 720.5 c 128,-1,45
 489 684 489 684 489 623.5 c 128,-1,46
 489 563 489 563 440.5 505 c 128,-1,47
 392 447 392 447 310.5 409 c 128,-1,48
 229 371 229 371 180.5 317 c 128,-1,49
 132 263 132 263 132 203.5 c 128,-1,50
 132 144 132 144 189 98 c 128,-1,51
 246 52 246 52 327.5 52 c 128,-1,52
 409 52 409 52 479 103 c 128,-1,53
 549 154 549 154 579 238 c 1,54,-1
 579 725 l 1,55,-1
 651 725 l 1,56,-1
 651 0 l 1,57,-1
 579 0 l 1,58,-1
 579 119 l 1,59,60
 551 58 551 58 482 22 c 128,-1,61
 413 -14 413 -14 326 -14 c 0,62,4
 215 -14 215 -14 136.5 51.5 c 128,-1,5
EndSplineSet
EndChar

StartChar: uni0B13
Encoding: 337 2835 340
Width: 650
GlyphClass: 2
Flags: W
LayerCount: 2
Fore
SplineSet
573 600 m 0,0,1
 573 500.888888889 573 500.888888889 499 394 c 1,2,3
 547 366 547 366 575 316.5 c 128,-1,4
 603 267 603 267 603 209 c 0,5,6
 603 117 603 117 531 51.5 c 128,-1,7
 459 -14 459 -14 357 -14 c 0,8,9
 231 -14 231 -14 141.5 94.5 c 128,-1,10
 52 203 52 203 52 357 c 0,11,12
 52 600.246575342 52 600.246575342 202 816 c 1,13,-1
 258 780 l 1,14,15
 125 589.707692308 125 589.707692308 125 357 c 0,16,17
 125 232 125 232 193 143.5 c 128,-1,18
 261 55 261 55 357 55 c 0,19,20
 428 55 428 55 478 100 c 128,-1,21
 528 145 528 145 528 202.5 c 128,-1,22
 528 260 528 260 502 296.5 c 128,-1,23
 476 333 476 333 439 333 c 1,24,25
 375.8 279.675 375.8 279.675 342 267 c 1,26,-1
 306 328 l 1,27,28
 394 369 394 369 446.5 443 c 128,-1,29
 499 517 499 517 499 600 c 0,30,31
 499 637 499 637 475.5 663.5 c 128,-1,32
 452 690 452 690 418 690 c 128,-1,33
 384 690 384 690 360 662 c 128,-1,34
 336 634 336 634 336 594 c 0,35,36
 336 580 336 580 341.5 565 c 0,37,38
 351 539.090909091 351 539.090909091 351 530.545454545 c 128,-1,39
 351 522 351 522 342 513.5 c 128,-1,40
 333 505 333 505 317 505 c 128,-1,41
 301 505 301 505 281 535 c 128,-1,42
 261 565 261 565 261 594 c 0,43,44
 261 662 261 662 307 709.5 c 128,-1,45
 353 757 353 757 417.5 757 c 128,-1,46
 482 757 482 757 527.5 711 c 128,-1,47
 573 665 573 665 573 600 c 0,0,1
EndSplineSet
EndChar

StartChar: uni0B21
Encoding: 338 2849 341
Width: 726
GlyphClass: 2
Flags: W
LayerCount: 2
Fore
SplineSet
590 362 m 1,0,1
 619 413.785714286 619 413.785714286 619 461 c 0,2,3
 619 556 619 556 545 623 c 128,-1,4
 471 690 471 690 365 690 c 128,-1,5
 259 690 259 690 182.5 623 c 128,-1,6
 106 556 106 556 106 461 c 0,7,8
 106 415 106 415 124.5 379.5 c 128,-1,9
 143 344 143 344 174 333 c 1,10,11
 207.208633094 391.115107914 207.208633094 391.115107914 265 423 c 1,12,-1
 307 371 l 1,13,14
 261 339 261 339 235.5 296 c 128,-1,15
 210 253 210 253 210 209 c 0,16,17
 210 147 210 147 256 103 c 128,-1,18
 302 59 302 59 360.5 59 c 128,-1,19
 419 59 419 59 456 89 c 128,-1,20
 493 119 493 119 493 162 c 0,21,22
 493 190 493 190 468.5 209.5 c 128,-1,23
 444 229 444 229 410 229 c 1,24,-1
 352 162 l 1,25,-1
 293 215 l 1,26,-1
 481 422 l 1,27,-1
 538 371 l 1,28,-1
 463 290 l 1,29,30
 506 290 506 290 536.5 252.5 c 128,-1,31
 567 215 567 215 567 162 c 0,32,33
 567 89 567 89 508.5 37.5 c 128,-1,34
 450 -14 450 -14 361 -14 c 128,-1,35
 272 -14 272 -14 205 51.5 c 128,-1,36
 138 117 138 117 138 209 c 0,37,38
 138 240.6 138 240.6 149 267 c 1,39,40
 97 286 97 286 65 339.5 c 128,-1,41
 33 393 33 393 33 461 c 0,42,43
 33 584 33 584 129.5 670.5 c 128,-1,44
 226 757 226 757 363 757 c 128,-1,45
 500 757 500 757 597.5 670.5 c 128,-1,46
 695 584 695 584 695 461 c 0,47,48
 695 390 695 390 657 326 c 1,49,-1
 590 362 l 1,0,1
EndSplineSet
EndChar

StartChar: uni0B3C
Encoding: 339 2876 342
Width: 0
GlyphClass: 2
Flags: W
LayerCount: 2
Fore
SplineSet
-558.5 -189.5 m 128,-1,1
 -578 -170 -578 -170 -578 -142 c 128,-1,2
 -578 -114 -578 -114 -558.5 -94 c 128,-1,3
 -539 -74 -539 -74 -511.5 -74 c 128,-1,4
 -484 -74 -484 -74 -464.5 -94 c 128,-1,5
 -445 -114 -445 -114 -445 -142 c 128,-1,6
 -445 -170 -445 -170 -464.5 -189.5 c 128,-1,7
 -484 -209 -484 -209 -511.5 -209 c 128,-1,0
 -539 -209 -539 -209 -558.5 -189.5 c 128,-1,1
EndSplineSet
EndChar

StartChar: uni0B3F
Encoding: 340 2879 343
Width: 0
GlyphClass: 4
Flags: W
LayerCount: 2
Fore
SplineSet
-683 869 m 1,0,1
 -631 921 -631 921 -554 949 c 128,-1,2
 -477 977 -477 977 -386.5 977 c 128,-1,3
 -296 977 -296 977 -218.5 949 c 128,-1,4
 -141 921 -141 921 -89 869 c 1,5,-1
 -141 816 l 1,6,7
 -184 859 -184 859 -248 882.5 c 128,-1,8
 -312 906 -312 906 -386 906 c 128,-1,9
 -460 906 -460 906 -524 882.5 c 128,-1,10
 -588 859 -588 859 -631 816 c 1,11,-1
 -683 869 l 1,0,1
EndSplineSet
EndChar

StartChar: uni0B95
Encoding: 341 2965 344
Width: 746
GlyphClass: 2
Flags: W
LayerCount: 2
Fore
SplineSet
443 160 m 1,0,-1
 443 228 l 1,1,-1
 261 228 l 2,2,3
 185 228 185 228 185 176 c 0,4,5
 185 131 185 131 232.5 98 c 128,-1,6
 280 65 280 65 330 65 c 0,7,8
 437 65 437 65 443 160 c 1,0,-1
443 316 m 1,9,-1
 443 454 l 1,10,-1
 322 454 l 1,11,-1
 322 316 l 1,12,-1
 443 316 l 1,9,-1
742 150 m 0,13,14
 742 -14 742 -14 603 -14 c 0,15,16
 557 -14 557 -14 526 1 c 1,17,-1
 557 73 l 1,18,19
 578 61 578 61 599 61 c 0,20,21
 658 61 658 61 658 144.5 c 128,-1,22
 658 228 658 228 591 228 c 2,23,-1
 526 228 l 1,24,-1
 526 163 l 2,25,26
 526 77 526 77 471 29 c 1,27,28
 419 -14 419 -14 332.5 -14 c 128,-1,29
 246 -14 246 -14 173 42 c 128,-1,30
 100 98 100 98 100 178 c 0,31,32
 100 318 100 318 237 316 c 1,33,-1
 237 539 l 1,34,-1
 683 539 l 1,35,-1
 683 454 l 1,36,-1
 526 454 l 1,37,-1
 526 316 l 1,38,-1
 597 316 l 2,39,40
 668 316 668 316 707 268 c 1,41,42
 742 222 742 222 742 150 c 0,13,14
EndSplineSet
EndChar

StartChar: uni0B9F
Encoding: 342 2975 345
Width: 746
GlyphClass: 2
Flags: W
LayerCount: 2
Fore
SplineSet
743 -1 m 1,0,-1
 100 -1 l 1,1,-1
 100 541 l 1,2,-1
 186 541 l 1,3,-1
 186 85 l 1,4,-1
 743 85 l 1,5,-1
 743 -1 l 1,0,-1
EndSplineSet
EndChar

StartChar: uni0BA4
Encoding: 343 2980 346
Width: 776
GlyphClass: 2
Flags: W
LayerCount: 2
Fore
SplineSet
451 169 m 1,0,-1
 451 237 l 1,1,-1
 268 237 l 2,2,3
 199 237 199 237 199 185 c 0,4,5
 199 139 199 139 244.5 106.5 c 128,-1,6
 290 74 290 74 338 74 c 0,7,8
 445 74 445 74 451 169 c 1,0,-1
451 325 m 1,9,-1
 451 463 l 1,10,-1
 330 463 l 1,11,-1
 330 325 l 1,12,-1
 451 325 l 1,9,-1
114 187 m 0,13,14
 114 327.015384615 114 327.015384615 245 325 c 1,15,-1
 245 548 l 1,16,-1
 691 548 l 1,17,-1
 691 463 l 1,18,-1
 534 463 l 1,19,-1
 534 325 l 1,20,-1
 574 325 l 2,21,22
 658 325 658 325 708 263.5 c 128,-1,23
 758 202 758 202 758 116 c 0,24,25
 758 8 758 8 678 -62 c 1,26,27
 600 -127 600 -127 492 -127 c 2,28,-1
 239 -127 l 2,29,30
 217 -127 217 -127 201.5 -140.5 c 128,-1,31
 186 -154 186 -154 186 -182 c 128,-1,32
 186 -210 186 -210 214 -219 c 1,33,-1
 157 -275 l 1,34,35
 100 -239 100 -239 100 -171 c 0,36,37
 100 -119 100 -119 138 -83 c 128,-1,38
 176 -47 176 -47 229 -47 c 2,39,-1
 494 -47 l 2,40,41
 566 -47 566 -47 618 1 c 128,-1,42
 670 49 670 49 670 121 c 0,43,44
 670 174 670 174 638.5 205.5 c 128,-1,45
 607 237 607 237 552 237 c 1,46,47
 547 239 547 239 534 237 c 1,48,-1
 534 172 l 2,49,50
 534 85 534 85 480 40 c 128,-1,51
 426 -5 426 -5 340.5 -5 c 128,-1,52
 255 -5 255 -5 184.5 50.5 c 128,-1,53
 114 106 114 106 114 187 c 0,13,14
EndSplineSet
EndChar

StartChar: uni0BAA
Encoding: 344 2986 347
Width: 702
GlyphClass: 2
Flags: W
LayerCount: 2
Fore
SplineSet
698 -1 m 1,0,-1
 100 -1 l 1,1,-1
 100 541 l 1,2,-1
 186 541 l 1,3,-1
 186 85 l 1,4,-1
 612 85 l 1,5,-1
 612 541 l 1,6,-1
 698 541 l 1,7,-1
 698 -1 l 1,0,-1
EndSplineSet
EndChar

StartChar: uni0BAE
Encoding: 345 2990 348
Width: 853
GlyphClass: 2
Flags: W
LayerCount: 2
Fore
SplineSet
745 215 m 0,0,1
 745 299 745 299 701 376 c 0,2,3
 649 467 649 467 573 467 c 0,4,5
 543 467 543 467 521 445 c 128,-1,6
 499 423 499 423 499 394 c 2,7,-1
 499 89 l 1,8,-1
 651 89 l 2,9,10
 745 89 745 89 745 215 c 0,0,1
845 222 m 0,11,12
 845 123 845 123 789.5 61.5 c 128,-1,13
 734 0 734 0 633 0 c 2,14,-1
 100 0 l 1,15,-1
 100 539 l 1,16,-1
 189 539 l 1,17,-1
 189 89 l 1,18,-1
 405 89 l 1,19,-1
 405 390 l 2,20,21
 405 458 405 458 452 506 c 128,-1,22
 499 554 499 554 568 554 c 0,23,24
 688 554 688 554 769 446 c 0,25,26
 845 346 845 346 845 222 c 0,11,12
EndSplineSet
EndChar

StartChar: uni0BB4
Encoding: 346 2996 349
Width: 868
GlyphClass: 2
Flags: W
LayerCount: 2
Fore
SplineSet
760 215 m 0,0,1
 760 299 760 299 716 376 c 0,2,3
 664 467 664 467 588 467 c 0,4,5
 558 467 558 467 536 445 c 128,-1,6
 514 423 514 423 514 394 c 2,7,-1
 514 89 l 1,8,-1
 666 89 l 2,9,10
 760 89 760 89 760 215 c 0,0,1
860 222 m 0,11,12
 860 123 860 123 804.5 61.5 c 128,-1,13
 749 0 749 0 648 0 c 2,14,-1
 516 0 l 1,15,-1
 516 -13 l 2,16,17
 516 -65 516 -65 595 -65 c 2,18,-1
 722 -65 l 1,19,-1
 722 -158 l 1,20,-1
 628 -158 l 2,21,22
 589 -158 589 -158 544 -209 c 0,23,24
 470 -292 470 -292 456 -304 c 0,25,26
 393 -354 393 -354 309.5 -354 c 128,-1,27
 226 -354 226 -354 168 -313 c 1,28,29
 100 -269 100 -269 100 -199.5 c 128,-1,30
 100 -130 100 -130 141.5 -91.5 c 128,-1,31
 183 -53 183 -53 247 -53 c 2,32,-1
 350 -53 l 1,33,-1
 350 -138 l 1,34,-1
 243 -138 l 2,35,36
 189 -138 189 -138 189 -188 c 0,37,38
 189 -228 189 -228 225 -249.5 c 128,-1,39
 261 -271 261 -271 309.5 -271 c 128,-1,40
 358 -271 358 -271 393 -245 c 1,41,42
 415 -227 415 -227 449 -183.5 c 128,-1,43
 483 -140 483 -140 512 -120 c 1,44,45
 421 -110 421 -110 421 0 c 1,46,-1
 115 0 l 1,47,-1
 115 539 l 1,48,-1
 204 539 l 1,49,-1
 204 89 l 1,50,-1
 420 89 l 1,51,-1
 420 390 l 2,52,53
 420 458 420 458 467 506 c 128,-1,54
 514 554 514 554 583 554 c 0,55,56
 703 554 703 554 784 446 c 0,57,58
 860 346 860 346 860 222 c 0,11,12
EndSplineSet
EndChar

StartChar: uni0BBE
Encoding: 347 3006 350
Width: 593
GlyphClass: 2
Flags: W
LayerCount: 2
Fore
SplineSet
588 446 m 1,0,-1
 423 446 l 1,1,-1
 423 -1 l 1,2,-1
 339 -1 l 1,3,-1
 339 446 l 1,4,-1
 185 446 l 1,5,-1
 185 1 l 1,6,-1
 100 1 l 1,7,-1
 100 529 l 1,8,-1
 588 529 l 1,9,-1
 588 446 l 1,0,-1
EndSplineSet
EndChar

StartChar: uni0BBF
Encoding: 348 3007 351
Width: 132
GlyphClass: 2
Flags: W
LayerCount: 2
Fore
SplineSet
131 638 m 2,0,1
 131 728 131 728 61.5 790 c 128,-1,2
 -8 852 -8 852 -105 852 c 128,-1,3
 -202 852 -202 852 -267.5 798 c 128,-1,4
 -333 744 -333 744 -333 652 c 0,5,6
 -333 584 -333 584 -289 537 c 1,7,8
 -318 533 -318 533 -249 531 c 2,9,-1
 -188 529 l 1,10,-1
 -183 530 l 1,11,12
 -183 532 -183 532 -186 532 c 1,13,14
 -215 544 -215 544 -232 577.5 c 128,-1,15
 -249 611 -249 611 -249 648 c 0,16,17
 -249 704 -249 704 -208 733 c 128,-1,18
 -167 762 -167 762 -106 762 c 128,-1,19
 -45 762 -45 762 -2 724 c 128,-1,20
 41 686 41 686 41 632 c 2,21,-1
 41 2 l 1,22,-1
 131 2 l 1,23,-1
 131 638 l 2,0,1
EndSplineSet
EndChar

StartChar: uni0BCD
Encoding: 349 3021 352
Width: 125
GlyphClass: 2
Flags: W
LayerCount: 2
Fore
SplineSet
-504 725 m 128,-1,1
 -486 743 -486 743 -460 743 c 128,-1,2
 -434 743 -434 743 -416 725 c 128,-1,3
 -398 707 -398 707 -398 681 c 128,-1,4
 -398 655 -398 655 -416 637.5 c 128,-1,5
 -434 620 -434 620 -460 620 c 128,-1,6
 -486 620 -486 620 -504 638 c 128,-1,7
 -522 656 -522 656 -522 681.5 c 128,-1,0
 -522 707 -522 707 -504 725 c 128,-1,1
EndSplineSet
EndChar

StartChar: uni0C17
Encoding: 350 3095 353
Width: 519
GlyphClass: 2
Flags: W
LayerCount: 2
Fore
SplineSet
75.5 284.5 m 128,-1,1
 114 406 114 406 185 461 c 1,2,3
 151 486 151 486 132.5 528 c 128,-1,4
 114 570 114 570 114 622 c 1,5,-1
 166 622 l 1,6,7
 166 567 166 567 193.5 529 c 128,-1,8
 221 491 221 491 260 491 c 0,9,10
 286.8125 491 286.8125 491 324 526 c 2,11,-1
 488 684 l 1,12,-1
 522 650 l 1,13,-1
 334 462 l 1,14,15
 405 408 405 408 443.5 286 c 128,-1,16
 482 164 482 164 482 0 c 1,17,-1
 418 0 l 1,18,19
 418 174 418 174 372 296.5 c 128,-1,20
 326 419 326 419 260 419 c 128,-1,21
 194 419 194 419 148 296.5 c 128,-1,22
 102 174 102 174 102 0 c 1,23,-1
 37 0 l 1,24,0
 37 163 37 163 75.5 284.5 c 128,-1,1
EndSplineSet
EndChar

StartChar: uni0C24
Encoding: 351 3108 354
Width: 654
GlyphClass: 2
Flags: W
LayerCount: 2
Fore
SplineSet
470 406 m 1,0,1
 419.733333333 435 419.733333333 435 328 435 c 0,2,3
 266 435 266 435 222.5 478.5 c 128,-1,4
 179 522 179 522 179 582 c 1,5,-1
 231 582 l 1,6,7
 231 542 231 542 258.5 514 c 128,-1,8
 286 486 286 486 325 486 c 0,9,10
 354 486 354 486 389 521 c 1,11,-1
 554 678 l 1,12,-1
 587 645 l 1,13,-1
 420 478 l 1,14,15
 509 456 509 456 565.5 399 c 128,-1,16
 622 342 622 342 622 274 c 0,17,18
 622 150 622 150 540 75 c 128,-1,19
 458 0 458 0 324 0 c 128,-1,20
 190 0 190 0 111.5 71 c 128,-1,21
 33 142 33 142 33 261 c 0,22,23
 33 326 33 326 71.5 372.5 c 128,-1,24
 110 419 110 419 161.5 419 c 128,-1,25
 213 419 213 419 247.5 384.5 c 128,-1,26
 282 350 282 350 282 301 c 128,-1,27
 282 252 282 252 247.5 217.5 c 128,-1,28
 213 183 213 183 171.5 183 c 128,-1,29
 130 183 130 183 114 197 c 1,30,-1
 107 196 l 1,31,32
 107 137 107 137 165.5 101.5 c 128,-1,33
 224 66 224 66 323 66 c 128,-1,34
 422 66 422 66 482 101.5 c 128,-1,35
 542 137 542 137 542 196 c 1,36,-1
 537 197 l 1,37,38
 525 183 525 183 483.5 183 c 128,-1,39
 442 183 442 183 407.5 217.5 c 128,-1,40
 373 252 373 252 373 296 c 128,-1,41
 373 340 373 340 401 369 c 128,-1,42
 429 398 429 398 470 402 c 1,43,-1
 470 406 l 1,0,1
445 254.5 m 128,-1,45
 464 235 464 235 491 235 c 128,-1,46
 518 235 518 235 537 254.5 c 128,-1,47
 556 274 556 274 556 301 c 128,-1,48
 556 328 556 328 537 347 c 128,-1,49
 518 366 518 366 491 366 c 128,-1,50
 464 366 464 366 445 347 c 128,-1,51
 426 328 426 328 426 301 c 128,-1,44
 426 274 426 274 445 254.5 c 128,-1,45
117.5 254.5 m 128,-1,53
 137 235 137 235 164.5 235 c 128,-1,54
 192 235 192 235 211 254.5 c 128,-1,55
 230 274 230 274 230 301 c 128,-1,56
 230 328 230 328 211 347 c 128,-1,57
 192 366 192 366 164.5 366 c 128,-1,58
 137 366 137 366 117.5 347 c 128,-1,59
 98 328 98 328 98 301 c 128,-1,52
 98 274 98 274 117.5 254.5 c 128,-1,53
EndSplineSet
EndChar

StartChar: uni0C32
Encoding: 352 3122 355
Width: 594
GlyphClass: 2
Flags: W
LayerCount: 2
Fore
SplineSet
109 332 m 1,0,1
 101 312 101 312 101 261 c 0,2,3
 101 180 101 180 158.5 123 c 128,-1,4
 216 66 216 66 297 66 c 128,-1,5
 378 66 378 66 436 123 c 128,-1,6
 494 180 494 180 494 261 c 0,7,8
 494 318 494 318 464 363 c 128,-1,9
 434 408 434 408 386 426 c 1,10,-1
 408 490 l 1,11,12
 476 465 476 465 517.5 402 c 128,-1,13
 559 339 559 339 559 261 c 0,14,15
 559 153 559 153 482.5 76.5 c 128,-1,16
 406 0 406 0 297.5 0 c 128,-1,17
 189 0 189 0 112 76.5 c 128,-1,18
 35 153 35 153 35 253.5 c 128,-1,19
 35 354 35 354 89 419 c 128,-1,20
 143 484 143 484 219 484 c 0,21,22
 268 484 268 484 303 449 c 128,-1,23
 338 414 338 414 338 366 c 128,-1,24
 338 318 338 318 303 283.5 c 128,-1,25
 268 249 268 249 223.5 249 c 128,-1,26
 179 249 179 249 149 272.5 c 128,-1,27
 119 296 119 296 113 332 c 1,28,-1
 109 332 l 1,0,1
173 319.5 m 128,-1,30
 192 301 192 301 219 301 c 128,-1,31
 246 301 246 301 265 319.5 c 128,-1,32
 284 338 284 338 284 365.5 c 128,-1,33
 284 393 284 393 265 412 c 128,-1,34
 246 431 246 431 219 431 c 128,-1,35
 192 431 192 431 173 412 c 128,-1,36
 154 393 154 393 154 365.5 c 128,-1,29
 154 338 154 338 173 319.5 c 128,-1,30
EndSplineSet
EndChar

StartChar: uni0C41
Encoding: 353 3137 356
Width: 368
GlyphClass: 2
Flags: W
LayerCount: 2
Fore
SplineSet
-64 231 m 1,0,1
 -46 161 -46 161 10 113.5 c 128,-1,2
 66 66 66 66 125 66 c 128,-1,3
 184 66 184 66 222 116 c 128,-1,4
 260 166 260 166 260 240 c 128,-1,5
 260 314 260 314 213 368.5 c 128,-1,6
 166 423 166 423 99 423 c 1,7,-1
 114 488 l 1,8,9
 205 488 205 488 268.5 414 c 128,-1,10
 332 340 332 340 332 239 c 128,-1,11
 332 138 332 138 271 69 c 128,-1,12
 210 0 210 0 122 0 c 0,13,14
 54 0 54 0 -3.5 43 c 128,-1,15
 -61 86 -61 86 -78 149 c 1,16,-1
 -64 231 l 1,0,1
EndSplineSet
EndChar

StartChar: uni0C46
Encoding: 354 3142 357
Width: 0
GlyphClass: 2
Flags: W
LayerCount: 2
Fore
SplineSet
49 659 m 2,0,1
 94 659 94 659 126.5 627 c 128,-1,2
 159 595 159 595 159 549 c 128,-1,3
 159 503 159 503 125.5 470 c 128,-1,4
 92 437 92 437 45 437 c 2,5,-1
 -78 437 l 1,6,-1
 -78 503 l 1,7,-1
 54 503 l 2,8,9
 70 503 70 503 82 516.5 c 128,-1,10
 94 530 94 530 94 549 c 128,-1,11
 94 568 94 568 82 581 c 128,-1,12
 70 594 70 594 53 594 c 2,13,-1
 -334 594 l 1,14,-1
 -334 659 l 1,15,-1
 49 659 l 2,0,1
EndSplineSet
EndChar

StartChar: uni0C95
Encoding: 355 3221 358
Width: 497
GlyphClass: 2
Flags: W
LayerCount: 2
Fore
SplineSet
458 299 m 1,0,-1
 348 299 l 1,1,2
 376 283 376 283 401 245.5 c 128,-1,3
 426 208 426 208 426 161 c 0,4,5
 426 79 426 79 376 35.5 c 128,-1,6
 326 -8 326 -8 257.5 -8 c 128,-1,7
 189 -8 189 -8 139.5 35.5 c 128,-1,8
 90 79 90 79 90 161 c 0,9,10
 90 209 90 209 115 246.5 c 128,-1,11
 140 284 140 284 168 299 c 1,12,-1
 52 299 l 1,13,-1
 52 366 l 1,14,-1
 249 366 l 1,15,16
 268 378 268 378 268 406 c 128,-1,17
 268 434 268 434 247 450 c 1,18,-1
 52 450 l 1,19,-1
 52 536 l 1,20,-1
 302 536 l 2,21,22
 412 536 412 536 413 622 c 0,23,24
 413 658 413 658 370 696 c 1,25,-1
 392 719 l 1,26,27
 458 655 458 655 458 596.5 c 128,-1,28
 458 538 458 538 428 494 c 128,-1,29
 398 450 398 450 348 450 c 2,30,-1
 296 450 l 1,31,32
 318 434 318 434 318 409 c 128,-1,33
 318 384 318 384 304 366 c 1,34,-1
 458 366 l 1,35,-1
 458 299 l 1,0,-1
173 275.5 m 128,-1,37
 138 242 138 242 138 193 c 128,-1,38
 138 144 138 144 173 116 c 128,-1,39
 208 88 208 88 257 88 c 128,-1,40
 306 88 306 88 341 116 c 128,-1,41
 376 144 376 144 376 194 c 128,-1,42
 376 244 376 244 345 276.5 c 128,-1,43
 314 309 314 309 261 309 c 128,-1,36
 208 309 208 309 173 275.5 c 128,-1,37
EndSplineSet
EndChar

StartChar: U0CA1
Encoding: 356 3233 359
Width: 730
VWidth: 1024
GlyphClass: 2
Flags: W
LayerCount: 2
UndoRedoHistory
Layer: 0
Undoes
EndUndoes
Redoes
EndRedoes
EndUndoRedoHistory
UndoRedoHistory
Layer: 1
Undoes
EndUndoes
Redoes
EndRedoes
EndUndoRedoHistory
Fore
SplineSet
639 194 m 0,0,1
 640 220 640 220 634 248 c 0,2,3
 626 280 626 280 616 280 c 1,4,5
 572 206 572 206 496 207 c 0,6,7
 458 207 458 207 435 228 c 0,8,9
 412 250 412 250 412 278 c 0,10,11
 412 310 412 310 435 330 c 0,12,13
 461 356 461 356 505 356 c 0,14,15
 538 356 538 356 568 343 c 0,16,17
 590 333 590 333 590 332 c 1,18,19
 590 377 590 377 528 412 c 0,20,21
 462 450 462 450 364 450 c 0,22,23
 250 450 250 450 184 394 c 0,24,25
 112 334 112 334 112 222 c 0,26,27
 112 94 112 94 234 94 c 0,28,29
 318 94 318 94 366 200 c 1,30,31
 418 94 418 94 512 94 c 0,32,33
 639 94 639 94 639 194 c 0,0,1
592 307 m 1,34,35
 560 328 560 328 524 328 c 0,36,37
 494 328 494 328 475 315 c 128,-1,38
 456 302 456 302 456 284 c 0,39,40
 456 246 456 246 505 246 c 0,41,42
 563 246 563 246 592 307 c 1,34,35
675 172 m 0,43,44
 675 96 675 96 641 48 c 1,45,46
 601 -8 601 -8 522 -8 c 0,47,48
 436 -8 436 -8 366 114 c 1,49,50
 312 -8 312 -8 221 -8 c 0,51,52
 157 -8 157 -8 112 40 c 0,53,54
 62 94 62 94 62 184 c 0,55,56
 62 288 62 288 118 360 c 0,57,58
 166 420 166 420 244 450 c 1,59,-1
 72 450 l 1,60,-1
 72 536 l 1,61,-1
 518 536 l 2,62,63
 628 536 628 536 628 622 c 0,64,65
 628 658 628 658 586 696 c 1,66,-1
 608 719 l 1,67,68
 674 655 674 655 675 596 c 0,69,70
 676 450 676 450 524 450 c 1,71,72
 564 432 564 432 593 395 c 128,-1,73
 622 358 622 358 622 326 c 0,74,75
 622 306 622 306 626 302 c 1,76,77
 638 302 638 302 656 256 c 0,78,79
 675 208 675 208 675 172 c 0,43,44
EndSplineSet
EndChar

StartChar: uni0CA8
Encoding: 357 3240 360
Width: 615
GlyphClass: 2
Flags: W
LayerCount: 2
Fore
SplineSet
578 174 m 0,0,1
 578 89 578 89 536.5 40.5 c 128,-1,2
 495 -8 495 -8 434 -8 c 128,-1,3
 373 -8 373 -8 337 48 c 0,4,5
 327 64 327 64 291 154 c 1,6,7
 266 220 266 220 190 220 c 0,8,9
 148 220 148 220 115 196.5 c 128,-1,10
 82 173 82 173 82 132.5 c 128,-1,11
 82 92 82 92 116 68 c 0,12,13
 122 63 122 63 178 39 c 0,14,15
 212 25 212 25 211 2 c 1,16,17
 211 -30 211 -30 173 -30 c 0,18,19
 126 -30 126 -30 90 33 c 128,-1,20
 54 96 54 96 53 162 c 128,-1,21
 52 228 52 228 81.5 267.5 c 128,-1,22
 111 307 111 307 173 307 c 0,23,24
 269 307 269 307 299 200.5 c 128,-1,25
 329 94 329 94 437 94 c 0,26,27
 481 94 481 94 511.5 125 c 128,-1,28
 542 156 542 156 542 211 c 0,29,30
 542 298 542 298 484 360 c 0,31,32
 442 406 442 406 352 450 c 1,33,-1
 58 450 l 1,34,-1
 58 536 l 1,35,-1
 422 536 l 2,36,37
 532 536 532 536 532 622 c 0,38,39
 532 658 532 658 490 696 c 1,40,-1
 511 719 l 1,41,42
 578 655 578 655 578 596 c 0,43,44
 578 450 578 450 422 450 c 2,45,-1
 406 450 l 1,46,47
 578 350 578 350 578 174 c 0,0,1
EndSplineSet
EndChar

